<?xml version="1.0" encoding="utf-8"?>
<!-- Generator: Adobe Illustrator 19.0.0, SVG Export Plug-In . SVG Version: 6.00 Build 0)  -->
<svg version="1.1" id="Layer_1" xmlns="http://www.w3.org/2000/svg" xmlns:xlink="http://www.w3.org/1999/xlink" x="0px" y="0px"
	 viewBox="-169 356.1 250.4 119.1" style="enable-background:new -169 356.1 250.4 119.1;" xml:space="preserve">
<style type="text/css">
	.st0{opacity:0.2;fill:#FFFFFF;enable-background:new    ;}
	.st1{fill:none;stroke:#FF0000;stroke-width:0.1;}
	.st2{fill:url(#SVGID_1_);}
	.st3{fill:url(#SVGID_2_);}
	.st4{fill:#FFFFFF;}
	.st5{opacity:0.2;fill:url(#SVGID_3_);enable-background:new    ;}
	.st6{fill:url(#SVGID_4_);}
	.st7{opacity:0.2;fill:#FFFF8D;enable-background:new    ;}
	.st8{fill:#ED7700;}
	.st9{opacity:0.2;fill:url(#SVGID_5_);enable-background:new    ;}
	.st10{opacity:0.2;fill:url(#SVGID_6_);enable-background:new    ;}
	.st11{opacity:0.5;fill:url(#SVGID_7_);enable-background:new    ;}
	.st12{opacity:0.5;fill:url(#SVGID_8_);enable-background:new    ;}
	.st13{opacity:0.5;fill:url(#SVGID_9_);enable-background:new    ;}
	.st14{opacity:0.5;fill:url(#SVGID_10_);enable-background:new    ;}
	.st15{opacity:0.5;fill:url(#SVGID_11_);enable-background:new    ;}
	.st16{opacity:0.5;fill:url(#SVGID_12_);enable-background:new    ;}
	.st17{opacity:0.5;fill:url(#SVGID_13_);enable-background:new    ;}
	.st18{opacity:0.5;fill:url(#SVGID_14_);enable-background:new    ;}
	.st19{fill:url(#SVGID_15_);}
	.st20{fill:url(#SVGID_16_);}
	.st21{fill:url(#SVGID_17_);}
	.st22{fill:url(#SVGID_18_);}
	.st23{fill:url(#SVGID_19_);}
	.st24{fill:url(#SVGID_20_);}
	.st25{fill:url(#SVGID_21_);}
	.st26{fill:url(#SVGID_22_);}
	.st27{fill:url(#SVGID_23_);}
	.st28{fill:url(#SVGID_24_);}
	.st29{fill:url(#SVGID_25_);}
	.st30{fill:url(#SVGID_26_);}
	.st31{fill:url(#SVGID_27_);}
	.st32{fill:url(#SVGID_28_);}
	.st33{fill:#B2B2B2;}
	.st34{fill:url(#SVGID_29_);}
	.st35{fill:none;}
	.st36{fill:#BDC6E2;}
	.st37{fill:#3379BD;}
</style>
<g>
	<path class="st0" d="M-111.7,438.9c5.9,1,13.4,1.3,22.1-1.7c11.4-3.9,19.1-10.3,19.1-10.3l0.1-0.4c-0.9,0.2-2.7-0.2-4.2-0.6
		c-0.4,0-0.6,0-0.6,0S-90.8,438.7-111.7,438.9z"/>
	<path class="st0" d="M-89.5,437.2c11.4-3.9,19.1-10.3,19.1-10.3l0.1-0.4c-0.4,0.1-1.1,0.1-1.8-0.1c-3.9,3-17.2,11.9-34.4,13.1
		C-101.6,439.8-95.9,439.4-89.5,437.2z"/>
	<path class="st1" d="M-107.6,431.5L-107.6,431.5l-0.4,0.2L-107.6,431.5z"/>
	<g>
		
			<radialGradient id="SVGID_1_" cx="-76.7874" cy="392.2816" r="60.638" gradientTransform="matrix(1 0 0 -1 0 840.47)" gradientUnits="userSpaceOnUse">
			<stop  offset="0" style="stop-color:#EDF1F6"/>
			<stop  offset="0.1828" style="stop-color:#E9EDF4"/>
			<stop  offset="0.3833" style="stop-color:#DBE1EF"/>
			<stop  offset="0.5916" style="stop-color:#C6CEE6"/>
			<stop  offset="0.6573" style="stop-color:#BDC6E2"/>
			<stop  offset="1" style="stop-color:#586183"/>
		</radialGradient>
		<path class="st2" d="M-46.8,436.5c0,0-0.2-2.2-0.4-3.3c-0.2-1.1,0.5-1,0.8-1c0.3-0.1,0.3-0.1,0.3-0.6s-1.2-4.8-1.4-5.4
			c-0.2-0.7,0-0.8,0.3-1.2s1.5-1.6,2.5-3.5c1-1.9,2.1-1.9,2.3-3.3c0.2-1.4,2.2-9.1,2.2-9.1s-5.6-0.2-6.1-0.2s-0.8-0.3-1.2-1.1
			c-0.4-0.8-0.7-0.8-1-1c-0.3-0.2-0.4-0.8-0.4-0.8s-0.3-1.4-0.4-3.5c-0.1-2.2,0.2-3.8,0.5-4.5c0.2-0.6,0-0.8-0.7-1.5
			c-0.7-0.7,0-1.3,0-1.3l2-4.3c0,0-2.3,0.3-3,0.7c-0.6,0.3-0.8,0.5-1.4,0.1c-0.6-0.5-1.6-1.1-2.2-0.5s-0.9-0.1-0.9-0.1l-1-0.1
			c0,0-2.7-1.9-4.2-3.6c-1.5-1.7-3.6-0.1-3.6-0.1c0.3-1.9-1.7-2.3-4.7-2.3c-0.1,0-0.3,0-0.4,0l1.4,4.7l-0.2,6.2c0,0,0.2,1.2,0.4,1.9
			c0.2,0.7,0.9,2.3,0.9,2.3s0.2,0.4,0.7,0.5c0.5,0,1.4,0.9,1.4,3.9s-1.2,6.7-1.2,6.7s-0.4,0.9,0.1,1.3c0.5,0.4,1.9,1.6,2.5,3.8
			c0.5,2.2,0.1,2.2,0.5,2.4s1.1,0.3,1.6,1.2s2.9,6.9,4.1,13c0,0,0.1,0.9,0.7,1c0.6,0.1,1.2,0.8,1.6,2c0.4,1.2,0.8,1.8,0.8,1.8
			s0.3,0.5,1,0.5s1.1,0.7,1.6,1.7c0.5,0.9,1.4,0.7,1.8,1.5c0,0,1.1-1.3,1.2-2.3C-47.9,437.8-46.8,436.5-46.8,436.5z"/>
		
			<radialGradient id="SVGID_2_" cx="264.9937" cy="1251.8619" r="67.5317" gradientTransform="matrix(-0.2922 0.9564 0.9564 0.2922 -1121.8877 -226.4477)" gradientUnits="userSpaceOnUse">
			<stop  offset="0" style="stop-color:#EDF1F6"/>
			<stop  offset="0.1828" style="stop-color:#E9EDF4"/>
			<stop  offset="0.3833" style="stop-color:#DBE1EF"/>
			<stop  offset="0.5916" style="stop-color:#C6CEE6"/>
			<stop  offset="0.6573" style="stop-color:#BDC6E2"/>
			<stop  offset="1" style="stop-color:#A2AAC4"/>
		</radialGradient>
		<path class="st3" d="M-28,440.7c5.2-1,10.6-3.5,16.2-8.7c5.6-5.2,7.9-9.1,10.5-14.6c0.9-1.8,1.6-3.7,2.4-5.6
			c4.3-13.3,4.3-29.1,4.2-32.8l-0.2,0.1l-0.8,0.2l-0.2,0.9l-0.9,0.9l-0.8,1.7c0,0-2.8-4.2-6.1-5.9c0,0-0.5,0.8-1.8,1.4
			c-0.3,0.1-0.7,0.3-1.2,0.5c-1.4,0.6-2.9,1.6-3.7,4.1c-0.9,2.9-1.8,4.7-3.6,3.8c0,0,0.9,2.5-1.1,3.4c-2.1,0.9-4.7,2.9-4.7,2.9
			l-0.4,0.9c0,0-0.7,0.2-0.4,0.9c0.4,0.7-0.5,1.5-1.1,2c-0.6,0.4-0.5,0.6-0.4,1.4c0.1,0.7-0.2,3-0.2,3l-3.5-3.2c0,0-0.4-0.9-1.3-0.4
			c-0.9,0.5-1.1,0.6-1.6,0.2s-2.1-1.2-4.1-1.8c-2.1-0.5-3.5-0.6-3.5-0.6s-0.6-0.1-0.9,0.1c-0.3,0.2-0.3,0.5-1.2,0.6
			c-0.9,0.2-1.2,0.4-1.4,0.9s-2,5.8-2,5.8s-6.8-4.1-8-4.7c-1.2-0.6-1-1.6-2.5-3.1s-2.3-3-2.6-3.4c-0.3-0.5-0.4-0.7-1.1-0.7
			s-5.1-0.1-5.6-0.3c-0.5-0.2-0.5-0.2-0.5-0.5c0-0.3,0.3-0.9-0.8-1c-1.1-0.2-3.3-0.6-3.3-0.6s-0.9-1.4-1.8-1.9
			c-1-0.5-1.9-1.9-1.9-1.9s-0.2,11.1,1.1,18.2c1.3,7.1,4.9,14.4,6.5,17.8c1.6,3.4,6.6,9.7,10.4,13c3.7,3.3,7.5,5.3,10.7,6.3
			C-38.1,440.9-33.1,441.7-28,440.7z"/>
		<g>
			<path class="st4" d="M-39.1,416c-0.5,0-0.8-0.9-1-1.4s-0.5-0.8-0.9-1c-0.3-0.3-0.6-0.9-0.7-2.4c-0.1-1.5-0.2-2.8-0.2-3.6
				c0-0.8,0.4-2.1,0.5-2.7c0.1-0.6-0.3-0.8-0.3-0.8s-0.3-0.3-0.6-0.7c-0.3-0.3,0-1.1,0-1.1l1.9-4.4l-2,4.3c0,0-0.7,0.6,0,1.3
				c0.7,0.7,0.9,0.9,0.7,1.5c-0.2,0.6-0.6,2.3-0.5,4.5c0.1,2.2,0.4,3.5,0.4,3.5s0.1,0.6,0.4,0.8c0.3,0.2,0.5,0.2,1,1
				c0.4,0.8,0.7,1.1,1.2,1.1s4.4,0.2,5.7,0.2l0,0C-33.6,416.2-38.7,416-39.1,416z"/>
			<path class="st4" d="M-33.6,416.2l-2,8.5c0,0-0.1,0.9-0.7,1.4c-0.5,0.5-0.8,0.8-0.8,0.8s-0.3,0.5-0.7,1c-0.3,0.6-1,1.9-1.9,2.9
				s-1,1.3-1,1.3s-0.5,0.5-0.2,1.4c0.4,0.9,1.5,4.6,1.5,5.1s-0.1,0.6-0.5,0.6s-0.9,0.2-0.5,1.5c0.3,1.2,0.6,2.7,0.6,2.7
				s-1.3,1.1-1.4,2.1c-0.1,1-0.4,1.7-1,2.7c0.3-0.4,1-1.3,1.1-2.2c0.2-1,1.3-2.3,1.3-2.3s-0.2-2.2-0.4-3.3c-0.2-1.1,0.5-1,0.8-1
				c0.3-0.1,0.3-0.1,0.3-0.6s-1.2-4.8-1.4-5.4c-0.2-0.7,0-0.8,0.3-1.2s1.5-1.6,2.5-3.5s2.1-1.9,2.3-3.3c0.2-1.4,2.2-9.1,2.2-9.1
				S-33.3,416.2-33.6,416.2z"/>
		</g>
	</g>
	
		<linearGradient id="SVGID_3_" gradientUnits="userSpaceOnUse" x1="-63.9623" y1="411.0137" x2="-67.3508" y2="414.4209" gradientTransform="matrix(1 0 0 -1 0 840.47)">
		<stop  offset="0" style="stop-color:#EDF1F6"/>
		<stop  offset="0.1828" style="stop-color:#E9EDF4"/>
		<stop  offset="0.3833" style="stop-color:#DBE1EF"/>
		<stop  offset="0.5916" style="stop-color:#C6CEE6"/>
		<stop  offset="0.6573" style="stop-color:#BDC6E2"/>
		<stop  offset="1" style="stop-color:#A2AAC4"/>
	</linearGradient>
	<path class="st5" d="M-62.5,424c0,0-4.6,3.7-6.9,4.8c-2.3,1-1.4,1.7,2.8-0.2c4.2-1.9,4.7-2.8,4.7-2.8L-62.5,424z"/>
	<g>
		
			<radialGradient id="SVGID_4_" cx="-79.5449" cy="406.053" r="54.446" gradientTransform="matrix(1 0 0 -1 0 840.47)" gradientUnits="userSpaceOnUse">
			<stop  offset="0" style="stop-color:#FFD200"/>
			<stop  offset="7.175463e-02" style="stop-color:#FFC900"/>
			<stop  offset="1" style="stop-color:#FA5B00"/>
		</radialGradient>
		<path class="st6" d="M-53.9,421.2c0,0-16.1-3.2-32,8.1c-15.9,11.2-15,21.2-13,26.3c1.9,5.1,11.2,11.8,30.2,14
			c18.9,2.2,32.9-0.8,39.9-4.5c7.1-3.7,14.8-9,12.4-18.4S-33.5,424.5-53.9,421.2z"/>
		<path class="st7" d="M-73.8,425.2c14.3-4.6,24.2-3.1,26.9-2.4c-2.3-0.6-4.6-1.2-7.1-1.6c0,0-16.1-3.2-32,8.1
			c-7.6,5.4-11.3,10.4-13,14.8C-98.1,442.8-90,430.4-73.8,425.2z"/>
		<path class="st7" d="M-95.5,438.1c0,0,14.1-17.5,41.3-17c0,0-11.9-1.2-20.7,2.3C-83.6,427-92,433-95.5,438.1z"/>
		<path class="st8" d="M-85.9,429.6c15.9-11.2,32-8.1,32-8.1c20.5,3.3,35.1,16.1,37.5,25.5c0.3,1.1,0.4,2.2,0.4,3.2
			c0-1.1-0.1-2.3-0.4-3.5c-2.4-9.4-17-22.2-37.5-25.5c0,0-16.1-3.2-32,8.1c-11.5,8.1-14.2,15.5-14.1,21
			C-99.9,444.8-97.1,437.5-85.9,429.6z"/>
		<path class="st7" d="M-68.8,469.5c18.9,2.2,32.9-0.8,39.9-4.5c7.1-3.7,14.8-9,12.4-18.4c-1-3.9-4.2-8.5-9-12.7
			c1.5,1.5,8.7,9.2,7.4,14c-1.4,5.3-7.6,16.3-33.2,19c-23.3,2.4-41.9-6.1-45-7.6C-91.9,463.6-83.1,467.8-68.8,469.5z"/>
		<path class="st7" d="M-28.8,465c7.1-3.7,14.8-9,12.4-18.4c-1-3.9-4.2-8.5-9-12.7c0.1,0.1,0.2,0.3,0.4,0.4c3.2,2.9,6.1,7.6,7,9.4
			s2.8,12.4-14.9,19.9s-39.8,4-39.8,4c-7.8-0.8-11.6-2.7-11.6-2.7c2,2,7.8,3.3,7.8,3.3l0,0c2.4,0.5,4.9,0.9,7.6,1.2
			C-49.8,471.8-35.9,468.8-28.8,465z"/>
		<path class="st7" d="M-28.8,465c7.1-3.7,14.8-9,12.4-18.4c-0.4-1.4-1-2.9-1.9-4.3c0.7,1.5,1.4,3.8,1.3,6.7
			c-0.2,6-6.5,12.4-21.2,17c-14.6,4.6-31.3,2.9-31.3,2.9c2.3,1,8.9,1.3,8.9,1.3h-0.1C-45.8,470.8-34.8,468.2-28.8,465z"/>
		<path class="st7" d="M-48.7,469.9c0,0,13.1-2.2,21.2-7.3c8.1-5,10.2-9.7,10.8-12.2c0.5-2.6,1.4,1.8-1.6,6.7
			C-21.4,461.9-33.9,469.4-48.7,469.9z"/>
		<path class="st7" d="M-38,468.3c0,0,16-6,19.3-12.9c3.3-6.8,1.6,1.1-2.1,4.4C-24.5,463.2-32.9,467.4-38,468.3z"/>
		
			<radialGradient id="SVGID_5_" cx="-68.7278" cy="399.4855" r="48.9111" gradientTransform="matrix(1 0 0 -1 0 840.47)" gradientUnits="userSpaceOnUse">
			<stop  offset="0" style="stop-color:#FFD200"/>
			<stop  offset="7.175463e-02" style="stop-color:#FFC900"/>
			<stop  offset="1" style="stop-color:#FA5B00"/>
		</radialGradient>
		<path class="st9" d="M-33.5,430.2c0,0,10,6.5,12.4,11.2c2.4,4.7,0,4.5,0,7.1c0,2.6-1.5,4.2-3.7,5.7s-2.2,2.2-5.3,4.3
			c-3.2,2.1-9.4,3-13.7,3s2.7,1.5,8.4,0.3c5.7-1.2,0.9,2.4-10.1,4.3c-10.9,1.9-18.3,1.2-25.1,0.4c-6.8-0.8-14.8-2.7-20.1-4.9
			c0,0,17.8,5.4,34.6,4.1c16.9-1.3,7.7-3,3.5-4.2c-4.2-1.3-2.2-3.5,4.3-3.1C-41.8,458.7-21.2,449.3-33.5,430.2z"/>
		
			<radialGradient id="SVGID_6_" cx="-50.133" cy="397.7839" r="34.3694" gradientTransform="matrix(1 0 0 -1 0 840.47)" gradientUnits="userSpaceOnUse">
			<stop  offset="0" style="stop-color:#FFD200"/>
			<stop  offset="7.175463e-02" style="stop-color:#FFC900"/>
			<stop  offset="1" style="stop-color:#FA5B00"/>
		</radialGradient>
		<path class="st10" d="M-45.6,466.2c10.9-1.9,15.8-5.5,10.1-4.3c-5.7,1.2-12.7-0.3-8.4-0.3s10.5-0.9,13.7-3s3.1-2.9,5.3-4.3
			c2.2-1.5,3.7-3,3.7-5.7c0-2.6,2.4-2.4,0-7.1c-1.5-2.9-5.9-6.5-9-8.8l0,0c0,0,4.8,5.6,3.9,14.5c-0.9,8.9-13.6,12.5-17.3,12.6
			c-3.7,0.1-5.8,1.9-2.1,2.9s2.9,4.1-18.2,4.7C-58.7,467.5-53,467.4-45.6,466.2z"/>
		<g>
			
				<linearGradient id="SVGID_7_" gradientUnits="userSpaceOnUse" x1="-46.7129" y1="422.5685" x2="-29.5053" y2="402.2607" gradientTransform="matrix(1 0 0 -1 0 840.47)">
				<stop  offset="0" style="stop-color:#FFFFFF"/>
				<stop  offset="0.5528" style="stop-color:#F4AE70"/>
				<stop  offset="1" style="stop-color:#EB6F00"/>
			</linearGradient>
			<path class="st11" d="M-35,427.7c-1.3-0.7-2.7-1.4-4.2-2.1c-0.8,0.4-2.1,0.9-3.4,1.2c1.1,0.7,2.3,1.4,3.6,2.1
				C-37.7,428.9-36,428.2-35,427.7z"/>
			
				<linearGradient id="SVGID_8_" gradientUnits="userSpaceOnUse" x1="-50.4479" y1="419.4026" x2="-33.2412" y2="399.0959" gradientTransform="matrix(1 0 0 -1 0 840.47)">
				<stop  offset="0" style="stop-color:#FFFFFF"/>
				<stop  offset="0.5528" style="stop-color:#F4AE70"/>
				<stop  offset="1" style="stop-color:#EB6F00"/>
			</linearGradient>
			<path class="st12" d="M-43.6,427c-1.2,0.1-2.8,1.3-3.9,2.1c1.2,0.7,2.6,1.5,3.9,2.3c0.9-0.8,2.5-2,3.8-2.3
				c-1.3-0.8-2.5-1.5-3.6-2.1C-43.4,427-43.5,427-43.6,427z"/>
			
				<linearGradient id="SVGID_9_" gradientUnits="userSpaceOnUse" x1="-45.6352" y1="423.4763" x2="-28.4317" y2="403.1734" gradientTransform="matrix(1 0 0 -1 0 840.47)">
				<stop  offset="0" style="stop-color:#FFFFFF"/>
				<stop  offset="0.5528" style="stop-color:#F4AE70"/>
				<stop  offset="1" style="stop-color:#EB6F00"/>
			</linearGradient>
			<path class="st13" d="M-31.1,430.2c-1-0.7-2.2-1.4-3.4-2.1c-0.8,0.4-2.4,1.1-3.9,1.4c1.1,0.7,2.3,1.4,3.4,2.1
				C-33.6,431.3-32,430.6-31.1,430.2z"/>
			
				<linearGradient id="SVGID_10_" gradientUnits="userSpaceOnUse" x1="-49.2922" y1="420.3865" x2="-32.0818" y2="400.0754" gradientTransform="matrix(1 0 0 -1 0 840.47)">
				<stop  offset="0" style="stop-color:#FFFFFF"/>
				<stop  offset="0.5528" style="stop-color:#F4AE70"/>
				<stop  offset="1" style="stop-color:#EB6F00"/>
			</linearGradient>
			<path class="st14" d="M-35.8,431.6c-1.1-0.7-2.3-1.4-3.4-2.1c-1.2,0.1-2.9,1.4-4,2.2c1.2,0.7,2.3,1.4,3.4,2.2
				C-38.7,433-37.1,431.8-35.8,431.6z"/>
			
				<linearGradient id="SVGID_11_" gradientUnits="userSpaceOnUse" x1="-44.6665" y1="424.4229" x2="-27.3739" y2="404.0148" gradientTransform="matrix(1 0 0 -1 0 840.47)">
				<stop  offset="0" style="stop-color:#FFFFFF"/>
				<stop  offset="0.5528" style="stop-color:#F4AE70"/>
				<stop  offset="1" style="stop-color:#EB6F00"/>
			</linearGradient>
			<path class="st15" d="M-30.7,430.5c-0.7,0.3-2.3,1.1-3.8,1.4c2.5,1.7,4.9,3.3,6.6,4.8c0.9-0.6,1.6-1.4,2.1-2.2
				C-25.7,434.5-27.5,432.7-30.7,430.5z"/>
			
				<linearGradient id="SVGID_12_" gradientUnits="userSpaceOnUse" x1="-47.871" y1="421.5861" x2="-30.6637" y2="401.2787" gradientTransform="matrix(1 0 0 -1 0 840.47)">
				<stop  offset="0" style="stop-color:#FFFFFF"/>
				<stop  offset="0.5528" style="stop-color:#F4AE70"/>
				<stop  offset="1" style="stop-color:#EB6F00"/>
			</linearGradient>
			<path class="st16" d="M-35.2,432c-0.1,0-0.2,0-0.3,0c-1.2,0.1-2.8,1.3-3.8,2.1c0.7,0.5,1.4,1,2,1.5c5.4,4.1,5.7,2.6,7.1,2.2
				c0.6-0.2,1.2-0.5,1.9-0.9C-30.1,435.4-32.5,433.7-35.2,432z"/>
			
				<linearGradient id="SVGID_13_" gradientUnits="userSpaceOnUse" x1="-48.3544" y1="421.1779" x2="-31.1475" y2="400.871" gradientTransform="matrix(1 0 0 -1 0 840.47)">
				<stop  offset="0" style="stop-color:#FFFFFF"/>
				<stop  offset="0.5528" style="stop-color:#F4AE70"/>
				<stop  offset="1" style="stop-color:#EB6F00"/>
			</linearGradient>
			<path class="st17" d="M-43.2,426.5c1.2-0.2,2.5-0.7,3.5-1.1c-2-0.9-4.2-1.6-6.6-2.3c0,0-0.8,0.2-1.9,0.5
				C-47.2,424.2-45.4,425.2-43.2,426.5z"/>
			
				<linearGradient id="SVGID_14_" gradientUnits="userSpaceOnUse" x1="-51.8638" y1="418.2088" x2="-34.6471" y2="397.8904" gradientTransform="matrix(1 0 0 -1 0 840.47)">
				<stop  offset="0" style="stop-color:#FFFFFF"/>
				<stop  offset="0.5528" style="stop-color:#F4AE70"/>
				<stop  offset="1" style="stop-color:#EB6F00"/>
			</linearGradient>
			<path class="st18" d="M-44,426.6c-2.2-1.3-4-2.3-4.9-2.8c-1.3,0.5-2.9,1.2-4,2.2c0,0,2.2,1.2,5,2.8
				C-46.9,428.1-45.3,426.9-44,426.6z"/>
		</g>
		<g>
			
				<linearGradient id="SVGID_15_" gradientUnits="userSpaceOnUse" x1="-88.2731" y1="400.9275" x2="-68.7397" y2="377.3638" gradientTransform="matrix(1 0 0 -1 0 840.47)">
				<stop  offset="0" style="stop-color:#FFFFCF"/>
				<stop  offset="0.4608" style="stop-color:#FFCB6E"/>
				<stop  offset="1" style="stop-color:#FF9000"/>
			</linearGradient>
			<path class="st19" d="M-78,454.9c1.3-0.4,2.9-0.8,4.8-1.1c-1-0.8-2-1.8-3-2.7c-2,0.2-3.7,0.4-5.1,0.8
				C-80.3,452.8-79.2,453.9-78,454.9z"/>
			
				<linearGradient id="SVGID_16_" gradientUnits="userSpaceOnUse" x1="-93.342" y1="397.7694" x2="-73.1704" y2="373.4357" gradientTransform="matrix(1 0 0 -1 0 840.47)">
				<stop  offset="0" style="stop-color:#FFFFCF"/>
				<stop  offset="0.4608" style="stop-color:#FFCB6E"/>
				<stop  offset="1" style="stop-color:#FF9000"/>
			</linearGradient>
			<path class="st20" d="M-78.2,455.4c-2.9,1-4.4,2.3-5.1,3.3s-0.8,1.9-0.7,2.4c2.3,0.5,4.7,0.9,6.9,1.1c0.4-1,1.1-2.5,2.5-4
				C-75.8,457.4-77,456.4-78.2,455.4z"/>
			
				<linearGradient id="SVGID_17_" gradientUnits="userSpaceOnUse" x1="-87.4674" y1="403.0579" x2="-67.1664" y2="378.568" gradientTransform="matrix(1 0 0 -1 0 840.47)">
				<stop  offset="0" style="stop-color:#FFFFCF"/>
				<stop  offset="0.4608" style="stop-color:#FFCB6E"/>
				<stop  offset="1" style="stop-color:#FF9000"/>
			</linearGradient>
			<path class="st21" d="M-68.6,457.6L-68.6,457.6c-1.4,0.4-2.4,1.2-3,2c1.3,0.8,2.6,1.3,3.7,1.6C-66.3,460.2-66.6,458.9-68.6,457.6
				z"/>
			
				<linearGradient id="SVGID_18_" gradientUnits="userSpaceOnUse" x1="-94.6674" y1="395.9072" x2="-74.9117" y2="372.0753" gradientTransform="matrix(1 0 0 -1 0 840.47)">
				<stop  offset="0" style="stop-color:#FFFFCF"/>
				<stop  offset="0.4608" style="stop-color:#FFCB6E"/>
				<stop  offset="1" style="stop-color:#FF9000"/>
			</linearGradient>
			<path class="st22" d="M-78.6,455c-1.2-1-2.3-2.1-3.3-3.1c-4.5,1.1-6.5,2.8-7.3,4.2s-0.7,2.7-0.6,3.3c1.6,0.5,3.4,1.1,5.4,1.5
				c0-0.6,0.1-1.5,0.8-2.5C-82.9,457.4-81.5,456.1-78.6,455z"/>
			
				<linearGradient id="SVGID_19_" gradientUnits="userSpaceOnUse" x1="-87.8228" y1="401.2931" x2="-68.2948" y2="377.7357" gradientTransform="matrix(1 0 0 -1 0 840.47)">
				<stop  offset="0" style="stop-color:#FFFFCF"/>
				<stop  offset="0.4608" style="stop-color:#FFCB6E"/>
				<stop  offset="1" style="stop-color:#FF9000"/>
			</linearGradient>
			<path class="st23" d="M-74.2,457.9c0.8-0.8,1.9-1.6,3.2-2.2c-0.5-0.5-1.2-1-1.8-1.5c-1.9,0.3-3.5,0.6-4.8,1.1
				C-76.5,456.2-75.4,457.1-74.2,457.9z"/>
			
				<linearGradient id="SVGID_20_" gradientUnits="userSpaceOnUse" x1="-90.6251" y1="398.9822" x2="-71.089" y2="375.4152" gradientTransform="matrix(1 0 0 -1 0 840.47)">
				<stop  offset="0" style="stop-color:#FFFFCF"/>
				<stop  offset="0.4608" style="stop-color:#FFCB6E"/>
				<stop  offset="1" style="stop-color:#FF9000"/>
			</linearGradient>
			<path class="st24" d="M-74.2,458.5c-1.3,1.4-2,2.8-2.4,3.7c1.1,0.1,2.2,0.1,3.2,0.1c0.1-0.6,0.4-1.6,1-2.6
				C-72.9,459.3-73.6,458.9-74.2,458.5z"/>
			
				<linearGradient id="SVGID_21_" gradientUnits="userSpaceOnUse" x1="-88.8367" y1="400.4568" x2="-69.3049" y2="376.8949" gradientTransform="matrix(1 0 0 -1 0 840.47)">
				<stop  offset="0" style="stop-color:#FFFFCF"/>
				<stop  offset="0.4608" style="stop-color:#FFCB6E"/>
				<stop  offset="1" style="stop-color:#FF9000"/>
			</linearGradient>
			<path class="st25" d="M-81.8,451.5c1.5-0.4,3.2-0.6,5.1-0.8c-1.1-1.1-2.1-2.2-2.9-3.1c-1.9-2.5-4.9-3-7.9-2
				C-86.6,446.5-84.5,448.8-81.8,451.5z"/>
			
				<linearGradient id="SVGID_22_" gradientUnits="userSpaceOnUse" x1="-87.3578" y1="402.0908" x2="-67.5894" y2="378.2435" gradientTransform="matrix(1 0 0 -1 0 840.47)">
				<stop  offset="0" style="stop-color:#FFFFCF"/>
				<stop  offset="0.4608" style="stop-color:#FFCB6E"/>
				<stop  offset="1" style="stop-color:#FF9000"/>
			</linearGradient>
			<path class="st26" d="M-72,459.3c0.6-0.8,1.6-1.6,3-2.1c-0.3-0.3-0.9-0.7-1.5-1.2c-1.3,0.6-2.4,1.3-3.2,2.2
				C-73.2,458.6-72.6,459-72,459.3z"/>
			
				<linearGradient id="SVGID_23_" gradientUnits="userSpaceOnUse" x1="-88.839" y1="400.4617" x2="-69.3044" y2="376.8965" gradientTransform="matrix(1 0 0 -1 0 840.47)">
				<stop  offset="0" style="stop-color:#FFFFCF"/>
				<stop  offset="0.4608" style="stop-color:#FFCB6E"/>
				<stop  offset="1" style="stop-color:#FF9000"/>
			</linearGradient>
			<path class="st27" d="M-72.9,462.3c1.9-0.1,3.4-0.4,4.4-0.8c-1.1-0.4-2.2-0.9-3.4-1.6C-72.5,460.8-72.8,461.7-72.9,462.3z"/>
			
				<linearGradient id="SVGID_24_" gradientUnits="userSpaceOnUse" x1="-99.4053" y1="391.6974" x2="-79.8738" y2="368.1358" gradientTransform="matrix(1 0 0 -1 0 840.47)">
				<stop  offset="0" style="stop-color:#FFFFCF"/>
				<stop  offset="0.4608" style="stop-color:#FFCB6E"/>
				<stop  offset="1" style="stop-color:#FF9000"/>
			</linearGradient>
			<path class="st28" d="M-95.8,453c-0.7,2,0,3.8,2.2,5c0.8,0.4,1.9,0.9,3.2,1.3c-0.1-0.6-0.1-1.4,0.2-2.3
				C-92.7,456.7-94.9,454.2-95.8,453z"/>
			
				<linearGradient id="SVGID_25_" gradientUnits="userSpaceOnUse" x1="-94.0185" y1="396.1728" x2="-74.4736" y2="372.5952" gradientTransform="matrix(1 0 0 -1 0 840.47)">
				<stop  offset="0" style="stop-color:#FFFFCF"/>
				<stop  offset="0.4608" style="stop-color:#FFCB6E"/>
				<stop  offset="1" style="stop-color:#FF9000"/>
			</linearGradient>
			<path class="st29" d="M-89.2,455.3c1.3-1.6,3.6-2.9,6.9-3.7c-2.7-2.7-4.8-5.1-5.6-5.9c-1.5,0.6-3,1.5-4.4,2.7
				c-0.8,0.7-1.5,1.4-2,2.1C-92.7,453.5-89.8,455-89.2,455.3z"/>
		</g>
	</g>
	<g>
		<g>
			
				<linearGradient id="SVGID_26_" gradientUnits="userSpaceOnUse" x1="-48.6141" y1="339.8867" x2="-55.3592" y2="386.87" gradientTransform="matrix(1 0 0 -1 0 840.47)">
				<stop  offset="0" style="stop-color:#FFFFF0"/>
				<stop  offset="0.2781" style="stop-color:#FBFBED"/>
				<stop  offset="0.5832" style="stop-color:#EDEDE4"/>
				<stop  offset="0.9" style="stop-color:#D8D8D5"/>
				<stop  offset="1" style="stop-color:#CFCFCF"/>
			</linearGradient>
			<path class="st30" d="M-99,455.3c0,0-2.7,8.3,17.9,14.8s24.5,0.9,40,4.3c15.5,3.4,26.5-4.3,29.9-12.9c3.4-8.6-9.2-22.3-9.2-22.3
				s5.4,5.7,4.2,12.8s-9.2,12-17.9,15.3c-8.7,3.3-22.6,3.2-27.5,2.9c-5-0.2-16.6-1.5-23.2-4.3C-91.4,463.1-96.1,460.9-99,455.3z"/>
			
				<linearGradient id="SVGID_27_" gradientUnits="userSpaceOnUse" x1="-49.216" y1="339.4613" x2="-56.0058" y2="386.756" gradientTransform="matrix(1 0 0 -1 0 840.47)">
				<stop  offset="0" style="stop-color:#FFFFF0"/>
				<stop  offset="0.2781" style="stop-color:#FBFBED"/>
				<stop  offset="0.5832" style="stop-color:#EDEDE4"/>
				<stop  offset="0.9" style="stop-color:#D8D8D5"/>
				<stop  offset="1" style="stop-color:#CFCFCF"/>
			</linearGradient>
			<path class="st31" d="M-73.4,470.7c17.9,4,20.7-0.5,29.2,1.6s21.2,0.3,27.6-8.5c4.8-6.6,1.5-15.1-0.4-18.9c0.8,2,1.3,4.5,0.8,7.2
				c-1.2,7.1-9.2,12-17.9,15.3c-8.7,3.3-22.6,3.2-27.5,2.9c-5-0.2-16.6-1.5-23.2-4.3c-5.2-2.2-9.3-4.1-12.2-7.5h-0.1
				C-97.1,458.4-91.3,466.7-73.4,470.7z"/>
			
				<linearGradient id="SVGID_28_" gradientUnits="userSpaceOnUse" x1="-43.1884" y1="340.0545" x2="-50.0256" y2="387.6791" gradientTransform="matrix(1 0 0 -1 0 840.47)">
				<stop  offset="0" style="stop-color:#FFFFF0"/>
				<stop  offset="0.2781" style="stop-color:#FBFBED"/>
				<stop  offset="0.5832" style="stop-color:#EDEDE4"/>
				<stop  offset="0.9" style="stop-color:#D8D8D5"/>
				<stop  offset="1" style="stop-color:#CFCFCF"/>
			</linearGradient>
			<path class="st32" d="M-34.1,467.2c-8.7,3.3-22.6,3.2-27.5,2.9c-4.4-0.2-13.8-1.2-20.6-3.3c4.8,1.8,10.9,3.6,16.5,4.1
				c11.8,0.9,13.2-0.8,22.1,0.2s17.5-1.1,23.4-6.7c3.8-3.7,4.3-9.7,4.1-13.4c0,0.3-0.1,0.6-0.1,0.9C-17.4,459-25.4,464-34.1,467.2z"
				/>
			<path class="st33" d="M-62.7,470.5c15.5,0.8,26.4-1.2,32.2-4.1c5.8-2.9,11.2-6,13.6-10.8c1.8-3.6,1.1-6.8,0.7-8.2
				c0.3,1.4,0.3,2.9,0,4.5c-1.2,7.1-9.2,12-17.9,15.3c-8.7,3.3-22.6,3.2-27.5,2.9c-5-0.2-16.6-1.5-23.2-4.3c-1.1-0.5-2.2-1-3.3-1.4
				h-0.1C-88.1,464.5-78.2,469.7-62.7,470.5z"/>
			
				<linearGradient id="SVGID_29_" gradientUnits="userSpaceOnUse" x1="-29.3918" y1="342.6405" x2="-36.1388" y2="389.6364" gradientTransform="matrix(1 0 0 -1 0 840.47)">
				<stop  offset="0" style="stop-color:#FFFFF0"/>
				<stop  offset="0.2781" style="stop-color:#FBFBED"/>
				<stop  offset="0.5832" style="stop-color:#EDEDE4"/>
				<stop  offset="0.9" style="stop-color:#D8D8D5"/>
				<stop  offset="1" style="stop-color:#CFCFCF"/>
			</linearGradient>
			<path class="st34" d="M-17.3,457.1c0,0-7.7,13.6-33.9,13.8C-51.2,470.8-29.8,475.7-17.3,457.1z"/>
		</g>
		<path class="st35" d="M-84.8,465.9c0.8,0.3,1.7,0.7,2.6,1c-3.5-1.3-6.3-2.6-7.8-3.3C-88.4,464.3-86.7,465.1-84.8,465.9z"/>
	</g>
	<polygon class="st36" points="-14.1,440.2 0.1,436 8.9,443.2 	"/>
	<polygon class="st36" points="-91.2,432.9 -91.4,426.6 -86.1,424.8 	"/>
	<polygon class="st36" points="-76.7,421.4 -72.3,415.5 -66.7,415.7 	"/>
</g>
<g>
	<path class="st37" d="M-169,423.9v-16.4l38.3-51.4h16v53h11.7v14.7h-11.7v20.5h-17v-20.4H-169z M-132.1,378.5l-22.8,30.6h23.2
		v-30.6H-132.1z"/>
	<path class="st37" d="M15.4,423.9v-16.4l38.3-51.4h16v53h11.7v14.7H69.7v20.5h-17v-20.4H15.4z M52.3,378.5l-22.8,30.6h23.2v-30.6
		H52.3z"/>
</g>
</svg>
