<?xml version="1.0" encoding="utf-8"?>
<!-- Generator: Adobe Illustrator 19.0.0, SVG Export Plug-In . SVG Version: 6.00 Build 0)  -->
<svg version="1.1" id="Layer_1" xmlns="http://www.w3.org/2000/svg" xmlns:xlink="http://www.w3.org/1999/xlink" x="0px" y="0px"
	 viewBox="0 0 35 35" style="enable-background:new 0 0 35 35;" xml:space="preserve">
<style type="text/css">
	.st0{fill:#FFFFFF;stroke:#7BA1B2;stroke-miterlimit:10;}
	.st1{fill:#7BA1B2;stroke:#7BA1B2;stroke-miterlimit:10;}
	.st2{fill:#7BA1B2;}
</style>
<g id="XMLID_152_">
	<g id="XMLID_173_">
		<rect id="XMLID_177_" x="1.2" y="1.3" class="st0" width="27.1" height="32.5"/>
		<path id="XMLID_174_" class="st1" d="M23.8,28.3H7.2c-0.6,0-1,0.4-1,1c0,0.6,0.5,1,1,1h16.6c0.6,0,1-0.4,1-1
			C24.9,28.8,24.4,28.3,23.8,28.3L23.8,28.3z M23.8,28.3"/>
	</g>
	<rect id="XMLID_172_" x="3.8" y="4.1" class="st0" width="9.3" height="9.4"/>
	<rect id="XMLID_171_" x="14.5" y="3.8" class="st2" width="8.5" height="1.3"/>
	<rect id="XMLID_170_" x="14.5" y="6" class="st2" width="11.4" height="0.6"/>
	<rect id="XMLID_168_" x="14.5" y="8.2" class="st2" width="11.4" height="0.6"/>
	<rect id="XMLID_167_" x="14.5" y="10.4" class="st2" width="11.4" height="0.6"/>
	<rect id="XMLID_166_" x="3.4" y="15.1" class="st2" width="11.4" height="0.6"/>
	<rect id="XMLID_164_" x="3.4" y="17.3" class="st2" width="22.5" height="0.6"/>
	<rect id="XMLID_162_" x="3.4" y="19.4" class="st2" width="22.5" height="0.6"/>
	<rect id="XMLID_161_" x="3.4" y="21.7" class="st2" width="22.5" height="0.6"/>
	<path id="XMLID_157_" class="st2" d="M10.9,11.7v-2c0-0.6-0.4-1.1-1-1.3c0,0-0.4-0.1-0.4-0.1c-0.1,0-0.3,0-0.4,0.1L8.5,9.1L7.7,8.4
		C7.6,8.3,7.5,8.3,7.4,8.3c0,0-0.4,0.1-0.4,0.1C6.4,8.6,6,9.1,6,9.7v2c0,0.2,0.2,0.4,0.4,0.4h4.1C10.8,12.1,10.9,12,10.9,11.7
		L10.9,11.7z M10.1,11.4H6.8V9.7c0-0.3,0.2-0.5,0.4-0.6l0.1,0l0.8,0.7c0.2,0.1,0.4,0.1,0.5,0l0.8-0.7l0.1,0c0.3,0.1,0.4,0.3,0.4,0.6
		L10.1,11.4L10.1,11.4z M10.1,11.4"/>
	<path id="XMLID_153_" class="st2" d="M8.5,8.2c0.8,0,1.4-0.6,1.4-1.4S9.3,5.4,8.5,5.4C7.7,5.4,7,6,7,6.8S7.7,8.2,8.5,8.2L8.5,8.2z
		 M8.5,6.2c0.4,0,0.6,0.3,0.6,0.6c0,0.3-0.3,0.6-0.6,0.6c-0.4,0-0.6-0.3-0.6-0.6C7.8,6.5,8.1,6.2,8.5,6.2L8.5,6.2z M8.5,6.2"/>
</g>
<g id="XMLID_62_">
	<g id="XMLID_147_">
		<rect id="XMLID_151_" x="13" y="8.2" class="st0" width="21.1" height="25.5"/>
		<path id="XMLID_148_" class="st2" d="M30.6,29.5H17.6c-0.4,0-0.8,0.4-0.8,0.8c0,0.4,0.4,0.8,0.8,0.8h12.9c0.4,0,0.8-0.4,0.8-0.8
			C31.4,29.8,31,29.5,30.6,29.5L30.6,29.5z M30.6,29.5"/>
	</g>
	<rect id="XMLID_146_" x="15" y="10.4" class="st0" width="7.3" height="7.4"/>
	<rect id="XMLID_145_" x="23.3" y="10.2" class="st2" width="6.6" height="1"/>
	<rect id="XMLID_144_" x="23.3" y="12.7" class="st2" width="8.9" height="0.5"/>
	<rect id="XMLID_142_" x="23.3" y="14" class="st2" width="8.9" height="0.5"/>
	<rect id="XMLID_141_" x="23.3" y="15.4" class="st2" width="8.9" height="0.5"/>
	<rect id="XMLID_140_" x="14.7" y="19.1" class="st2" width="8.9" height="0.5"/>
	<rect id="XMLID_138_" x="14.7" y="20.8" class="st2" width="17.5" height="0.5"/>
	<rect id="XMLID_136_" x="14.8" y="22.6" class="st2" width="17.5" height="0.5"/>
	<rect id="XMLID_135_" x="14.7" y="24.3" class="st2" width="17.5" height="0.5"/>
	<path id="XMLID_67_" class="st2" d="M20.5,16.5v-1.6c0-0.5-0.3-0.9-0.8-1c0,0-0.3-0.1-0.3-0.1c-0.1,0-0.2,0-0.3,0.1l-0.6,0.5
		L18,13.8c-0.1-0.1-0.2-0.1-0.3-0.1c0,0-0.3,0.1-0.3,0.1c-0.5,0.2-0.8,0.6-0.8,1v1.6c0,0.2,0.1,0.3,0.3,0.3h3.2
		C20.4,16.8,20.5,16.6,20.5,16.5L20.5,16.5z M19.9,16.1h-2.6v-1.3c0-0.2,0.1-0.4,0.3-0.5l0.1,0l0.7,0.6c0.1,0.1,0.3,0.1,0.4,0
		l0.7-0.6l0.1,0c0.2,0.1,0.3,0.3,0.3,0.5L19.9,16.1L19.9,16.1z M19.9,16.1"/>
	<path id="XMLID_63_" class="st2" d="M18.6,13.7c0.6,0,1.1-0.5,1.1-1.1s-0.5-1.1-1.1-1.1c-0.6,0-1.1,0.5-1.1,1.1S18,13.7,18.6,13.7
		L18.6,13.7z M18.6,12.1c0.3,0,0.5,0.2,0.5,0.5c0,0.3-0.2,0.5-0.5,0.5c-0.3,0-0.5-0.2-0.5-0.5C18.1,12.3,18.3,12.1,18.6,12.1
		L18.6,12.1z M18.6,12.1"/>
</g>
</svg>
