<?xml version="1.0" encoding="utf-8"?>
<!-- Generator: Adobe Illustrator 19.0.0, SVG Export Plug-In . SVG Version: 6.00 Build 0)  -->
<svg version="1.1" id="Layer_1" xmlns="http://www.w3.org/2000/svg" xmlns:xlink="http://www.w3.org/1999/xlink" x="0px" y="0px"
	 viewBox="-529.3 284.8 327.7 270.1" style="enable-background:new -529.3 284.8 327.7 270.1;" xml:space="preserve">
<style type="text/css">
	.st0{fill:#2F6BB3;}
	.st1{fill:#83A4B6;}
	.st2{clip-path:url(#XMLID_6_);}
	.st3{fill:#0F5FA5;}
	.st4{clip-path:url(#XMLID_7_);}
	.st5{fill:#3A78BC;}
	.st6{clip-path:url(#XMLID_8_);}
	.st7{fill:#FFFFFF;}
</style>
<g id="XMLID_74_">
	<g id="XMLID_32_">
		<path id="XMLID_52_" class="st0" d="M-509.8,554.7c-3,0-5.7-0.4-8.1-1.3c-2.4-0.9-4.4-2.2-6.1-4c-1.7-1.8-3-4.2-3.9-7.1
			c-0.9-2.9-1.4-6.4-1.4-10.5v-14.5c0-3.1,0.5-5.6,1.4-7.4c0.9-1.7,2.3-2.9,4.2-3.7c1.1-0.5,2.4-0.8,3.9-0.9c1-0.1,2-0.2,3.2-0.2
			c1.2,0,2.2,0,3,0c2.4,0,4.4,0.3,6.2,1c1.7,0.7,3.2,1.6,4.4,2.7c1.2,1.1,2,2.4,2.6,3.8c0.6,1.4,0.9,2.9,0.9,4.5
			c0,1.5-0.3,2.9-0.8,4.1c-0.5,1.3-1.3,2.4-2.3,3.5c1.4,0.5,2.7,1.2,3.8,2c1.2,0.8,2.2,1.8,3.1,3c0.9,1.2,1.6,2.5,2.1,4.1
			c0.5,1.5,0.8,3.2,0.8,5.1c0,2.1-0.4,4.1-1.2,6c-0.8,1.9-1.9,3.6-3.4,5.1c-1.5,1.5-3.2,2.7-5.3,3.5
			C-504.9,554.3-507.2,554.7-509.8,554.7z M-509.8,547.9c1.5,0,2.7-0.2,3.8-0.7c1.1-0.5,1.9-1.1,2.6-1.9c0.7-0.8,1.1-1.8,1.4-2.8
			c0.3-1.1,0.4-2.3,0.4-3.5c0-2-0.3-3.7-1-5c-0.7-1.3-1.6-2.3-2.7-3c-1.1-0.7-2.3-1.2-3.6-1.5c-1.3-0.3-2.6-0.4-3.7-0.3
			c-1.1,0-2.1,0.1-3.1,0.1c-1,0-1.9,0-2.7,0c-0.9,0-1.7,0-2.5-0.1v3c-0.1,3.1,0.1,5.7,0.6,7.7c0.5,2.1,1.2,3.7,2.1,4.9
			c1,1.2,2.1,2.1,3.5,2.6C-513.2,547.6-511.6,547.9-509.8,547.9z M-520.8,523.3h5.9c2.5,0,4.4-0.5,5.8-1.4c1.4-0.9,2.1-2.5,2.1-4.7
			c0-1.1-0.2-2-0.6-2.8c-0.4-0.8-0.9-1.4-1.5-1.9c-0.6-0.5-1.3-0.9-2.1-1.1c-0.8-0.2-1.5-0.3-2.3-0.3c-0.6,0-1.2,0-2.1,0
			c-0.8,0-1.6,0.1-2.4,0.3c-0.8,0.2-1.5,0.5-2,1c-0.6,0.5-0.8,1.2-0.8,2.1V523.3z"/>
		<path id="XMLID_50_" class="st0" d="M-474.3,512.2c0-1.4-0.1-2.5-0.1-3.4c0-0.9,0-1.5-0.1-2c0-0.6-0.1-1-0.1-1.2
			c5.6,0,8.4,2.7,8.4,8.1l0.1,17.6c0,3,0.1,5.5,0.4,7.5c0.3,2,0.8,3.7,1.6,4.9c0.8,1.3,1.9,2.1,3.4,2.7c1.5,0.5,3.5,0.8,6,0.8
			c1.1,0,2.2,0,3.1,0c0.9,0,1.7-0.1,2.4-0.1c0.8,0,1.5-0.1,2.1-0.2v0.4c0,0.7-0.2,1.5-0.5,2.3c-0.3,0.8-0.9,1.5-1.6,2.2
			c-0.7,0.6-1.6,1.2-2.7,1.6c-1.1,0.4-2.4,0.7-3.9,0.7c-3.7,0-6.7-0.4-9.1-1.1c-2.4-0.8-4.3-2.1-5.7-3.8c-1.4-1.8-2.4-4.2-2.9-7.2
			c-0.6-3-0.8-6.7-0.8-11V512.2z"/>
		<path id="XMLID_48_" class="st0" d="M-260.8,505.9c-2.8,7.3-5.4,14.1-7.8,20.1c-1,2.6-2,5.2-3.1,7.8c-1,2.6-2,5-2.9,7.2
			c-0.9,2.2-1.7,4.1-2.4,5.8c-0.7,1.6-1.3,2.8-1.6,3.5c-0.8,1.5-1.7,2.5-2.8,3c-1.1,0.6-2,0.9-3,1c-1.1,0.1-2.3,0-3.4-0.3
			l-19.1-48.1c1.1-0.2,2.2-0.3,3.3-0.2c1.1,0,2.2,0.2,3.1,0.6c1,0.3,1.9,0.9,2.7,1.6c0.8,0.7,1.5,1.7,2,2.9c0,0.2,0.3,0.8,0.6,1.8
			c0.4,1,0.9,2.2,1.5,3.8c0.6,1.5,1.2,3.2,1.9,5c0.7,1.9,1.4,3.7,2.1,5.6c1.7,4.5,3.6,9.5,5.8,15c2.1-5.5,4-10.5,5.7-15
			c0.7-1.9,1.4-3.8,2.1-5.6c0.7-1.8,1.3-3.5,1.9-5c0.6-1.5,1-2.8,1.4-3.8c0.4-1,0.6-1.6,0.7-1.8c0.5-1.2,1.2-2.2,2-2.9
			c0.8-0.7,1.7-1.2,2.6-1.6c1-0.3,2-0.5,3.1-0.6C-263,505.6-261.9,505.7-260.8,505.9z"/>
		<g id="XMLID_43_">
			<path id="XMLID_45_" class="st0" d="M-407.3,505.1c3,0,6,0.5,8.8,1.6c2.8,1.1,5.3,2.6,7.5,4.7c2.2,2.1,4,4.7,5.3,7.7
				c1.3,3.1,2,6.6,2,10.7c0,4.1-0.7,7.6-2,10.7c-1.3,3.1-3.1,5.7-5.3,7.8c-2.2,2.1-4.7,3.7-7.5,4.7c-2.8,1.1-5.8,1.6-8.8,1.6
				c-3,0-6-0.5-8.8-1.6c-2.8-1-5.3-2.6-7.5-4.7c-2.2-2.1-4-4.7-5.3-7.8c-1.3-3.1-2-6.7-2-10.7c0-4.1,0.7-7.6,2-10.7
				c1.3-3.1,3.1-5.7,5.3-7.7c2.2-2.1,4.7-3.6,7.5-4.7C-413.2,505.6-410.3,505.1-407.3,505.1z M-407.3,548.7c1.8,0,3.5-0.4,5.3-1.1
				c1.7-0.7,3.3-1.9,4.6-3.5c1.4-1.6,2.5-3.5,3.3-5.9c0.8-2.4,1.2-5.2,1.2-8.4c0-3.2-0.4-6-1.2-8.4c-0.8-2.4-1.9-4.3-3.3-5.8
				c-1.4-1.5-2.9-2.7-4.6-3.4c-1.7-0.7-3.5-1.1-5.3-1.1c-1.8,0-3.6,0.4-5.3,1.1c-1.7,0.7-3.3,1.9-4.6,3.4c-1.4,1.5-2.5,3.5-3.3,5.8
				c-0.8,2.4-1.2,5.2-1.2,8.4c0,3.3,0.4,6.1,1.2,8.4c0.8,2.4,1.9,4.3,3.3,5.9c1.4,1.6,2.9,2.7,4.6,3.5
				C-410.8,548.4-409.1,548.7-407.3,548.7z"/>
			<path id="XMLID_44_" class="st1" d="M-385.7,519.1c-1.3-3.1-3.1-5.7-5.3-7.7c-2.2-2.1-4.7-3.6-7.5-4.7c-2.2-0.8-4.5-1.2-6.8-1.4
				c2,2.3,3.7,5,5,7.9c1.1,0.7,2.1,1.4,3,2.4c1.4,1.5,2.5,3.5,3.3,5.8c0.8,2.4,1.2,5.2,1.2,8.4c0,3.3-0.4,6.1-1.2,8.4
				c-0.8,2.4-1.9,4.3-3.3,5.9c-1.4,1.6-2.9,2.7-4.6,3.5c-0.5,0.2-1,0.3-1.4,0.5c-1.8,2.5-3.8,4.7-6.2,6.4c0.8,0.1,1.6,0.2,2.3,0.2
				c3,0,6-0.5,8.8-1.6c2.8-1,5.3-2.6,7.5-4.7c2.2-2.1,4-4.7,5.3-7.8c1.3-3.1,2-6.7,2-10.7C-383.7,525.8-384.4,522.2-385.7,519.1z"/>
		</g>
		<g id="XMLID_38_">
			<path id="XMLID_40_" class="st0" d="M-342.3,505.2c3,0,5.9,0.5,8.8,1.6c2.8,1.1,5.3,2.6,7.5,4.7c2.2,2.1,4,4.6,5.3,7.7
				c1.3,3.1,2,6.6,2,10.7c0,4.1-0.6,7.6-2,10.7c-1.3,3.1-3.1,5.7-5.3,7.8c-2.2,2.1-4.7,3.7-7.5,4.7c-2.8,1.1-5.7,1.6-8.8,1.6
				c-3,0-6-0.5-8.8-1.6c-2.8-1.1-5.3-2.6-7.5-4.7c-2.2-2.1-4-4.7-5.3-7.8c-1.3-3.1-2-6.7-2-10.7c0-4.1,0.6-7.6,2-10.7
				c1.3-3.1,3.1-5.6,5.3-7.7c2.2-2.1,4.7-3.7,7.5-4.7C-348.2,505.7-345.3,505.2-342.3,505.2z M-342.3,548.8c1.8,0,3.5-0.4,5.3-1.1
				c1.7-0.7,3.3-1.9,4.6-3.5c1.4-1.6,2.5-3.5,3.3-5.9c0.8-2.4,1.2-5.2,1.2-8.4c0-3.2-0.4-6-1.2-8.4c-0.8-2.4-1.9-4.3-3.3-5.8
				c-1.4-1.5-2.9-2.7-4.6-3.4c-1.7-0.7-3.5-1.1-5.3-1.1c-1.8,0-3.5,0.4-5.3,1.1c-1.7,0.7-3.3,1.9-4.6,3.4c-1.4,1.5-2.5,3.5-3.3,5.8
				c-0.8,2.4-1.2,5.1-1.2,8.4c0,3.3,0.4,6.1,1.2,8.4c0.8,2.4,1.9,4.3,3.3,5.9c1.4,1.6,2.9,2.7,4.6,3.5
				C-345.8,548.4-344.1,548.8-342.3,548.8z"/>
			<path id="XMLID_39_" class="st1" d="M-320.7,519.2c-1.3-3.1-3.1-5.6-5.3-7.7c-2.2-2.1-4.7-3.7-7.5-4.7c-2.2-0.8-4.5-1.2-6.8-1.4
				c2,2.3,3.7,5,5,7.9c1.1,0.7,2.1,1.4,3,2.4c1.4,1.5,2.5,3.5,3.3,5.8c0.8,2.4,1.2,5.1,1.2,8.4c0,3.3-0.4,6.1-1.2,8.4
				c-0.8,2.4-1.9,4.3-3.3,5.9c-1.4,1.6-2.9,2.7-4.6,3.5c-0.5,0.2-1,0.3-1.4,0.5c-1.8,2.5-3.8,4.7-6.2,6.4c0.8,0.1,1.5,0.2,2.3,0.2
				c3,0,5.9-0.5,8.8-1.6c2.8-1.1,5.3-2.6,7.5-4.7c2.2-2.1,4-4.7,5.3-7.8c1.3-3.1,2-6.7,2-10.7C-318.7,525.9-319.4,522.3-320.7,519.2
				z"/>
		</g>
		<g id="XMLID_33_">
			<path id="XMLID_35_" class="st0" d="M-225.2,505.4c3,0,6,0.5,8.8,1.6c2.8,1.1,5.3,2.6,7.5,4.7c2.2,2.1,4,4.6,5.3,7.7
				c1.3,3.1,1.9,6.6,1.9,10.7c0,4.1-0.6,7.6-1.9,10.7c-1.3,3.1-3.1,5.7-5.3,7.8c-2.2,2.1-4.7,3.7-7.5,4.7c-2.8,1.1-5.7,1.6-8.8,1.6
				c-3,0-6-0.5-8.8-1.6c-2.8-1.1-5.3-2.6-7.5-4.7c-2.2-2.1-4-4.7-5.3-7.8c-1.3-3.1-2-6.7-2-10.7c0-4.1,0.7-7.6,2-10.7
				c1.3-3.1,3.1-5.6,5.3-7.7c2.2-2.1,4.7-3.6,7.5-4.7C-231.1,505.9-228.2,505.4-225.2,505.4z M-225.2,549c1.8,0,3.5-0.4,5.3-1.1
				c1.7-0.7,3.3-1.9,4.7-3.5c1.4-1.6,2.5-3.5,3.3-5.9c0.8-2.3,1.2-5.2,1.2-8.4c0-3.2-0.4-6-1.2-8.4c-0.8-2.4-1.9-4.3-3.3-5.8
				c-1.4-1.5-2.9-2.7-4.7-3.4c-1.7-0.7-3.5-1.1-5.3-1.1c-1.8,0-3.5,0.4-5.3,1.1c-1.7,0.7-3.3,1.9-4.6,3.4c-1.4,1.5-2.5,3.5-3.3,5.8
				c-0.8,2.4-1.2,5.2-1.2,8.4c0,3.3,0.4,6.1,1.2,8.4c0.8,2.4,1.9,4.3,3.3,5.9c1.4,1.6,2.9,2.7,4.6,3.5
				C-228.7,548.6-227,549-225.2,549z"/>
			<path id="XMLID_34_" class="st1" d="M-203.6,519.4c-1.3-3.1-3.1-5.6-5.3-7.7c-2.2-2.1-4.7-3.6-7.5-4.7c-2.2-0.8-4.5-1.2-6.8-1.4
				c2,2.3,3.7,5,5,7.9c1.1,0.7,2.1,1.4,3,2.4c1.4,1.5,2.5,3.5,3.3,5.8c0.8,2.4,1.2,5.2,1.2,8.4c0,3.3-0.4,6.1-1.2,8.4
				c-0.8,2.4-1.9,4.3-3.3,5.9c-1.4,1.6-2.9,2.7-4.7,3.5c-0.5,0.2-1,0.3-1.4,0.5c-1.8,2.5-3.8,4.6-6.2,6.4c0.8,0.1,1.5,0.2,2.3,0.2
				c3,0,6-0.5,8.8-1.6c2.8-1.1,5.3-2.6,7.5-4.7c2.2-2.1,4-4.7,5.3-7.8c1.3-3.1,1.9-6.7,1.9-10.7C-201.6,526-202.3,522.5-203.6,519.4
				z"/>
		</g>
	</g>
	<g id="XMLID_1_">
		<g id="XMLID_15_">
			<defs>
				<path id="XMLID_16_" d="M-448.6,395.2c0-46.7,31.9-110.4,78.6-110.4c46.7,0,78.6,63.7,78.6,110.4c0,46.7-31.9,85.7-78.6,85.7
					C-416.7,480.8-448.6,441.9-448.6,395.2z"/>
			</defs>
			<clipPath id="XMLID_6_">
				<use xlink:href="#XMLID_16_"  style="overflow:visible;"/>
			</clipPath>
			<g id="XMLID_19_" class="st2">
				<path id="XMLID_31_" class="st0" d="M-448.6,395.2c0-46.8,32-110.6,78.8-110.6c46.8,0,78.8,63.8,78.8,110.6
					c0,46.8-32,84.8-78.8,84.8C-416.7,480-448.6,442-448.6,395.2z"/>
				<g id="XMLID_25_">
					<path id="XMLID_30_" class="st0" d="M-450,395.2c0-46.7,31.9-110.4,78.6-110.4c46.7,0,78.6,63.7,78.6,110.4
						c0,46.7-31.9,84.6-78.6,84.6C-418.1,479.8-450,441.9-450,395.2z"/>
					<path id="XMLID_29_" class="st3" d="M-367.3,284.9c27.7,20.6,45,64.1,45,98.5c0,46.7-21.5,90.7-75.4,87.9
						c-4-0.2-6.4,0.2-10.1-0.3c11.2,6.6,23.2,8.8,37.9,8.8c17.5,0,32.9-5.3,45.4-14.4c20.7-15.2,33.2-41,33.2-70.2
						C-291.2,349.3-322,287.2-367.3,284.9z"/>
				</g>
				<g id="XMLID_20_">
					<defs>
						<path id="XMLID_21_" d="M-344.7,359.7c0,45.9-37.2,83.2-83.2,83.2c-45.9,0-83.2-37.2-83.2-83.2c0-45.9,37.2-83.2,83.2-83.2
							C-381.9,276.6-344.7,313.8-344.7,359.7z"/>
					</defs>
					<use xlink:href="#XMLID_21_"  style="overflow:visible;fill:#3A78BC;"/>
					<clipPath id="XMLID_7_">
						<use xlink:href="#XMLID_21_"  style="overflow:visible;"/>
					</clipPath>
					<g id="XMLID_22_" class="st4">
						<path id="XMLID_24_" class="st5" d="M-450,395.7c0-46.7,31.9-110.4,78.6-110.4c46.7,0,78.6,63.7,78.6,110.4
							c0,46.7-31.9,84.6-78.6,84.6C-418.1,480.3-450,442.4-450,395.7z"/>
						<path id="XMLID_23_" class="st5" d="M-367.3,285.4c27.7,20.6,45,64.1,45,98.5c0,46.7-21.5,90.7-75.4,87.9
							c-4-0.2-7.8-0.5-11.5-1c11.2,6.6,24.6,9.5,39.2,9.5c17.5,0,32.9-5.3,45.4-14.4c20.8-15.2,33.2-40.9,33.2-70.1
							C-291.3,349.8-322,287.7-367.3,285.4z"/>
					</g>
				</g>
			</g>
		</g>
		<g id="XMLID_3_">
			<defs>
				<path id="XMLID_4_" d="M-353.7,377.4c12.8-9.4,19.2-22.7,19.2-39.9c0-14.6-4.6-26.4-13.7-35.5c-9-9-20.1-13.5-33.3-13.5
					l-8.3-0.1c-10.2,3.4-17.8,9.7-25.9,18c19.1-3.4,43.3-1.4,52.7,9.3c4.8,5.5,7.7,12.5,7.7,21.9c0,9.3-2.6,16.5-7.7,21.7
					c-5.3,5.3-11.4,7.9-18.5,7.9l-64.7,0.1c-1.5,6.5-2.5,13-3,19.3l60.4,0c12.1,0,22.5,4.3,31.2,13c8.8,8.9,13.3,18.7,13.3,29.3
					c0,10.6-3,22-13.3,29.3c-17.2,12.3-34,14.6-49.3,13.5c9.7,6.6,45.6,17.2,64.1-0.7c12.9-12.5,19.2-26.3,19.2-42.1
					C-323.7,407.3-333.6,390.2-353.7,377.4z"/>
			</defs>
			<use xlink:href="#XMLID_4_"  style="overflow:visible;fill:#FFFFFF;"/>
			<clipPath id="XMLID_8_">
				<use xlink:href="#XMLID_4_"  style="overflow:visible;"/>
			</clipPath>
			<g id="XMLID_5_" class="st6">
				<path id="XMLID_13_" class="st7" d="M-449.4,396.4c0-46.7,31.9-110.4,78.6-110.4c46.7,0,78.6,63.7,78.6,110.4
					c0,46.7-31.9,84.6-78.6,84.6C-417.5,481-449.4,443.1-449.4,396.4z"/>
				<path id="XMLID_12_" class="st7" d="M-366.7,286.1c27.7,20.6,45,64.1,45,98.5c0,46.7-21.5,90.7-75.4,87.9c-4-0.2-7.8-0.5-11.5-1
					c11.2,6.6,24.6,9.5,39.2,9.5c17.5,0,32.9-5.3,45.4-14.4c20.7-15.2,33.2-40.9,33.2-70.2C-290.6,350.5-321.4,288.4-366.7,286.1z"
					/>
			</g>
		</g>
	</g>
</g>
</svg>
