<?xml version="1.0" encoding="utf-8"?>
<!-- Generator: Adobe Illustrator 19.0.0, SVG Export Plug-In . SVG Version: 6.00 Build 0)  -->
<svg version="1.1" xmlns="http://www.w3.org/2000/svg" xmlns:xlink="http://www.w3.org/1999/xlink" x="0px" y="0px"
	 viewBox="0 0 29 29" style="enable-background:new 0 0 29 29;" xml:space="preserve">
<style type="text/css">
	.st0{fill:#37579A;}
	.st1{fill:#0AB8E3;}
	.st2{fill:#1576B9;}
	.st3{fill:#DF4A32;}
	.st4{fill:#B37858;}
	.st5{fill:#FFFFFF;}
	.st6{font-family:'Material-Design-Iconic-Font';}
	.st7{font-size:16px;}
	.st8{enable-background:new    ;}
	.st9{fill-rule:evenodd;clip-rule:evenodd;fill:#FFFFFF;}
	.st10{fill:#374B61;}
	.st11{fill:#97AEC6;}
	.st12{fill-rule:evenodd;clip-rule:evenodd;fill:#3379BD;}
	.st13{fill:#648B9D;}
</style>
<g id="Background_xA0_Image_1_">
	
		<image style="overflow:visible;" width="1200" height="998" id="Background_xA0_Image" xlink:href="195E1AEA29559EF3.jpg"  transform="matrix(1 0 0 1 -515.0527 -1007.355)">
	</image>
	<circle class="st0" cx="14.5" cy="14.5" r="14.5"/>
	<circle class="st1" cx="45.9" cy="14.9" r="14.5"/>
	<circle class="st2" cx="77.1" cy="15.4" r="14.5"/>
	<circle class="st3" cx="113.2" cy="14.9" r="14.5"/>
	<circle class="st4" cx="146.2" cy="15.4" r="14.5"/>
	<g>
		<text transform="matrix(1 0 0 1 11 20.54)" class="st5 st6 st7"></text>
	</g>
	<text transform="matrix(1 0 0 1 38.9054 20.9878)" class="st5 st6 st7"></text>
	<text transform="matrix(1 0 0 1 71.7807 20.2329)" class="st5 st6" style="font-size:13.9977px;"></text>
	<text transform="matrix(1 0 0 1 106.2397 20.9881)" class="st5 st6 st7"></text>
	<g>
		<text transform="matrix(1 0 0 1 139.9892 20.7563)" class="st5 st6" style="font-size:14.2838px;"></text>
	</g>
</g>
<g id="Rectangle_1_1_" class="st8">
	<g id="Rectangle_1">
		<g>
			<rect x="-314.1" y="-882.4" class="st9" width="797" height="710"/>
		</g>
	</g>
</g>
<g id="Layer_2_xA0_Image_1_">
	
		<image style="overflow:visible;" width="135" height="111" id="Layer_2_xA0_Image" xlink:href="195E1AEA29559EF1.png"  transform="matrix(1 0 0 1 16.9473 -817.355)">
	</image>
</g>
<g id="Get_ahead_with_a_single_click.">
	<text transform="matrix(1 0 0 1 -158.9512 -364.4175)" class="st10" style="font-family:'HelveticaNeue-Bold'; font-size:35px;">Get ahead with a single click.</text>
</g>
<g id="Confirm_your_registration_and_kick-start_your_career_x21__1_">
	
		<text id="Confirm_your_registration_and_kick-start_your_career_x21_" transform="matrix(1 0 0 1 -122.4746 -330.5972)" class="st11" style="font-family:'HelveticaNeue'; font-size:18px;">Confirm your registration and kick-start your career!</text>
</g>
<g id="Rounded_Rectangle_2_copy_11_1_" class="st8">
	<g id="Rounded_Rectangle_2_copy_11">
		<g>
			<rect x="-40.1" y="-281.4" class="st12" width="250" height="50"/>
		</g>
	</g>
</g>
<g id="Confirm_e-mail_address">
	<text transform="matrix(1 0 0 1 1.3027 -250.0151)" class="st5 st7" style="font-family:'Helvetica';">Confirm e-mail address</text>
</g>
<g id="Layer_3_xA0_Image_1_">
	
		<image style="overflow:visible;" width="372" height="223" id="Layer_3_xA0_Image" xlink:href="195E1AEA29559EF7.png"  transform="matrix(1 0 0 1 -101.0527 -653.355)">
	</image>
</g>
<g id="Rectangle_25_xA0_Image_1_">
	
		<image style="overflow:visible;" width="284" height="178" id="Rectangle_25_xA0_Image" xlink:href="195E1AEA29559EF0.png"  transform="matrix(1 0 0 1 -57.0527 -641.355)">
	</image>
</g>
<g id="Copyright__x40__BLOOVO_Middle_East_FZ_LLC._All_Rights_Reserved._1_">
	
		<text id="Copyright__x40__BLOOVO_Middle_East_FZ_LLC._All_Rights_Reserved." transform="matrix(1 0 0 1 -115.4121 -80.769)" class="st13" style="font-family:'HelveticaNeue'; font-size:14px;">Copyright @ BLOOVO Middle East FZ LLC. All Rights Reserved. </text>
</g>
<g id="Social_Media_xA0_Image_1_">
	
		<image style="overflow:visible;" width="161" height="29" id="Social_Media_xA0_Image" xlink:href="195E1AEA29559EF3.png"  transform="matrix(1 0 0 1 3.9473 -140.355)">
	</image>
</g>
</svg>
