<?xml version="1.0" encoding="utf-8"?>
<!-- Generator: Adobe Illustrator 19.0.0, SVG Export Plug-In . SVG Version: 6.00 Build 0)  -->
<svg version="1.1" xmlns="http://www.w3.org/2000/svg" xmlns:xlink="http://www.w3.org/1999/xlink" x="0px" y="0px"
	 viewBox="0 0 29 29" style="enable-background:new 0 0 29 29;" xml:space="preserve">
<style type="text/css">
	.st0{fill:#37579A;}
	.st1{fill:#0AB8E3;}
	.st2{fill:#1576B9;}
	.st3{fill:#DF4A32;}
	.st4{fill:#B37858;}
	.st5{fill:#FFFFFF;}
	.st6{font-family:'Material-Design-Iconic-Font';}
	.st7{font-size:14.5698px;}
	.st8{enable-background:new    ;}
	.st9{fill-rule:evenodd;clip-rule:evenodd;fill:#FFFFFF;}
	.st10{fill:#374B61;}
	.st11{fill:#97AEC6;}
	.st12{fill-rule:evenodd;clip-rule:evenodd;fill:#3379BD;}
	.st13{fill:#648B9D;}
</style>
<g id="Background_xA0_Image_1_">
	
		<image style="overflow:visible;" width="1200" height="998" id="Background_xA0_Image" xlink:href="7EFB255E7E4CF3B.jpg"  transform="matrix(1 0 0 1 -577.6168 -1008.2192)">
	</image>
	<circle class="st0" cx="-48.1" cy="13.6" r="14.5"/>
	<circle class="st1" cx="-16.7" cy="14.1" r="14.5"/>
	<circle class="st2" cx="14.5" cy="14.5" r="14.5"/>
	<circle class="st3" cx="50.7" cy="14.1" r="14.5"/>
	<circle class="st4" cx="83.7" cy="14.5" r="14.5"/>
	<g>
		<text transform="matrix(1 0 0 1 -51.5641 19.6758)" class="st5 st6" style="font-size:16px;"></text>
	</g>
	<text transform="matrix(1 0 0 1 -23.6587 20.1235)" class="st5 st6" style="font-size:16px;"></text>
	<text transform="matrix(1 0 0 1 8.9662 19.5835)" class="st5 st6 st7"></text>
	<text transform="matrix(1 0 0 1 43.6756 20.1239)" class="st5 st6" style="font-size:16px;"></text>
	<text transform="matrix(1 0 0 1 77.6742 19.6763)" class="st5 st6" style="font-size:13.7117px;"></text>
</g>
<g id="Rectangle_1_1_" class="st8">
	<g id="Rectangle_1">
		<g>
			<rect x="-376.6" y="-883.2" class="st9" width="797" height="710"/>
		</g>
	</g>
</g>
<g id="Layer_2_xA0_Image_1_">
	
		<image style="overflow:visible;" width="135" height="111" id="Layer_2_xA0_Image" xlink:href="7EFB255E7E4CF39.png"  transform="matrix(1 0 0 1 -45.6168 -818.2192)">
	</image>
</g>
<g id="Get_ahead_with_a_single_click.">
	<text transform="matrix(1 0 0 1 -221.5153 -365.2817)" class="st10" style="font-family:'HelveticaNeue-Bold'; font-size:35px;">Get ahead with a single click.</text>
</g>
<g id="Confirm_your_registration_and_kick-start_your_career_x21__1_">
	
		<text id="Confirm_your_registration_and_kick-start_your_career_x21_" transform="matrix(1 0 0 1 -185.0387 -331.4614)" class="st11" style="font-family:'HelveticaNeue'; font-size:18px;">Confirm your registration and kick-start your career!</text>
</g>
<g id="Rounded_Rectangle_2_copy_11_1_" class="st8">
	<g id="Rounded_Rectangle_2_copy_11">
		<g>
			<rect x="-102.6" y="-282.2" class="st12" width="250" height="50"/>
		</g>
	</g>
</g>
<g id="Confirm_e-mail_address">
	<text transform="matrix(1 0 0 1 -61.2614 -250.8794)" class="st5" style="font-family:'Helvetica'; font-size:16px;">Confirm e-mail address</text>
</g>
<g id="Layer_3_xA0_Image_1_">
	
		<image style="overflow:visible;" width="372" height="223" id="Layer_3_xA0_Image" xlink:href="7EFB255E7E4CF3F.png"  transform="matrix(1 0 0 1 -163.6168 -654.2192)">
	</image>
</g>
<g id="Rectangle_25_xA0_Image_1_">
	
		<image style="overflow:visible;" width="284" height="178" id="Rectangle_25_xA0_Image" xlink:href="7EFB255E7E4CF38.png"  transform="matrix(1 0 0 1 -119.6168 -642.2192)">
	</image>
</g>
<g id="Copyright__x40__BLOOVO_Middle_East_FZ_LLC._All_Rights_Reserved._1_">
	
		<text id="Copyright__x40__BLOOVO_Middle_East_FZ_LLC._All_Rights_Reserved." transform="matrix(1 0 0 1 -177.9762 -81.6333)" class="st13" style="font-family:'HelveticaNeue'; font-size:14px;">Copyright @ BLOOVO Middle East FZ LLC. All Rights Reserved. </text>
</g>
<g id="Social_Media_xA0_Image_1_">
	
		<image style="overflow:visible;" width="161" height="29" id="Social_Media_xA0_Image" xlink:href="7EFB255E7E4CF3B.png"  transform="matrix(1 0 0 1 -58.6168 -141.2192)">
	</image>
</g>
</svg>
