<?xml version="1.0" encoding="utf-8"?>
<!-- Generator: Adobe Illustrator 19.0.0, SVG Export Plug-In . SVG Version: 6.00 Build 0)  -->
<svg version="1.1" xmlns="http://www.w3.org/2000/svg" xmlns:xlink="http://www.w3.org/1999/xlink" x="0px" y="0px"
	 viewBox="0 0 29 29" style="enable-background:new 0 0 29 29;" xml:space="preserve">
<style type="text/css">
	.st0{fill:#37579A;}
	.st1{fill:#0AB8E3;}
	.st2{fill:#1576B9;}
	.st3{fill:#DF4A32;}
	.st4{fill:#B37858;}
	.st5{fill:#FFFFFF;}
	.st6{font-family:'Material-Design-Iconic-Font';}
	.st7{font-size:13.7117px;}
	.st8{enable-background:new    ;}
	.st9{fill-rule:evenodd;clip-rule:evenodd;fill:#FFFFFF;}
	.st10{fill:#374B61;}
	.st11{fill:#97AEC6;}
	.st12{fill-rule:evenodd;clip-rule:evenodd;fill:#3379BD;}
	.st13{fill:#648B9D;}
</style>
<g id="Background_xA0_Image_1_">
	
		<image style="overflow:visible;" width="1200" height="998" id="Background_xA0_Image" xlink:href="CE3E2598A60E176.jpg"  transform="matrix(1 0 0 1 -646.7834 -1008.2197)">
	</image>
	<circle class="st0" cx="-117.2" cy="13.6" r="14.5"/>
	<circle class="st1" cx="-85.8" cy="14.1" r="14.5"/>
	<circle class="st2" cx="-54.7" cy="14.5" r="14.5"/>
	<circle class="st3" cx="-18.5" cy="14.1" r="14.5"/>
	<circle class="st4" cx="14.5" cy="14.5" r="14.5"/>
	<g>
		<text transform="matrix(1 0 0 1 -120.7307 19.6753)" class="st5 st6" style="font-size:16px;"></text>
	</g>
	<text transform="matrix(1 0 0 1 -92.8253 20.123)" class="st5 st6" style="font-size:16px;"></text>
	<text transform="matrix(1 0 0 1 -60.2005 19.583)" class="st5 st6" style="font-size:14.5698px;"></text>
	<text transform="matrix(1 0 0 1 -25.491 20.1234)" class="st5 st6" style="font-size:16px;"></text>
	<text transform="matrix(1 0 0 1 8.5076 19.6758)" class="st5 st6 st7"></text>
</g>
<g id="Rectangle_1_1_" class="st8">
	<g id="Rectangle_1">
		<g>
			<rect x="-445.8" y="-883.2" class="st9" width="797" height="710"/>
		</g>
	</g>
</g>
<g id="Layer_2_xA0_Image_1_">
	
		<image style="overflow:visible;" width="135" height="111" id="Layer_2_xA0_Image" xlink:href="CE3E2598A60E17A.png"  transform="matrix(1 0 0 1 -114.7834 -818.2197)">
	</image>
</g>
<g id="Get_ahead_with_a_single_click.">
	<text transform="matrix(1 0 0 1 -290.6819 -365.2822)" class="st10" style="font-family:'HelveticaNeue-Bold'; font-size:35px;">Get ahead with a single click.</text>
</g>
<g id="Confirm_your_registration_and_kick-start_your_career_x21__1_">
	
		<text id="Confirm_your_registration_and_kick-start_your_career_x21_" transform="matrix(1 0 0 1 -254.2053 -331.4619)" class="st11" style="font-family:'HelveticaNeue'; font-size:18px;">Confirm your registration and kick-start your career!</text>
</g>
<g id="Rounded_Rectangle_2_copy_11_1_" class="st8">
	<g id="Rounded_Rectangle_2_copy_11">
		<g>
			<rect x="-171.8" y="-282.2" class="st12" width="250" height="50"/>
		</g>
	</g>
</g>
<g id="Confirm_e-mail_address">
	<text transform="matrix(1 0 0 1 -130.428 -250.8799)" class="st5" style="font-family:'Helvetica'; font-size:16px;">Confirm e-mail address</text>
</g>
<g id="Layer_3_xA0_Image_1_">
	
		<image style="overflow:visible;" width="372" height="223" id="Layer_3_xA0_Image" xlink:href="CE3E2598A60E17D.png"  transform="matrix(1 0 0 1 -232.7834 -654.2197)">
	</image>
</g>
<g id="Rectangle_25_xA0_Image_1_">
	
		<image style="overflow:visible;" width="284" height="178" id="Rectangle_25_xA0_Image" xlink:href="CE3E2598A60E17E.png"  transform="matrix(1 0 0 1 -188.7834 -642.2197)">
	</image>
</g>
<g id="Copyright__x40__BLOOVO_Middle_East_FZ_LLC._All_Rights_Reserved._1_">
	
		<text id="Copyright__x40__BLOOVO_Middle_East_FZ_LLC._All_Rights_Reserved." transform="matrix(1 0 0 1 -247.1428 -81.6338)" class="st13" style="font-family:'HelveticaNeue'; font-size:14px;">Copyright @ BLOOVO Middle East FZ LLC. All Rights Reserved. </text>
</g>
<g id="Social_Media_xA0_Image_1_">
	
		<image style="overflow:visible;" width="161" height="29" id="Social_Media_xA0_Image" xlink:href="CE3E2598A60E17C.png"  transform="matrix(1 0 0 1 -127.7834 -141.2197)">
	</image>
</g>
</svg>
