<?xml version="1.0" encoding="utf-8"?>
<!-- Generator: Adobe Illustrator 19.2.1, SVG Export Plug-In . SVG Version: 6.00 Build 0)  -->
<svg version="1.1" id="Layer_1" xmlns="http://www.w3.org/2000/svg" xmlns:xlink="http://www.w3.org/1999/xlink" x="0px" y="0px"
	 viewBox="0 0 174.5 32.9" style="enable-background:new 0 0 174.5 32.9;" xml:space="preserve">
<style type="text/css">
	.st0{clip-path:url(#XMLID_4_);}
	.st1{fill:#2F6BB3;}
	.st2{fill:#0F5FA5;}
	.st3{clip-path:url(#XMLID_29_);}
	.st4{fill:#3A78BC;}
	.st5{fill:#83A4B6;}
	.st6{clip-path:url(#XMLID_30_);}
	.st7{fill:#FFFFFF;}
</style>
<g id="XMLID_1_">
	<g id="XMLID_34_">
		<g id="XMLID_9_">
			<g id="XMLID_24_">
				<defs>
					<path id="XMLID_124_" d="M0.1,18.2c0-7.4,5.1-17.5,12.5-17.5c7.4,0,12.5,10.1,12.5,17.5c0,7.4-5.1,13.4-12.5,13.4
						C5.1,31.7,0.1,25.7,0.1,18.2z"/>
				</defs>
				<clipPath id="XMLID_4_">
					<use xlink:href="#XMLID_124_"  style="overflow:visible;"/>
				</clipPath>
				<g id="XMLID_25_" class="st0">
					<path id="XMLID_39_" class="st1" d="M0.1,18.3c0-7.4,5.1-17.6,12.5-17.6c7.4,0,12.5,10.1,12.5,17.6S20,31.7,12.6,31.7
						C5.2,31.7,0.1,25.7,0.1,18.3z"/>
					<g id="XMLID_36_">
						<path id="XMLID_38_" class="st1" d="M-0.1,18.2c0-7.4,5.1-17.5,12.5-17.5c7.4,0,12.5,10.1,12.5,17.5c0,7.4-5.1,13.4-12.5,13.4
							C4.9,31.7-0.1,25.7-0.1,18.2z"/>
						<path id="XMLID_37_" class="st2" d="M13,0.7c4.4,3.3,7.1,10.2,7.1,15.6c0,7.4-3.4,14.4-12,14c-0.6,0-1.2-0.1-1.8-0.2
							c1.8,1,3.9,1.5,6.2,1.5c2.8,0,5.2-0.8,7.2-2.3c3.3-2.4,5.3-6.5,5.3-11.1C25.1,11,20.2,1.1,13,0.7z"/>
					</g>
					<g id="XMLID_26_">
						<defs>
							<circle id="XMLID_27_" cx="3.4" cy="12.6" r="13.2"/>
						</defs>
						<use xlink:href="#XMLID_27_"  style="overflow:visible;fill:#3A78BC;"/>
						<clipPath id="XMLID_29_">
							<use xlink:href="#XMLID_27_"  style="overflow:visible;"/>
						</clipPath>
						<g id="XMLID_28_" class="st3">
							<path id="XMLID_35_" class="st4" d="M-0.2,18.3c0-7.4,5.1-17.5,12.5-17.5c7.4,0,12.5,10.1,12.5,17.5
								c0,7.4-5.1,13.4-12.5,13.4C4.9,31.8-0.2,25.7-0.2,18.3z"/>
							<path id="XMLID_33_" class="st4" d="M13,0.8c4.4,3.3,7.2,10.2,7.2,15.6c0,7.4-3.4,14.4-12,14c-0.6,0-1.2-0.1-1.8-0.2
								c1.8,1,3.9,1.5,6.2,1.5c2.8,0,5.2-0.8,7.2-2.3c3.3-2.4,5.3-6.5,5.3-11.1C25.1,11,20.2,1.2,13,0.8z"/>
						</g>
					</g>
				</g>
			</g>
			<g id="XMLID_10_">
				<g id="XMLID_11_">
					<path id="XMLID_23_" class="st1" d="M41.8,27.3c-1.3,0-2.4-0.2-3.4-0.5c-1-0.4-1.9-0.9-2.6-1.7c-0.7-0.8-1.3-1.8-1.7-3
						c-0.4-1.2-0.6-2.7-0.6-4.4v-6.1c0-1.3,0.2-2.4,0.6-3.1c0.4-0.7,1-1.2,1.8-1.6c0.5-0.2,1-0.3,1.7-0.4C38,6.3,38.5,6.3,39,6.3
						c0.5,0,0.9,0,1.3,0c1,0,1.9,0.1,2.6,0.4c0.7,0.3,1.4,0.7,1.9,1.1c0.5,0.5,0.9,1,1.1,1.6c0.2,0.6,0.4,1.2,0.4,1.9
						c0,0.6-0.1,1.2-0.4,1.7c-0.2,0.5-0.6,1-1,1.5c0.6,0.2,1.1,0.5,1.6,0.9c0.5,0.4,0.9,0.8,1.3,1.3c0.4,0.5,0.7,1.1,0.9,1.7
						c0.2,0.6,0.3,1.4,0.3,2.1c0,0.9-0.2,1.7-0.5,2.5c-0.3,0.8-0.8,1.5-1.5,2.1c-0.6,0.6-1.4,1.1-2.3,1.5
						C43.9,27.1,42.9,27.3,41.8,27.3z M41.8,24.4c0.6,0,1.2-0.1,1.6-0.3c0.4-0.2,0.8-0.5,1.1-0.8c0.3-0.3,0.5-0.7,0.6-1.2
						c0.1-0.5,0.2-1,0.2-1.5c0-0.9-0.1-1.6-0.4-2.1c-0.3-0.6-0.7-1-1.1-1.3c-0.5-0.3-1-0.5-1.5-0.6c-0.6-0.1-1.1-0.2-1.6-0.1
						c-0.5,0-0.9,0-1.3,0c-0.4,0-0.8,0-1.1,0c-0.4,0-0.7,0-1.1,0v1.3c0,1.3,0,2.4,0.2,3.3c0.2,0.9,0.5,1.6,0.9,2.1
						c0.4,0.5,0.9,0.9,1.5,1.1C40.4,24.3,41.1,24.4,41.8,24.4z M37.1,14h2.5c1.1,0,1.9-0.2,2.5-0.6c0.6-0.4,0.9-1.1,0.9-2
						c0-0.5-0.1-0.9-0.2-1.2c-0.2-0.3-0.4-0.6-0.6-0.8C41.8,9.2,41.6,9,41.2,9c-0.3-0.1-0.7-0.1-1-0.1c-0.2,0-0.5,0-0.9,0
						c-0.4,0-0.7,0-1,0.1C38,9,37.7,9.2,37.5,9.4c-0.2,0.2-0.4,0.5-0.4,0.9V14z"/>
					<path id="XMLID_22_" class="st1" d="M57.2,9.2c0-0.6,0-1.1,0-1.4c0-0.4,0-0.7,0-0.9c0-0.2,0-0.4-0.1-0.5c2.4,0,3.6,1.1,3.6,3.4
						l0.1,7.5c0,1.3,0.1,2.3,0.2,3.2c0.1,0.9,0.3,1.6,0.7,2.1c0.3,0.5,0.8,0.9,1.5,1.1c0.6,0.2,1.5,0.3,2.5,0.3c0.5,0,0.9,0,1.3,0
						c0.4,0,0.7,0,1,0c0.3,0,0.6,0,0.9-0.1v0.2c0,0.3-0.1,0.6-0.2,1c-0.1,0.3-0.4,0.7-0.7,0.9c-0.3,0.3-0.7,0.5-1.1,0.7
						c-0.5,0.2-1,0.3-1.7,0.3c-1.6,0-2.9-0.2-3.9-0.5c-1-0.3-1.8-0.9-2.4-1.6c-0.6-0.8-1-1.8-1.2-3c-0.2-1.3-0.4-2.8-0.4-4.7V9.2z"
						/>
					<path id="XMLID_21_" class="st1" d="M148.2,6.6c-1.2,3.1-2.3,6-3.3,8.5c-0.4,1.1-0.9,2.2-1.3,3.3c-0.4,1.1-0.8,2.1-1.2,3.1
						c-0.4,0.9-0.7,1.8-1,2.4c-0.3,0.7-0.5,1.2-0.7,1.5c-0.3,0.6-0.7,1.1-1.2,1.3c-0.4,0.2-0.9,0.4-1.3,0.4c-0.5,0.1-1,0-1.4-0.1
						l-8.1-20.4c0.5-0.1,0.9-0.1,1.4-0.1c0.5,0,0.9,0.1,1.3,0.2c0.4,0.1,0.8,0.4,1.1,0.7c0.3,0.3,0.6,0.7,0.8,1.2
						c0,0.1,0.1,0.3,0.3,0.7c0.2,0.4,0.4,1,0.6,1.6c0.2,0.6,0.5,1.3,0.8,2.1c0.3,0.8,0.6,1.6,0.9,2.4c0.7,1.9,1.5,4,2.5,6.4
						c0.9-2.4,1.7-4.5,2.4-6.4c0.3-0.8,0.6-1.6,0.9-2.4c0.3-0.8,0.6-1.5,0.8-2.1c0.2-0.6,0.4-1.2,0.6-1.6c0.2-0.4,0.3-0.7,0.3-0.7
						c0.2-0.5,0.5-0.9,0.8-1.2c0.3-0.3,0.7-0.5,1.1-0.7c0.4-0.1,0.9-0.2,1.3-0.2C147.2,6.5,147.7,6.5,148.2,6.6z"/>
					<g id="XMLID_18_">
						<path id="XMLID_20_" class="st1" d="M85.8,6.3c1.3,0,2.5,0.2,3.7,0.7c1.2,0.5,2.3,1.1,3.2,2c0.9,0.9,1.7,2,2.2,3.3
							c0.6,1.3,0.8,2.8,0.8,4.5c0,1.7-0.3,3.2-0.8,4.5c-0.6,1.3-1.3,2.4-2.2,3.3c-0.9,0.9-2,1.6-3.2,2c-1.2,0.4-2.5,0.7-3.7,0.7
							c-1.3,0-2.5-0.2-3.7-0.7c-1.2-0.4-2.3-1.1-3.2-2c-0.9-0.9-1.7-2-2.2-3.3c-0.6-1.3-0.8-2.8-0.8-4.5c0-1.7,0.3-3.2,0.8-4.5
							c0.6-1.3,1.3-2.4,2.2-3.3c0.9-0.9,2-1.5,3.2-2C83.2,6.5,84.5,6.3,85.8,6.3z M85.8,24.7c0.8,0,1.5-0.2,2.2-0.5
							c0.7-0.3,1.4-0.8,2-1.5c0.6-0.7,1.1-1.5,1.4-2.5c0.4-1,0.5-2.2,0.5-3.6c0-1.4-0.2-2.6-0.5-3.5c-0.4-1-0.8-1.8-1.4-2.5
							c-0.6-0.6-1.2-1.1-2-1.4c-0.7-0.3-1.5-0.5-2.2-0.5c-0.8,0-1.5,0.2-2.2,0.5c-0.7,0.3-1.4,0.8-2,1.4c-0.6,0.6-1.1,1.5-1.4,2.5
							c-0.4,1-0.5,2.2-0.5,3.5c0,1.4,0.2,2.6,0.5,3.6c0.4,1,0.8,1.8,1.4,2.5c0.6,0.7,1.2,1.2,2,1.5C84.2,24.6,85,24.7,85.8,24.7z"/>
						<path id="XMLID_19_" class="st5" d="M95,12.2c-0.6-1.3-1.3-2.4-2.2-3.3c-0.9-0.9-2-1.5-3.2-2c-0.9-0.4-1.9-0.5-2.9-0.6
							c0.8,1,1.6,2.1,2.1,3.4c0.4,0.3,0.9,0.6,1.3,1c0.6,0.6,1.1,1.5,1.4,2.5c0.4,1,0.5,2.2,0.5,3.5c0,1.4-0.2,2.6-0.5,3.6
							c-0.4,1-0.8,1.8-1.4,2.5c-0.6,0.7-1.2,1.2-2,1.5c-0.2,0.1-0.4,0.1-0.6,0.2c-0.7,1.1-1.6,2-2.6,2.7c0.3,0,0.7,0.1,1,0.1
							c1.3,0,2.5-0.2,3.7-0.7c1.2-0.4,2.3-1.1,3.2-2c0.9-0.9,1.7-2,2.2-3.3c0.6-1.3,0.8-2.8,0.8-4.5C95.8,15,95.5,13.5,95,12.2z"/>
					</g>
					<g id="XMLID_15_">
						<path id="XMLID_17_" class="st1" d="M113.5,6.3c1.3,0,2.5,0.2,3.7,0.7c1.2,0.4,2.3,1.1,3.2,2c0.9,0.9,1.7,2,2.2,3.3
							c0.6,1.3,0.8,2.8,0.8,4.5c0,1.7-0.3,3.2-0.8,4.6c-0.6,1.3-1.3,2.4-2.2,3.3c-0.9,0.9-2,1.6-3.2,2c-1.2,0.4-2.5,0.7-3.7,0.7
							c-1.3,0-2.5-0.2-3.7-0.7c-1.2-0.5-2.3-1.1-3.2-2c-0.9-0.9-1.7-2-2.2-3.3c-0.6-1.3-0.8-2.8-0.8-4.6c0-1.7,0.3-3.2,0.8-4.5
							c0.6-1.3,1.3-2.4,2.2-3.3c0.9-0.9,2-1.5,3.2-2C110.9,6.5,112.2,6.3,113.5,6.3z M113.5,24.8c0.8,0,1.5-0.2,2.2-0.5
							c0.7-0.3,1.4-0.8,2-1.5c0.6-0.7,1.1-1.5,1.4-2.5c0.4-1,0.5-2.2,0.5-3.6c0-1.4-0.2-2.6-0.5-3.5c-0.3-1-0.8-1.8-1.4-2.5
							c-0.6-0.6-1.2-1.1-2-1.4c-0.7-0.3-1.5-0.5-2.2-0.5c-0.8,0-1.5,0.2-2.2,0.5c-0.7,0.3-1.4,0.8-2,1.4c-0.6,0.6-1.1,1.5-1.4,2.5
							c-0.3,1-0.5,2.2-0.5,3.5c0,1.4,0.2,2.6,0.5,3.6c0.4,1,0.8,1.8,1.4,2.5c0.6,0.7,1.2,1.2,2,1.5C112,24.6,112.7,24.8,113.5,24.8z
							"/>
						<path id="XMLID_16_" class="st5" d="M122.7,12.2c-0.6-1.3-1.3-2.4-2.2-3.3c-0.9-0.9-2-1.5-3.2-2c-0.9-0.4-1.9-0.5-2.9-0.6
							c0.8,1,1.6,2.1,2.1,3.4c0.4,0.3,0.9,0.6,1.3,1c0.6,0.6,1.1,1.5,1.4,2.5c0.4,1,0.5,2.2,0.5,3.5c0,1.4-0.2,2.6-0.5,3.6
							c-0.3,1-0.8,1.8-1.4,2.5c-0.6,0.7-1.2,1.2-2,1.5c-0.2,0.1-0.4,0.1-0.6,0.2c-0.8,1.1-1.6,2-2.6,2.7c0.3,0,0.7,0.1,1,0.1
							c1.3,0,2.5-0.2,3.7-0.7c1.2-0.5,2.3-1.1,3.2-2c0.9-0.9,1.7-2,2.2-3.3c0.6-1.3,0.8-2.8,0.8-4.6C123.5,15,123.2,13.5,122.7,12.2
							z"/>
					</g>
					<g id="XMLID_12_">
						<path id="XMLID_14_" class="st1" d="M163.4,6.4c1.3,0,2.5,0.2,3.7,0.7c1.2,0.5,2.3,1.1,3.2,2c0.9,0.9,1.7,2,2.2,3.3
							c0.6,1.3,0.8,2.8,0.8,4.5c0,1.7-0.3,3.2-0.8,4.5c-0.6,1.3-1.3,2.4-2.2,3.3c-0.9,0.9-2,1.6-3.2,2c-1.2,0.4-2.5,0.7-3.7,0.7
							c-1.3,0-2.5-0.2-3.7-0.7c-1.2-0.5-2.3-1.1-3.2-2c-0.9-0.9-1.7-2-2.2-3.3c-0.6-1.3-0.8-2.8-0.8-4.5c0-1.7,0.3-3.2,0.8-4.5
							c0.6-1.3,1.3-2.4,2.2-3.3c0.9-0.9,2-1.5,3.2-2C160.8,6.6,162.1,6.4,163.4,6.4z M163.4,24.8c0.8,0,1.5-0.2,2.2-0.5
							c0.7-0.3,1.4-0.8,2-1.5c0.6-0.7,1.1-1.5,1.4-2.5c0.4-1,0.5-2.2,0.5-3.6c0-1.4-0.2-2.5-0.5-3.5c-0.4-1-0.8-1.8-1.4-2.5
							c-0.6-0.6-1.2-1.1-2-1.4c-0.7-0.3-1.5-0.5-2.2-0.5c-0.8,0-1.5,0.2-2.2,0.5c-0.7,0.3-1.4,0.8-2,1.4c-0.6,0.6-1.1,1.5-1.4,2.5
							c-0.4,1-0.5,2.2-0.5,3.5c0,1.4,0.2,2.6,0.5,3.6c0.4,1,0.8,1.8,1.4,2.5c0.6,0.7,1.2,1.2,2,1.5
							C161.9,24.7,162.6,24.8,163.4,24.8z"/>
						<path id="XMLID_13_" class="st5" d="M172.6,12.3c-0.6-1.3-1.3-2.4-2.2-3.3c-0.9-0.9-2-1.5-3.2-2c-0.9-0.3-1.9-0.5-2.9-0.6
							c0.8,1,1.6,2.1,2.1,3.4c0.4,0.3,0.9,0.6,1.3,1c0.6,0.6,1.1,1.5,1.4,2.5c0.4,1,0.5,2.2,0.5,3.5c0,1.4-0.2,2.6-0.5,3.6
							c-0.4,1-0.8,1.8-1.4,2.5c-0.6,0.7-1.2,1.2-2,1.5c-0.2,0.1-0.4,0.1-0.6,0.2c-0.7,1.1-1.6,2-2.6,2.7c0.3,0,0.7,0.1,1,0.1
							c1.3,0,2.5-0.2,3.7-0.7c1.2-0.5,2.3-1.1,3.2-2c0.9-0.9,1.7-2,2.2-3.3c0.6-1.3,0.8-2.8,0.8-4.5
							C173.4,15.1,173.1,13.6,172.6,12.3z"/>
					</g>
				</g>
			</g>
		</g>
	</g>
	<g id="XMLID_2_">
		<defs>
			<path id="XMLID_5_" d="M15.2,15.1c2-1.5,3-3.6,3-6.3c0-2.3-0.7-4.2-2.2-5.6C14.7,1.7,12.9,1,10.8,1H9.6C8,1.5,6.7,2.5,5.4,3.8
				c3-0.5,6.8-0.3,8.3,1.4c0.8,0.9,1.2,2,1.2,3.5c0,1.5-0.4,2.6-1.2,3.4c-0.8,0.8-1.8,1.3-2.9,1.3l-10.2,0c-0.2,1-0.4,2-0.5,3l9.6,0
				c1.9,0,3.6,0.7,4.9,2.1c1.4,1.4,2.1,3,2.1,4.7c0,1.7-0.5,3.5-2.1,4.7c-2.7,2-5.8,2.4-8.2,2.2c1.5,0.9,3.8,1.7,6.1,1.7
				c0.8,0,1.6,0.1,2.4-0.4c1-0.5,1.6-1.1,2-1.5C19,28,20,25.7,20,23.2C20,19.8,18.4,17.1,15.2,15.1z"/>
		</defs>
		<use xlink:href="#XMLID_5_"  style="overflow:visible;fill:#FFFFFF;"/>
		<clipPath id="XMLID_30_">
			<use xlink:href="#XMLID_5_"  style="overflow:visible;"/>
		</clipPath>
		<g id="XMLID_6_" class="st6">
			<path id="XMLID_8_" class="st7" d="M0,18.1C0,10.7,5.1,0.6,12.5,0.6C19.9,0.6,25,10.7,25,18.1c0,7.4-5.1,13.4-12.5,13.4
				C5.1,31.5,0,25.5,0,18.1z"/>
			<path id="XMLID_7_" class="st7" d="M13.2,0.6c4.4,3.3,7.1,10.2,7.1,15.6c0,7.4-3.4,14.4-12,14c-0.6,0-1.2-0.1-1.8-0.2
				c1.8,1,3.9,1.5,6.2,1.5c2.8,0,5.2-0.8,7.2-2.3c3.3-2.4,5.3-6.5,5.3-11.1C25.2,10.8,20.4,0.9,13.2,0.6z"/>
		</g>
	</g>
</g>
</svg>
