<?xml version="1.0" encoding="utf-8"?>
<!-- Generator: Adobe Illustrator 19.0.0, SVG Export Plug-In . SVG Version: 6.00 Build 0)  -->
<svg version="1.1" id="Layer_1" xmlns="http://www.w3.org/2000/svg" xmlns:xlink="http://www.w3.org/1999/xlink" x="0px" y="0px"
	 viewBox="0 0 121.6 100.2" style="enable-background:new 0 0 121.6 100.2;" xml:space="preserve">
<style type="text/css">
	.st0{fill:#2F6BB3;}
	.st1{fill:#83A4B6;}
	.st2{clip-path:url(#XMLID_52_);}
	.st3{fill:#0F5FA5;}
	.st4{clip-path:url(#XMLID_53_);}
	.st5{fill:#3A78BC;}
	.st6{clip-path:url(#XMLID_54_);}
	.st7{fill:#FFFFFF;}
</style>
<g id="XMLID_74_">
	<g id="XMLID_93_">
		<path id="XMLID_113_" class="st0" d="M7.2,100.2c-1.1,0-2.1-0.2-3-0.5c-0.9-0.3-1.6-0.8-2.3-1.5c-0.6-0.7-1.1-1.6-1.5-2.6
			C0.2,94.5,0,93.2,0,91.7v-5.4c0-1.2,0.2-2.1,0.5-2.7c0.3-0.6,0.9-1.1,1.6-1.4c0.4-0.2,0.9-0.3,1.5-0.3c0.4-0.1,0.8-0.1,1.2-0.1
			c0.4,0,0.8,0,1.1,0c0.9,0,1.7,0.1,2.3,0.4c0.6,0.2,1.2,0.6,1.6,1c0.4,0.4,0.8,0.9,1,1.4c0.2,0.5,0.3,1.1,0.3,1.7
			c0,0.5-0.1,1.1-0.3,1.5c-0.2,0.5-0.5,0.9-0.9,1.3c0.5,0.2,1,0.4,1.4,0.7c0.4,0.3,0.8,0.7,1.1,1.1c0.3,0.4,0.6,0.9,0.8,1.5
			c0.2,0.6,0.3,1.2,0.3,1.9c0,0.8-0.1,1.5-0.4,2.2c-0.3,0.7-0.7,1.3-1.3,1.9c-0.5,0.5-1.2,1-2,1.3C9,100,8.2,100.2,7.2,100.2z
			 M7.2,97.6c0.5,0,1-0.1,1.4-0.3c0.4-0.2,0.7-0.4,1-0.7c0.2-0.3,0.4-0.7,0.5-1c0.1-0.4,0.2-0.8,0.2-1.3c0-0.8-0.1-1.4-0.4-1.9
			c-0.3-0.5-0.6-0.9-1-1.1c-0.4-0.3-0.8-0.4-1.3-0.6c-0.5-0.1-1-0.1-1.4-0.1c-0.4,0-0.8,0-1.2,0c-0.4,0-0.7,0-1,0
			c-0.3,0-0.6,0-0.9,0v1.1c0,1.1,0,2.1,0.2,2.9c0.2,0.8,0.4,1.4,0.8,1.8c0.4,0.4,0.8,0.8,1.3,0.9C6,97.5,6.6,97.6,7.2,97.6z
			 M3.1,88.5h2.2c0.9,0,1.6-0.2,2.2-0.5c0.5-0.3,0.8-0.9,0.8-1.7c0-0.4-0.1-0.8-0.2-1c-0.1-0.3-0.3-0.5-0.6-0.7
			c-0.2-0.2-0.5-0.3-0.8-0.4C6.4,84,6.1,84,5.9,84c-0.2,0-0.5,0-0.8,0c-0.3,0-0.6,0-0.9,0.1c-0.3,0.1-0.5,0.2-0.7,0.4
			c-0.2,0.2-0.3,0.4-0.3,0.8V88.5z"/>
		<path id="XMLID_111_" class="st0" d="M20.4,84.4c0-0.5,0-0.9,0-1.2c0-0.3,0-0.6,0-0.8c0-0.2,0-0.4-0.1-0.5c2.1,0,3.1,1,3.1,3
			l0.1,6.5c0,1.1,0,2,0.1,2.8c0.1,0.8,0.3,1.4,0.6,1.8c0.3,0.5,0.7,0.8,1.3,1c0.6,0.2,1.3,0.3,2.2,0.3c0.4,0,0.8,0,1.2,0
			c0.4,0,0.6,0,0.9,0c0.3,0,0.5,0,0.8-0.1v0.2c0,0.3-0.1,0.6-0.2,0.9c-0.1,0.3-0.3,0.6-0.6,0.8c-0.3,0.2-0.6,0.4-1,0.6
			c-0.4,0.2-0.9,0.2-1.4,0.2c-1.4,0-2.5-0.1-3.4-0.4c-0.9-0.3-1.6-0.8-2.1-1.4c-0.5-0.7-0.9-1.6-1.1-2.7c-0.2-1.1-0.3-2.5-0.3-4.1
			V84.4z"/>
		<path id="XMLID_109_" class="st0" d="M99.6,82c-1,2.7-2,5.2-2.9,7.5c-0.4,1-0.8,1.9-1.1,2.9c-0.4,1-0.7,1.8-1.1,2.7
			c-0.3,0.8-0.6,1.5-0.9,2.1c-0.3,0.6-0.5,1-0.6,1.3c-0.3,0.5-0.6,0.9-1,1.1c-0.4,0.2-0.8,0.3-1.1,0.4c-0.4,0.1-0.8,0-1.3-0.1
			L82.6,82c0.4-0.1,0.8-0.1,1.2-0.1c0.4,0,0.8,0.1,1.2,0.2c0.4,0.1,0.7,0.3,1,0.6c0.3,0.3,0.5,0.6,0.7,1.1c0,0.1,0.1,0.3,0.2,0.7
			c0.1,0.4,0.3,0.8,0.5,1.4c0.2,0.6,0.4,1.2,0.7,1.9c0.3,0.7,0.5,1.4,0.8,2.1c0.6,1.7,1.3,3.5,2.1,5.6c0.8-2.1,1.5-3.9,2.1-5.6
			c0.3-0.7,0.5-1.4,0.8-2.1c0.3-0.7,0.5-1.3,0.7-1.9c0.2-0.6,0.4-1,0.5-1.4c0.1-0.4,0.2-0.6,0.3-0.7c0.2-0.4,0.4-0.8,0.7-1.1
			c0.3-0.3,0.6-0.5,1-0.6C97.6,82,98,82,98.4,82C98.8,81.9,99.2,82,99.6,82z"/>
		<g id="XMLID_104_">
			<path id="XMLID_106_" class="st0" d="M45.3,81.8c1.1,0,2.2,0.2,3.3,0.6c1,0.4,2,1,2.8,1.7c0.8,0.8,1.5,1.7,2,2.9
				c0.5,1.1,0.7,2.5,0.7,4c0,1.5-0.2,2.8-0.7,4c-0.5,1.1-1.1,2.1-2,2.9c-0.8,0.8-1.7,1.4-2.8,1.8c-1,0.4-2.1,0.6-3.3,0.6
				c-1.1,0-2.2-0.2-3.3-0.6c-1-0.4-2-1-2.8-1.8c-0.8-0.8-1.5-1.7-2-2.9c-0.5-1.1-0.7-2.5-0.7-4c0-1.5,0.2-2.8,0.7-4
				c0.5-1.1,1.1-2.1,2-2.9c0.8-0.8,1.7-1.4,2.8-1.7C43.1,82,44.1,81.8,45.3,81.8z M45.3,97.9c0.7,0,1.3-0.1,2-0.4
				c0.6-0.3,1.2-0.7,1.7-1.3c0.5-0.6,0.9-1.3,1.2-2.2c0.3-0.9,0.5-1.9,0.5-3.1c0-1.2-0.2-2.2-0.5-3.1c-0.3-0.9-0.7-1.6-1.2-2.2
				c-0.5-0.6-1.1-1-1.7-1.3c-0.6-0.3-1.3-0.4-2-0.4c-0.7,0-1.3,0.1-2,0.4c-0.6,0.3-1.2,0.7-1.7,1.3c-0.5,0.6-0.9,1.3-1.2,2.2
				c-0.3,0.9-0.5,1.9-0.5,3.1c0,1.2,0.2,2.3,0.5,3.1c0.3,0.9,0.7,1.6,1.2,2.2c0.5,0.6,1.1,1,1.7,1.3C44,97.8,44.6,97.9,45.3,97.9z"
				/>
			<path id="XMLID_17_" class="st1" d="M53.3,87c-0.5-1.1-1.1-2.1-2-2.9c-0.8-0.8-1.7-1.4-2.8-1.7c-0.8-0.3-1.7-0.5-2.5-0.5
				c0.7,0.9,1.4,1.8,1.9,2.9c0.4,0.2,0.8,0.5,1.1,0.9c0.5,0.6,0.9,1.3,1.2,2.2c0.3,0.9,0.5,1.9,0.5,3.1c0,1.2-0.2,2.3-0.5,3.1
				c-0.3,0.9-0.7,1.6-1.2,2.2c-0.5,0.6-1.1,1-1.7,1.3c-0.2,0.1-0.4,0.1-0.5,0.2c-0.7,0.9-1.4,1.7-2.3,2.4c0.3,0,0.6,0.1,0.9,0.1
				c1.1,0,2.2-0.2,3.3-0.6c1-0.4,2-1,2.8-1.8c0.8-0.8,1.5-1.7,2-2.9c0.5-1.1,0.7-2.5,0.7-4C54,89.4,53.8,88.1,53.3,87z"/>
		</g>
		<g id="XMLID_99_">
			<path id="XMLID_101_" class="st0" d="M69.4,81.8c1.1,0,2.2,0.2,3.3,0.6c1,0.4,2,1,2.8,1.7c0.8,0.8,1.5,1.7,2,2.9
				c0.5,1.1,0.7,2.5,0.7,4c0,1.5-0.2,2.8-0.7,4c-0.5,1.1-1.1,2.1-2,2.9c-0.8,0.8-1.8,1.4-2.8,1.8c-1,0.4-2.1,0.6-3.3,0.6
				c-1.1,0-2.2-0.2-3.3-0.6c-1-0.4-2-1-2.8-1.8c-0.8-0.8-1.5-1.7-2-2.9c-0.5-1.1-0.7-2.5-0.7-4c0-1.5,0.2-2.8,0.7-4
				c0.5-1.1,1.1-2.1,2-2.9c0.8-0.8,1.8-1.4,2.8-1.7C67.2,82,68.3,81.8,69.4,81.8z M69.4,98c0.7,0,1.3-0.1,2-0.4
				c0.6-0.3,1.2-0.7,1.7-1.3c0.5-0.6,0.9-1.3,1.2-2.2c0.3-0.9,0.5-1.9,0.5-3.1c0-1.2-0.2-2.2-0.5-3.1c-0.3-0.9-0.7-1.6-1.2-2.2
				c-0.5-0.6-1.1-1-1.7-1.3c-0.6-0.3-1.3-0.4-2-0.4c-0.7,0-1.3,0.1-2,0.4c-0.6,0.3-1.2,0.7-1.7,1.3c-0.5,0.6-0.9,1.3-1.2,2.2
				C64.2,88.7,64,89.8,64,91c0,1.2,0.2,2.3,0.5,3.1c0.3,0.9,0.7,1.6,1.2,2.2c0.5,0.6,1.1,1,1.7,1.3C68.1,97.8,68.7,98,69.4,98z"/>
			<path id="XMLID_14_" class="st1" d="M77.4,87c-0.5-1.1-1.1-2.1-2-2.9c-0.8-0.8-1.8-1.4-2.8-1.7c-0.8-0.3-1.7-0.5-2.5-0.5
				c0.7,0.9,1.4,1.8,1.9,2.9c0.4,0.2,0.8,0.5,1.1,0.9c0.5,0.6,0.9,1.3,1.2,2.2c0.3,0.9,0.5,1.9,0.5,3.1c0,1.2-0.2,2.3-0.5,3.1
				c-0.3,0.9-0.7,1.6-1.2,2.2c-0.5,0.6-1.1,1-1.7,1.3c-0.2,0.1-0.4,0.1-0.5,0.2c-0.7,0.9-1.4,1.7-2.3,2.4c0.3,0,0.6,0.1,0.9,0.1
				c1.1,0,2.2-0.2,3.3-0.6c1-0.4,2-1,2.8-1.8c0.8-0.8,1.5-1.7,2-2.9c0.5-1.1,0.7-2.5,0.7-4C78.1,89.5,77.9,88.1,77.4,87z"/>
		</g>
		<g id="XMLID_94_">
			<path id="XMLID_96_" class="st0" d="M112.9,81.9c1.1,0,2.2,0.2,3.3,0.6c1,0.4,2,1,2.8,1.7c0.8,0.8,1.5,1.7,2,2.9
				c0.5,1.1,0.7,2.5,0.7,4c0,1.5-0.2,2.8-0.7,4c-0.5,1.1-1.1,2.1-2,2.9c-0.8,0.8-1.7,1.4-2.8,1.8c-1,0.4-2.1,0.6-3.3,0.6
				c-1.1,0-2.2-0.2-3.3-0.6c-1-0.4-2-1-2.8-1.8c-0.8-0.8-1.5-1.7-2-2.9c-0.5-1.1-0.7-2.5-0.7-4c0-1.5,0.2-2.8,0.7-4
				c0.5-1.1,1.1-2.1,2-2.9c0.8-0.8,1.7-1.4,2.8-1.7C110.6,82.1,111.7,81.9,112.9,81.9z M112.9,98c0.7,0,1.3-0.1,2-0.4
				c0.6-0.3,1.2-0.7,1.7-1.3c0.5-0.6,0.9-1.3,1.2-2.2c0.3-0.9,0.5-1.9,0.5-3.1c0-1.2-0.2-2.2-0.5-3.1c-0.3-0.9-0.7-1.6-1.2-2.2
				c-0.5-0.6-1.1-1-1.7-1.3c-0.6-0.3-1.3-0.4-2-0.4c-0.7,0-1.3,0.1-2,0.4c-0.6,0.3-1.2,0.7-1.7,1.3c-0.5,0.6-0.9,1.3-1.2,2.2
				c-0.3,0.9-0.5,1.9-0.5,3.1c0,1.2,0.2,2.3,0.5,3.1c0.3,0.9,0.7,1.6,1.2,2.2c0.5,0.6,1.1,1,1.7,1.3C111.5,97.9,112.2,98,112.9,98z"
				/>
			<path id="XMLID_11_" class="st1" d="M120.9,87.1c-0.5-1.1-1.1-2.1-2-2.9c-0.8-0.8-1.7-1.4-2.8-1.7c-0.8-0.3-1.7-0.5-2.5-0.5
				c0.7,0.9,1.4,1.8,1.8,2.9c0.4,0.2,0.8,0.5,1.1,0.9c0.5,0.6,0.9,1.3,1.2,2.2c0.3,0.9,0.5,1.9,0.5,3.1c0,1.2-0.2,2.3-0.5,3.1
				c-0.3,0.9-0.7,1.6-1.2,2.2c-0.5,0.6-1.1,1-1.7,1.3c-0.2,0.1-0.4,0.1-0.5,0.2c-0.7,0.9-1.4,1.7-2.3,2.4c0.3,0,0.6,0.1,0.9,0.1
				c1.1,0,2.2-0.2,3.3-0.6c1-0.4,2-1,2.8-1.8c0.8-0.8,1.5-1.7,2-2.9c0.5-1.1,0.7-2.5,0.7-4C121.6,89.5,121.3,88.2,120.9,87.1z"/>
		</g>
	</g>
	<g id="XMLID_75_">
		<g id="XMLID_81_">
			<defs>
				<path id="XMLID_5_" d="M29.9,41c0-17.3,11.8-41,29.2-41c17.3,0,29.2,23.6,29.2,41c0,17.3-11.8,31.8-29.2,31.8
					C41.8,72.7,29.9,58.3,29.9,41z"/>
			</defs>
			<clipPath id="XMLID_52_">
				<use xlink:href="#XMLID_5_"  style="overflow:visible;"/>
			</clipPath>
			<g id="XMLID_83_" class="st2">
				<path id="XMLID_10_" class="st0" d="M29.9,41c0-17.4,11.9-41.1,29.2-41.1c17.4,0,29.2,23.7,29.2,41.1
					c0,17.4-11.9,31.5-29.2,31.5C41.8,72.4,29.9,58.3,29.9,41z"/>
				<g id="XMLID_89_">
					<path id="XMLID_9_" class="st0" d="M29.4,41c0-17.3,11.8-41,29.2-41C76,0,87.8,23.6,87.8,41c0,17.3-11.8,31.4-29.2,31.4
						C41.3,72.4,29.4,58.3,29.4,41z"/>
					<path id="XMLID_8_" class="st3" d="M60.1,0c10.3,7.7,16.7,23.8,16.7,36.6c0,17.3-8,33.6-28,32.6c-1.5-0.1-2.4,0.1-3.8-0.1
						c4.2,2.4,8.6,3.3,14.1,3.3c6.5,0,12.2-2,16.8-5.4c7.7-5.6,12.3-15.2,12.3-26C88.3,24,76.9,0.9,60.1,0z"/>
				</g>
				<g id="XMLID_84_">
					<defs>
						<circle id="XMLID_7_" cx="37.6" cy="27.8" r="30.9"/>
					</defs>
					<use xlink:href="#XMLID_7_"  style="overflow:visible;fill:#3A78BC;"/>
					<clipPath id="XMLID_53_">
						<use xlink:href="#XMLID_7_"  style="overflow:visible;"/>
					</clipPath>
					<g id="XMLID_86_" class="st4">
						<path id="XMLID_18_" class="st5" d="M29.4,41.1c0-17.3,11.8-41,29.2-41c17.3,0,29.2,23.6,29.2,41c0,17.3-11.8,31.4-29.2,31.4
							C41.3,72.5,29.4,58.5,29.4,41.1z"/>
						<path id="XMLID_26_" class="st5" d="M60.1,0.2C70.4,7.9,76.8,24,76.8,36.8c0,17.3-8,33.6-28,32.6c-1.5-0.1-2.9-0.2-4.3-0.4
							c4.2,2.4,9.1,3.5,14.6,3.5c6.5,0,12.2-2,16.8-5.4c7.7-5.6,12.3-15.2,12.3-26C88.3,24.1,76.9,1.1,60.1,0.2z"/>
					</g>
				</g>
			</g>
		</g>
		<g id="XMLID_76_">
			<defs>
				<path id="XMLID_6_" d="M65.2,34.4c4.7-3.5,7.1-8.4,7.1-14.8c0-5.4-1.7-9.8-5.1-13.2c-3.3-3.3-7.5-5-12.3-5l-3.1,0
					C48,2.6,45.2,4.9,42.2,8c7.1-1.3,16.1-0.5,19.5,3.4c1.8,2,2.9,4.6,2.9,8.1c0,3.5-1,6.1-2.9,8c-2,2-4.2,2.9-6.9,2.9l-24,0
					c-0.6,2.4-0.9,4.8-1.1,7.1l22.4,0c4.5,0,8.3,1.6,11.6,4.8c3.3,3.3,4.9,6.9,4.9,10.9c0,3.9-1.1,8.2-4.9,10.9
					c-6.4,4.6-12.6,5.4-18.3,5c3.6,2.5,16.9,6.4,23.8-0.2c4.8-4.6,7.1-9.8,7.1-15.6C76.3,45.5,72.6,39.1,65.2,34.4z"/>
			</defs>
			<use xlink:href="#XMLID_6_"  style="overflow:visible;fill:#FFFFFF;"/>
			<clipPath id="XMLID_54_">
				<use xlink:href="#XMLID_6_"  style="overflow:visible;"/>
			</clipPath>
			<g id="XMLID_78_" class="st6">
				<path id="XMLID_27_" class="st7" d="M29.7,41.4c0-17.3,11.8-41,29.2-41c17.3,0,29.2,23.6,29.2,41c0,17.3-11.8,31.4-29.2,31.4
					C41.5,72.8,29.7,58.7,29.7,41.4z"/>
				<path id="XMLID_28_" class="st7" d="M60.3,0.5C70.6,8.1,77.1,24.3,77.1,37c0,17.3-8,33.6-28,32.6c-1.5-0.1-2.9-0.2-4.3-0.4
					c4.2,2.4,9.1,3.5,14.6,3.5c6.5,0,12.2-2,16.8-5.4c7.7-5.6,12.3-15.2,12.3-26C88.6,24.4,77.2,1.4,60.3,0.5z"/>
			</g>
		</g>
	</g>
</g>
</svg>
