<?xml version="1.0" encoding="utf-8"?>
<!-- Generator: Adobe Illustrator 19.0.0, SVG Export Plug-In . SVG Version: 6.00 Build 0)  -->
<svg version="1.1" id="Layer_1" xmlns="http://www.w3.org/2000/svg" xmlns:xlink="http://www.w3.org/1999/xlink" x="0px" y="0px"
	 viewBox="0 0 35 35" style="enable-background:new 0 0 35 35;" xml:space="preserve">
<style type="text/css">
	.st0{fill:#7BA1B2;}
	.st1{fill:#32B44A;}
</style>
<g id="XMLID_292_">
	<path id="XMLID_302_" class="st0" d="M13.1,11.7c3.2,0,5.9-2.6,5.9-5.9C19,2.6,16.3,0,13.1,0C9.9,0,7.2,2.6,7.2,5.9
		C7.2,9.1,9.9,11.7,13.1,11.7L13.1,11.7z M13.1,2.1c2.1,0,3.8,1.7,3.8,3.8c0,2.1-1.7,3.8-3.8,3.8c-2.1,0-3.8-1.7-3.8-3.8
		C9.3,3.8,11,2.1,13.1,2.1L13.1,2.1z M13.1,2.1"/>
	<path id="XMLID_296_" class="st0" d="M25,18.9c-0.4,0-0.8,0-1.2,0.1c-0.3-2.2-1.8-4.1-3.9-4.8c0,0-1.7-0.5-1.7-0.5
		c-0.5-0.2-1.1,0.1-1.3,0.6l-2.2,6c0,0-0.7-3.2-0.8-3.2l1.1-2c0.2-0.3,0.2-0.6,0-0.9c-0.2-0.3-0.4-0.4-0.7-0.4h-2.4
		c-0.3,0-0.6,0.2-0.7,0.4c-0.2,0.3-0.2,0.6,0,0.9l1.1,2c0,0.1-0.8,3.2-0.8,3.2l-2.2-6c-0.2-0.5-0.7-0.8-1.3-0.6c0,0-1.7,0.5-1.7,0.5
		c-2.4,0.8-4,3-4,5.5v9.4c0,0.6,0.5,1,1,1h14.2C18.9,33,21.7,35,25,35c4.4,0,8-3.6,8-8C33,22.5,29.4,18.9,25,18.9L25,18.9z
		 M4.5,28.1v-8.4c0-1.6,1-3,2.5-3.5L7.8,16c0,0,4.4,12.1,4.5,12.2H4.5z M14,28.1c0-0.1,4.5-12.2,4.5-12.2l0.7,0.2
		c1.5,0.5,2.5,1.9,2.5,3.4c-2.8,1.3-4.8,4.1-4.8,7.3c0,0.4,0,0.8,0.1,1.2H14z M25,32.9c-3.3,0-6-2.7-6-6c0-3.3,2.7-6,6-6s6,2.7,6,6
		C30.9,30.3,28.3,32.9,25,32.9L25,32.9z M25,32.9"/>
	<path id="XMLID_293_" class="st1" d="M27.2,24.2L24,27.5l-1.3-1.3c-0.4-0.4-1.1-0.4-1.5,0c-0.4,0.4-0.4,1.1,0,1.5l2,2
		c0.2,0.2,0.5,0.3,0.7,0.3c0.3,0,0.5-0.1,0.7-0.3l4-4c0.4-0.4,0.4-1.1,0-1.5C28.3,23.8,27.6,23.8,27.2,24.2L27.2,24.2z M27.2,24.2"
		/>
</g>
</svg>
