<?xml version="1.0" standalone="no"?>
<!DOCTYPE svg PUBLIC "-//W3C//DTD SVG 1.1//EN" "http://www.w3.org/Graphics/SVG/1.1/DTD/svg11.dtd" >
<svg xmlns="http://www.w3.org/2000/svg">
<metadata>Generated by IcoMoon</metadata>
<defs>
<font id="icomoon" horiz-adv-x="1024">
<font-face units-per-em="1024" ascent="960" descent="-64" />
<missing-glyph horiz-adv-x="1024" />
<glyph unicode="&#x20;" horiz-adv-x="512" d="" />
<glyph unicode="&#xe900;" glyph-name="dashboard" d="M844.836 661.888c-89.482 76.744-205.609 123.423-332.908 123.423-282.724 0-511.929-229.205-511.929-512.071 0-7.58 0.741-78.368 1.083-85.92v-76.658h1020.837v71.073l0.969 5.586c0.313 7.58 1.111 78.34 1.111 85.92 0.028 251.006-179.164 388.649-179.164 388.649zM124.534 187.319c-0.427 4.674 0.171 72.64-0.142 77.314h105.013v33.912h-97.632c0 0.399-7.381-0.057-7.381-0.057 4.132 87.915 37.617 175.63 100.853 244.793l2.65 2.85 4.731-4.104 69.876-69.933 21.943 22-74.236 74.179c67.197 61.441 152.462 96.692 243.425 100.739l5.272 0.028c0 0 2.194 0.085 2.052-1.311v-103.56h27.956v104.842c13.793-0.57 27.586-2.194 41.179-4.332 78.112-10.316 150.723-44.029 209.513-97.746l-74.093-74.15 20.604-20.689 71.158 71.187 3.933 3.163 3.363-4.446c61.526-67.254 96.72-152.462 100.853-243.454h-104.899v-33.912l105.384 0.142c0 0 0.085-72.982-0.285-77.2l-781.087-0.256zM649.743 431.999c0 0-166.539-51.067-198.428-82.899-31.946-31.974-31.946-83.64 0.057-115.614 31.832-31.946 83.555-31.946 115.529 0 31.86 31.974 82.842 198.513 82.842 198.513z" />
<glyph unicode="&#xe901;" glyph-name="incandescent" d="M602.776 124.963h-181.661c-14.063 0-25.473-11.413-25.473-25.473 0-14.071 11.41-25.482 25.473-25.482h181.661c14.063 0 25.486 11.41 25.486 25.482 0.002 14.061-11.419 25.473-25.486 25.473zM465.168-23.524c3.455-22.867 22.991-40.476 46.841-40.476 23.825 0 43.406 17.601 46.847 40.476 31.185 1.842 55.968 27.468 55.968 59.114h-205.751c0-31.664 24.855-57.309 56.096-59.114zM512.006 813.025c18.793 0 33.985 15.212 33.985 33.972v79.031c0 18.766-15.189 33.972-33.985 33.972-18.775 0-33.964-15.206-33.964-33.972v-79.031c0.002-18.76 15.191-33.972 33.964-33.972zM289.077 763.53c6.672-9.16 17.024-14.021 27.547-14.021 6.898 0 13.893 2.109 19.928 6.489 15.166 11.016 18.551 32.259 7.534 47.436l-46.446 63.958c-11.045 15.164-32.247 18.582-47.465 7.532-15.162-11.010-18.547-32.259-7.53-47.436l46.432-63.958zM734.885 265.541c-11.018 15.164-32.247 18.528-47.452 7.509-15.152-11.027-18.534-32.274-7.487-47.448l46.473-63.96c6.628-9.14 16.981-14.005 27.51-14.005 6.923 0 13.891 2.109 19.926 6.487 15.164 11.031 18.545 32.28 7.505 47.459l-46.476 63.958zM206.355 649.574l-75.182 24.451c-18.014 5.805-37.010-3.963-42.821-21.813-5.813-17.829 3.949-37.004 21.792-42.809l75.182-24.451c3.511-1.128 7.024-1.678 10.506-1.678 14.33 0 27.632 9.125 32.315 23.491 5.811 17.829-3.949 37.006-21.792 42.809zM913.85 419.677l-75.163 24.416c-17.858 5.761-37-3.978-42.801-21.809-5.811-17.848 3.978-37.014 21.819-42.817l75.182-24.414c3.486-1.13 6.995-1.674 10.481-1.674 14.328 0 27.63 9.14 32.313 23.485 5.796 17.856-3.978 37.008-21.832 42.813zM185.352 444.093l-75.209-24.383c-17.844-5.786-27.632-24.94-21.819-42.794 4.641-14.366 17.968-23.505 32.299-23.505 3.459 0 7.012 0.554 10.496 1.682l75.195 24.38c17.858 5.79 27.645 24.949 21.836 42.794-5.77 17.835-24.787 27.589-42.796 21.825zM828.201 583.275c3.486 0 6.995 0.55 10.486 1.678l75.163 24.416c17.852 5.805 27.628 24.967 21.83 42.809-5.813 17.835-25.046 27.583-42.794 21.813l-75.182-24.414c-17.844-5.803-27.628-24.965-21.819-42.809 4.672-14.353 17.987-23.493 32.317-23.493zM289.123 265.553l-46.519-63.921c-11.045-15.177-7.688-36.423 7.505-47.456 6.006-4.395 13.003-6.508 19.928-6.508 10.523 0 20.876 4.845 27.508 13.986l46.517 63.925c11.045 15.172 7.688 36.421-7.505 47.456-15.125 11.093-36.463 7.692-47.434-7.483zM726.391 867.393l-46.446-63.958c-11.016-15.177-7.634-36.421 7.534-47.436 6.035-4.38 13.030-6.489 19.926-6.489 10.523 0 20.874 4.859 27.533 14.021l46.446 63.96c11.014 15.177 7.632 36.426-7.536 47.436-15.253 11.077-36.411 7.663-47.456-7.534zM757.366 513.279c0 135.536-109.866 245.408-245.385 245.408-135.546 0-245.414-109.872-245.414-245.408 0-57.175 19.664-109.675 52.515-151.353 28.787-36.525 56.051-76.399 79.678-116.525v-81.516h225.048v79.353c23.41 39.026 53.674 83.959 81.016 118.648 32.879 41.691 52.542 94.181 52.542 151.393z" />
<glyph unicode="&#xe902;" glyph-name="job-application" d="M662.905 270.147c37.726 10.779 75.453 16.168 107.789 16.168s70.063-5.389 107.789-16.168 75.453-26.947 107.789-48.505c32.337-21.558 48.505-48.505 48.505-75.453v-70.063h-538.947v75.453c0 26.947 16.168 53.895 48.505 75.453 43.116 16.168 80.842 32.337 118.568 43.116zM867.705 388.716c-26.947-21.558-59.284-37.726-91.621-37.726s-70.063 16.168-97.011 37.726c-26.947 26.947-37.726 59.284-37.726 97.011s10.779 70.063 37.726 97.011c26.947 26.947 59.284 37.726 97.011 37.726s70.063-10.779 97.011-37.726c26.947-26.947 37.726-59.284 37.726-97.011s-16.168-70.063-43.116-97.011zM361.095 798.316l215.579-215.579v-431.158c0-21.558-5.389-37.726-21.558-48.505-16.168-16.168-32.337-21.558-48.505-21.558h-431.158c-21.558 0-37.726 5.389-48.505 21.558-21.558 10.779-26.947 26.947-26.947 48.505v576.674c0 16.168 5.389 32.337 21.558 48.505s32.337 21.558 48.505 21.558h291.032zM431.158 367.158v70.063h-285.642v-70.063h285.642zM431.158 221.642v75.453h-285.642v-70.063h285.642zM323.368 545.011h199.411l-199.411 199.411v-199.411z" />
<glyph unicode="&#xe903;" glyph-name="profile-view" horiz-adv-x="1055" d="M835.534 884.613l213.595-213.595v-427.19c0-18.847-6.282-37.693-18.847-50.258s-31.411-18.847-50.258-18.847h-433.472c-18.847 0-37.693 6.282-50.258 18.847s-18.847 31.411-18.847 50.258v571.681c0 18.847 6.282 37.693 18.847 50.258s31.411 18.847 50.258 18.847h288.982zM904.638 457.423v69.104h-282.699v-69.104h282.699zM904.638 312.933v75.387h-282.699v-69.104h282.699zM797.84 633.325h194.748l-194.748 194.748v-194.748zM6.282 99.337c6.282 12.564 6.282 31.411 12.564 43.975 6.282 31.411 12.564 62.822 25.129 94.233 37.693 81.669 56.54 169.62 50.258 263.853 0 50.258 6.282 56.54 56.54 56.54 43.975 0 87.951 0 131.926 0 6.282 0 18.847 0 25.129 0 0-25.129 0-50.258 0-75.387 0-69.104 0-144.491 0-213.595 0-12.564 0-18.847-12.564-25.129-25.129-6.282-25.129-31.411-25.129-50.258 0-50.258 0-100.515 0-157.055-87.951 0-175.902 0-257.571 0-6.282 18.847-6.282 43.975-6.282 62.822zM6.282 11.387c87.951 0 169.62 0 257.571 0 0-12.564 0-25.129 0-37.693 0-18.847-12.564-25.129-31.411-31.411-62.822 0-131.926 0-194.748 0-12.564 0-18.847 12.564-31.411 18.847 0 18.847 0 37.693 0 50.258zM288.982 696.147c12.564-12.564 18.847-25.129 18.847-43.975s0-37.693 0-62.822c-50.258 0-94.233 0-138.209 0 6.282 37.693-12.564 69.104 18.847 100.515 31.411 6.282 69.104 6.282 100.515 6.282zM577.963 696.147c31.411-31.411 12.564-69.104 18.847-100.515-50.258 0-94.233 0-144.491 0 0 25.129 0 56.54 0 81.669 0 6.282 12.564 12.564 18.847 18.847 37.693 0 75.387 0 106.798 0zM458.601 557.939c25.129 0 56.54 0 81.669 0 31.411 0 62.822 0 94.233 0s37.693-12.564 37.693-37.693c0-56.54 0-119.362 12.564-175.902 6.282-31.411 18.847-56.54 31.411-87.951 31.411-69.104 43.975-138.209 37.693-213.595-87.951 0-169.62 0-257.571 0 0 31.411 0 69.104 0 100.515 0 18.847 0 37.693 0 56.54 0 25.129-6.282 37.693-31.411 50.258-6.282 0-12.564 6.282-12.564 12.564 6.282 94.233 6.282 194.748 6.282 295.264zM351.804 557.939c25.129 0 43.975 0 69.104 0 0-100.515 0-207.313 0-307.828-18.847 0-43.975 0-69.104 0 0 100.515 0 201.031 0 307.828zM753.865 11.387c0-12.564 0-25.129 0-31.411 0-18.847-12.564-31.411-31.411-31.411-62.822 0-131.926 0-194.748 0-18.847 0-25.129 6.282-25.129 25.129 0 12.564 0 25.129 0 37.693 81.669 0 169.62 0 251.288 0z" />
<glyph unicode="&#xe904;" glyph-name="profile" d="M512 470.756c142.222 0 256 108.089 256 244.622 0 22.756-5.689 45.511-11.378 62.578 0 0 0 0 0 0-28.444 108.089-125.156 182.044-244.622 182.044-113.778 0-216.178-73.956-244.622-176.356 0 0 0 0 0 0-5.689-22.756-5.689-45.511-5.689-68.267 0-130.844 113.778-244.622 250.311-244.622zM341.333 726.756c0 0 0 0 0 0v0c5.689 85.333 79.644 153.6 170.667 153.6 96.711 0 170.667-73.956 170.667-164.978s-79.644-164.978-170.667-164.978c-96.711 0-170.667 73.956-170.667 164.978 0 5.689 0 11.378 0 11.378zM898.844 425.244l-5.689 28.444h-756.622l-5.689-28.444c-11.378-34.133-17.067-68.267-17.067-108.089 0-210.489 176.356-381.156 398.222-381.156s398.222 170.667 398.222 381.156c0 39.822-5.689 73.956-11.378 108.089zM512 15.644c-176.356 0-312.889 136.533-312.889 301.511 0 17.067 0 34.133 5.689 51.2h620.089c5.689-17.067 5.689-34.133 5.689-51.2-5.689-164.978-142.222-301.511-318.578-301.511z" />
<glyph unicode="&#xe905;" glyph-name="statistics" d="M280.369 447.427h-196.56c-15.184 0-27.493-12.308-27.493-27.493v-456.434c0-15.184 12.308-27.493 27.493-27.493h196.56c15.184 0 27.493 12.308 27.493 27.493v456.434c0 15.181-12.308 27.493-27.493 27.493zM610.279 960h-196.56c-15.184 0-27.493-12.308-27.493-27.493v-969.015c0-15.179 12.308-27.493 27.493-27.493h196.56c15.184 0 27.493 12.314 27.493 27.493v969.015c0 15.184-12.306 27.493-27.493 27.493zM940.189 643.13h-196.56c-15.184 0-27.493-12.308-27.493-27.493v-652.144c0-15.179 12.308-27.493 27.493-27.493h196.56c15.184 0 27.493 12.314 27.493 27.493v652.144c0 15.184-12.306 27.493-27.493 27.493z" />
<glyph unicode="&#xe906;" glyph-name="thumbs-up" d="M954.447 387.688c20.105 30.367 30.145 63.794 30.145 100.305 0 42.26-15.572 78.965-46.743 110.175-31.186 31.177-68.111 46.762-110.772 46.762h-108.308c19.687 40.611 29.548 80 29.548 118.147 0 48.002-7.199 86.151-21.545 114.459-14.361 28.317-35.287 49.131-62.776 62.47-27.496 13.333-58.459 19.993-92.919 19.993-20.933 0-39.387-7.589-55.386-22.773-17.637-17.228-30.356-39.387-38.147-66.464-7.796-27.069-14.055-53.021-18.769-77.842-4.714-24.819-12.003-42.357-21.844-52.612-20.107-21.743-42.053-48.006-65.848-78.771-41.434-53.737-69.54-85.535-84.302-95.385h-168.608c-21.743 0-40.309-7.703-55.694-23.075-15.378-15.387-23.073-33.951-23.073-55.696v-393.83c0-21.745 7.686-40.303 23.073-55.69 15.393-15.387 33.951-23.086 55.694-23.086h177.214c9.027 0 37.328-8.203 84.918-24.614 50.463-17.644 94.872-31.076 133.226-40.309 38.359-9.233 77.23-13.852 116.617-13.852h79.379c57.841 0 104.4 16.523 139.685 49.551 35.272 33.028 52.715 78.051 52.31 135.075 24.614 31.591 36.919 68.102 36.919 109.532 0 9.020-0.606 17.84-1.843 26.463 15.583 27.476 23.394 57.015 23.394 88.606-0.006 14.771-1.849 28.931-5.546 42.46zM185.249 105.235c-7.794-7.789-17.023-11.699-27.69-11.699-10.669 0-19.9 3.908-27.696 11.699-7.792 7.787-11.691 17.021-11.691 27.696 0 10.665 3.89 19.892 11.691 27.69 7.804 7.796 17.027 11.693 27.696 11.693 10.667 0 19.896-3.897 27.69-11.693 7.796-7.796 11.695-17.023 11.695-27.69 0-10.675-3.899-19.909-11.695-27.696zM892.623 437.505c-8.822-18.868-19.799-28.509-32.925-28.914 6.151-6.977 11.283-16.73 15.387-29.231 4.099-12.516 6.136-23.896 6.136-34.158 0-28.293-10.856-52.709-32.602-73.215 7.393-13.122 11.081-27.282 11.081-42.454 0-15.18-3.584-30.257-10.768-45.228-7.171-14.958-16.922-25.73-29.224-32.291 2.050-12.305 3.067-23.795 3.067-34.46 0-68.507-39.387-102.762-118.162-102.762h-74.437c-53.754 0-123.895 14.965-210.465 44.919-2.054 0.819-7.994 2.981-17.846 6.462s-17.131 6.048-21.851 7.684c-4.72 1.653-11.893 4.011-21.54 7.080-9.645 3.084-17.43 5.343-23.383 6.772-5.944 1.431-12.719 2.765-20.301 3.998-7.587 1.231-14.051 1.843-19.383 1.843h-19.691v393.815h19.691c6.563 0 13.844 1.851 21.844 5.535 7.998 3.694 16.208 9.231 24.616 16.618 8.412 7.386 16.303 14.667 23.692 21.851 7.386 7.177 15.59 16.202 24.618 27.069 9.024 10.876 16.1 19.59 21.232 26.155 5.125 6.563 11.585 14.977 19.381 25.233 7.792 10.253 12.514 16.409 14.154 18.463 22.56 27.892 38.354 46.558 47.379 55.998 16.82 17.635 29.024 40.096 36.613 67.378 7.598 27.287 13.852 53.030 18.758 77.23 4.918 24.202 12.723 41.643 23.403 52.31 39.374 0 65.637-9.637 78.76-28.92 13.122-19.28 19.687-49.025 19.687-89.229 0-24.202-9.854-57.123-29.55-98.76-19.687-41.641-29.524-74.359-29.524-98.152h216.601c20.534 0 38.781-7.893 54.774-23.696 16.006-15.792 24.017-34.147 24.017-55.075-0.006-14.357-4.418-30.974-13.238-49.868z" />
<glyph unicode="&#xe907;" glyph-name="round" d="M1029.044 445.478c0-284.163-230.359-514.522-514.522-514.522s-514.522 230.359-514.522 514.522c0 284.163 230.359 514.522 514.522 514.522s514.522-230.359 514.522-514.522z" />
<glyph unicode="&#xe908;" glyph-name="resume" d="M801.928 503.518l43.181-43.181-333.108-333.108c-43.181-43.181-98.699-67.855-160.386-67.855s-117.205 24.675-160.386 67.855c-43.181 43.181-67.855 98.699-67.855 160.386s24.675 117.205 67.855 160.386l363.952 363.952c30.843 30.843 74.024 49.349 117.205 49.349s86.361-18.506 117.205-49.349 49.349-74.024 49.349-117.205c0-43.181-18.506-86.361-49.349-117.205l-308.434-308.434c-18.506-18.506-43.181-30.843-74.024-30.843s-55.518 12.337-74.024 30.843c-18.506 18.506-30.843 43.181-30.843 74.024s12.337 55.518 30.843 74.024l277.59 277.59 43.181-43.181-277.59-277.59c-6.169-6.169-12.337-18.506-12.337-30.843s6.169-24.675 12.337-30.843c6.169-6.169 18.506-12.337 30.843-12.337s18.506 6.169 30.843 12.337l308.434 308.434c18.506 18.506 30.843 43.181 30.843 74.024s-12.337 55.518-30.843 74.024c-18.506 18.506-43.181 30.843-74.024 30.843s-55.518-12.337-74.024-30.843l-363.952-363.952c-30.843-30.843-49.349-74.024-49.349-117.205s18.506-86.361 49.349-117.205c30.843-30.843 74.024-49.349 117.205-49.349s86.361 18.506 117.205 49.349l333.108 333.108z" />
<glyph unicode="&#xe909;" glyph-name="current-Job" horiz-adv-x="1080" d="M1052.055 714.521c-21.041 21.041-49.096 35.068-77.151 35.068h-217.425v105.205c0 28.055-14.027 56.11-35.068 77.151-14.027 14.027-42.082 28.055-70.137 28.055h-217.425c-35.068 0-56.11-14.027-77.151-35.068s-35.068-42.082-35.068-70.137v-112.219h-210.411c-28.055 0-56.11-14.027-77.151-35.068-21.041-14.027-35.068-42.082-35.068-70.137v-596.164c0-28.055 14.027-56.11 35.068-77.151s49.096-35.068 77.151-35.068h862.685c28.055 0 56.11 14.027 77.151 35.068s35.068 49.096 35.068 77.151v596.164c-7.014 28.055-14.027 56.11-35.068 77.151zM434.849 854.795h217.425v-112.219h-217.425v112.219zM624.219 714.521l-42.082-126.247h-84.164l-42.082 126.247h168.329zM540.055 27.178l-154.301 126.247 105.205 406.795h84.164l105.205-406.795-140.274-126.247z" />
<glyph unicode="&#xe90a;" glyph-name="experience" d="M983.040 519.68c15.36 0 25.6-5.12 40.96-15.36 10.24-10.24 15.36-25.6 15.36-40.96v-296.96c0-15.36-5.12-25.6-15.36-40.96-10.24-10.24-25.6-15.36-40.96-15.36h-430.080c-15.36 0-25.6 5.12-40.96 15.36-10.24 10.24-15.36 25.6-15.36 40.96v302.080c0 15.36 5.12 25.6 15.36 40.96 10.24 10.24 25.6 15.36 40.96 15.36h107.52v51.2c0 15.36 5.12 25.6 15.36 35.84s25.6 15.36 40.96 15.36h102.4c15.36 0 25.6-5.12 40.96-15.36 10.24-10.24 15.36-20.48 15.36-35.84v-56.32h107.52zM819.2 519.68v56.32h-107.52v-56.32h107.52zM215.040 340.48c51.2 10.24 97.28 20.48 138.24 20.48s87.040-5.12 138.24-20.48c51.2-10.24 97.28-30.72 138.24-61.44 40.96-25.6 61.44-61.44 61.44-92.16v-87.040h-680.96v87.040c0 35.84 20.48 66.56 61.44 92.16 46.080 30.72 92.16 51.2 143.36 61.44zM481.28 499.2c-35.84-35.84-76.8-51.2-122.88-51.2-51.2 0-92.16 15.36-122.88 51.2-35.84 35.84-51.2 76.8-51.2 122.88s15.36 87.040 51.2 122.88c35.84 35.84 76.8 51.2 122.88 51.2s87.040-15.36 122.88-51.2c35.84-35.84 51.2-76.8 51.2-122.88 0-51.2-20.48-92.16-51.2-122.88z" />
<glyph unicode="&#xe90b;" glyph-name="gender" horiz-adv-x="1069" d="M986.899 781.913c0-98.355-79.732-178.087-178.087-178.087s-178.087 79.732-178.087 178.087c0 98.355 79.732 178.087 178.087 178.087s178.087-79.732 178.087-178.087zM445.217 781.913c0-98.355-79.732-178.087-178.087-178.087s-178.087 79.732-178.087 178.087c0 98.355 79.732 178.087 178.087 178.087s178.087-79.732 178.087-178.087zM808.812 551.884l-259.71-615.884h519.42zM267.13-64l-267.13 615.884h519.42z" />
<glyph unicode="&#xe90c;" glyph-name="hot-mail" d="M1021.992 949.961l-1021.992-60.235 477.867-467.827 544.125 528.063zM4.016 799.373v-359.404c0 0 104.408 44.173 335.31-78.306 0 0 580.267-297.161 678.651-228.894l4.016 714.792-544.125-489.914-473.851 441.725zM0 383.749v-377.475l1021.992-60.235v130.51c-196.769 4.016-343.341 72.282-644.518 216.847-281.098 134.525-377.475 90.353-377.475 90.353z" />
<glyph unicode="&#xe90d;" glyph-name="License" d="M177.853 410.274c-10.779 0-16.168 0-21.558-5.389s-10.779-16.168-10.779-21.558c0-10.779 5.389-16.168 10.779-21.558s10.779-10.779 21.558-10.779 16.168 5.389 21.558 10.779 10.779 10.779 10.779 21.558c0 10.779-5.389 16.168-10.779 21.558s-16.168 5.389-21.558 5.389zM177.853 539.621l-32.337-86.232h280.253l-32.337 86.232zM393.432 410.274c-5.389 0-16.168 0-21.558-5.389s-5.389-16.168-5.389-21.558c0-10.779 5.389-16.168 10.779-21.558 0-5.389 10.779-10.779 16.168-10.779s16.168 5.389 21.558 10.779 10.779 10.779 10.779 21.558c0 10.779-5.389 16.168-10.779 21.558s-10.779 5.389-21.558 5.389zM0 825.263v-754.526h1002.442v754.526h-1002.442zM538.947 469.558h269.474v-37.726h-269.474v37.726zM463.495 275.537c0-5.389 0-10.779-5.389-10.779-5.389-5.389-10.779-5.389-16.168-5.389h-16.168c-5.389 0-10.779 0-10.779 5.389-5.389 5.389-5.389 10.779-5.389 10.779v16.168h-242.526v-21.558c0-5.389 0-10.779-5.389-10.779-5.389-5.389-10.779-5.389-16.168-5.389h-21.558c-5.389 0-10.779 0-10.779 5.389-5.389 5.389-5.389 10.779-5.389 16.168v161.684l43.116 118.568c0 10.779 10.779 16.168 26.947 16.168h48.505v37.726h118.568v-37.726h48.505c16.168 0 21.558-5.389 26.947-21.558l43.116-118.568v-156.295zM900.042 286.316h-361.095v37.726h361.095v-37.726zM900.042 561.179h-361.095v37.726h361.095v-37.726z" />
<glyph unicode="&#xe90e;" glyph-name="mail-closed" d="M902.463 836.876h-780.923c-67.017 0-121.54-52.361-121.54-116.719v-544.314c0-64.358 54.523-116.719 121.54-116.719h780.923c67.017 0 121.537 52.361 121.537 116.719v544.314c0 64.358-54.521 116.719-121.537 116.719zM902.463 162.168h-780.923c-9.851 0-18.491 6.389-18.491 13.675v472.338l353.191-298.182c7.241-6.115 16.449-9.481 25.93-9.481l59.65-0.003c9.476 0 18.689 3.369 25.932 9.484l353.207 298.193v-472.354c-0.005-7.281-8.648-13.67-18.496-13.67zM512.001 442.832l-343.522 291h687.044l-343.522-291z" />
<glyph unicode="&#xe90f;" glyph-name="notice-period" d="M736 224l243.2 243.2-166.4 166.4-76.8-76.8v185.6l-224 217.6h-448v-902.4h268.8l-25.6-96 230.4 70.4 25.6 25.6h166.4v166.4zM889.6 467.2l-57.6-57.6-76.8 76.8 57.6 57.6 76.8-76.8zM531.2 857.6l96-96h-96v96zM128 115.2v780.8h345.6v-204.8h204.8v-204.8l-76.8-64v6.4h-403.2v-64h352l-83.2-83.2h-268.8v-64h204.8l-32-25.6-19.2-76.8h-224zM505.6 83.2l-108.8-32 32 108.8 281.6 288 76.8-76.8-281.6-288zM198.4 569.6h403.2v-64h-403.2v64z" />
<glyph unicode="&#xe910;" glyph-name="position" d="M512 960c-281.369 0-512-230.631-512-512s230.631-512 512-512 512 230.631 512 512-230.631 512-512 512zM447.423 604.829c18.45 18.45 41.514 27.676 64.577 27.676s46.126-9.225 64.577-27.676 27.676-41.514 27.676-64.577-9.225-46.126-27.676-64.577-41.514-27.676-64.577-27.676-46.126 9.225-64.577 27.676-27.676 36.901-27.676 64.577 9.225 46.126 27.676 64.577zM696.505 263.495h-369.009v46.126c0 18.45 9.225 36.901 32.288 50.739s46.126 27.676 73.802 32.288 50.739 9.225 73.802 9.225 46.126-4.613 73.802-9.225 50.739-18.45 73.802-32.288 32.288-32.288 32.288-50.739v-46.126z" />
<glyph unicode="&#xe911;" glyph-name="profile-company" d="M415.135 424.937h46.126v-46.126h-46.126v46.126zM322.883 609.441h46.126v-46.126h-46.126v46.126zM415.135 517.189h46.126v-46.126h-46.126v46.126zM322.883 517.189h46.126v-46.126h-46.126v46.126zM322.883 332.685h46.126v-46.126h-46.126v46.126zM322.883 424.937h46.126v-46.126h-46.126v46.126zM415.135 332.685h46.126v-46.126h-46.126v46.126zM502.775 471.063h46.126v-46.126h-46.126v-46.126h46.126v-46.126h-46.126v-46.126h184.505v230.631h-184.505v-46.126zM599.64 471.063h46.126v-46.126h-46.126v46.126zM599.64 378.811h46.126v-46.126h-46.126v46.126zM415.135 609.441h46.126v-46.126h-46.126v46.126zM512 960c-281.369 0-512-230.631-512-512s230.631-512 512-512 512 230.631 512 512-230.631 512-512 512zM738.018 240.432h-461.261v415.135h230.631v-92.252h230.631v-322.883z" />
<glyph unicode="&#xe912;" glyph-name="profile-location" d="M512 572.541c-13.838 0-27.676-4.613-41.514-18.45s-18.45-23.063-18.45-36.901 4.613-27.676 18.45-41.514 23.063-18.45 41.514-18.45 27.676 4.613 41.514 18.45 18.45 23.063 18.45 41.514-9.225 27.676-18.45 41.514-27.676 13.838-41.514 13.838zM512 960c-281.369 0-512-230.631-512-512s230.631-512 512-512 512 230.631 512 512-230.631 512-512 512zM654.991 438.775c-9.225-27.676-23.063-55.351-41.514-83.027s-32.288-46.126-46.126-69.189-27.676-41.514-41.514-50.739l-18.45-18.45c-4.613 4.613-9.225 9.225-18.45 18.45s-18.45 27.676-36.901 50.739-32.288 50.739-46.126 73.802-27.676 50.739-36.901 78.414-18.45 55.351-18.45 78.414c0 46.126 13.838 83.027 46.126 115.315s69.189 46.126 115.315 46.126 83.027-13.838 115.315-46.126 46.126-69.189 46.126-115.315c0-23.063-4.613-50.739-18.45-78.414z" />
<glyph unicode="&#xe913;" glyph-name="profile-sector" d="M512 960c-281.369 0-512-230.631-512-512s230.631-512 512-512 512 230.631 512 512-230.631 512-512 512zM636.541 194.306c-36.901-18.45-78.414-27.676-124.541-27.676-73.802 0-138.378 27.676-189.117 78.414s-78.414 115.315-78.414 189.117c0 69.189 23.063 129.153 69.189 179.892s106.090 78.414 170.667 87.64v-83.027c-46.126-4.613-83.027-27.676-115.315-64.577s-46.126-78.414-46.126-124.541c0-50.739 18.45-96.865 55.351-133.766s83.027-55.351 133.766-55.351c59.964 0 110.703 23.063 147.604 69.189l69.189-41.514c-23.063-27.676-55.351-50.739-92.252-73.802zM761.081 328.072l-69.189 41.514c9.225 23.063 13.838 46.126 13.838 69.189 0 46.126-13.838 87.64-46.126 124.541s-69.189 55.351-115.315 64.577v73.802c69.189-4.613 124.541-36.901 170.667-87.64s69.189-110.703 69.189-179.892c0-36.901-9.225-73.802-23.063-106.090z" />
<glyph unicode="&#xe914;" glyph-name="visa-status" d="M0 825.263v-754.526h1002.442v754.526h-1002.442zM495.832 539.621h307.2v-37.726h-307.2v37.726zM495.832 404.884h312.589v-37.726h-312.589v37.726zM194.021 577.347c16.168 16.168 32.337 21.558 53.895 21.558s43.116-5.389 53.895-21.558 21.558-32.337 21.558-53.895c0-21.558-5.389-43.116-21.558-53.895s-32.337-26.947-53.895-26.947-37.726 5.389-53.895 21.558-21.558 32.337-21.558 53.895c0 26.947 5.389 43.116 21.558 59.284zM409.6 280.926h-317.979v43.116c0 16.168 10.779 32.337 26.947 43.116 21.558 10.779 43.116 21.558 64.674 26.947s43.116 10.779 64.674 10.779c21.558-5.389 43.116-5.389 64.674-10.779s48.505-16.168 64.674-26.947c21.558-16.168 32.337-26.947 32.337-43.116v-43.116zM900.042 297.095h-404.211v37.726h409.6v-37.726zM900.042 431.832h-404.211v37.726h409.6v-37.726zM900.042 566.568h-404.211v43.116h409.6v-43.116z" />
<glyph unicode="&#xe915;" glyph-name="yahoo" d="M824.962 603.35c-24.999-6.666-254.274-184.515-269.511-228.085-3.333-14.999 0.238-161.183 3.571-183.087 14.999-3.333 124.28-0.476 144.279-3.809l-2.381-45.236c-19.523 1.429-158.088 1.19-237.37 1.19-40.236 0-169.278-4.524-209.038-3.333l7.619 43.093c21.666 1.667 111.9-4.047 131.661 17.142 9.761 10.476 6.666 149.279 3.333 172.849-8.333 24.999-209.276 276.654-261.893 317.842h-135.232v63.33h456.407v-4.286c0.476 0 1.19 0 1.667-0.238l-1.667-10.714v-48.093h-137.613c61.426-89.758 149.279-198.086 186.896-249.988l183.801 166.659h-109.281l-15.475 63.33h400.219l-2.857-4.524c0.238 0 0.952 0 1.429 0l-28.57-41.427c-0.238 0-0.714 0-0.952-0.238l-11.428-17.142h-73.806c-9.761-2.143-18.094-4.047-23.808-5.238zM955.432 206.94l-35.236 1.667-39.522 4.762 0.238-67.616 31.189-2.619 33.57-2.381 9.761 66.187zM1024 530.020c-11.904 0.476-120.233 10.714-134.518 13.571l1.667-285.463 61.426-5 71.425 276.892z" />
<glyph unicode="&#xe916;" glyph-name="add" horiz-adv-x="762" d="M677.025 824.595c25.388 0 42.314-8.463 59.24-25.388s25.388-33.851 25.388-59.24v-592.397c0-25.388-8.463-42.314-25.388-59.24s-33.851-25.388-59.24-25.388h-592.397c-25.388 0-42.314 8.463-59.24 25.388s-25.388 42.314-25.388 59.24v592.397c0 25.388 8.463 50.777 25.388 59.24s33.851 25.388 59.24 25.388h592.397zM592.397 401.455v84.628h-169.256v169.256h-84.628v-169.256h-169.256v-84.628h169.256v-169.256h84.628v169.256h169.256z" />
<glyph unicode="&#xe917;" glyph-name="minas" horiz-adv-x="762" d="M677.025 824.595c25.388 0 42.314-8.463 59.24-25.388s25.388-33.851 25.388-59.24v-592.397c0-25.388-8.463-42.314-25.388-59.24s-33.851-25.388-59.24-25.388h-592.397c-25.388 0-42.314 8.463-59.24 25.388s-25.388 42.314-25.388 59.24v592.397c0 25.388 8.463 50.777 25.388 59.24s33.851 25.388 59.24 25.388h592.397zM592.397 401.455v84.628h-423.14v-84.628h423.14z" />
<glyph unicode="&#xe918;" glyph-name="applicants" horiz-adv-x="3281" d="M1309.294 374.129c127.363-132.458 122.269-382.090 122.269-382.090h1844.219v382.090h-1966.488zM3204.458 73.552h-697.95v219.065h697.95v-219.065zM1105.512 623.761c-35.662 0-71.323-30.567-71.323-71.323s30.567-71.323 71.323-71.323c35.662 0 66.229 35.662 66.229 71.323 0 40.756-30.567 71.323-66.229 71.323zM112.080 623.761c-35.662 0-66.229-30.567-66.229-71.323s30.567-71.323 71.323-71.323c35.662 0 66.229 35.662 66.229 71.323 0 40.756-30.567 71.323-71.323 71.323zM901.731 751.124c-56.040 0-101.891-45.851-101.891-106.985 0-56.040 45.851-101.891 101.891-101.891s101.891 45.851 101.891 101.891c0 61.134-45.851 106.985-101.891 106.985zM1217.592 114.308h-117.174v219.065c0 35.662-10.189 71.323-30.567 101.891 10.189 5.095 20.378 5.095 30.567 5.095 61.134 0 112.080-50.945 112.080-117.174v-208.876zM315.861 751.124c-56.040 0-101.891-45.851-101.891-106.985 0-56.040 45.851-101.891 101.891-101.891s101.891 45.851 101.891 101.891c5.095 61.134-40.756 106.985-101.891 106.985zM112.080 445.453c10.189 0 20.378 0 30.567-5.095-15.284-30.567-30.567-66.229-30.567-101.891v-219.065h-112.080v213.97c0 56.040 50.945 112.080 112.080 112.080zM606.249 960c-81.512 0-152.836-71.323-152.836-152.836 0-86.607 66.229-152.836 152.836-152.836 81.512 0 152.836 71.323 152.836 152.836s-66.229 152.836-152.836 152.836zM1064.756 32.796h-178.308v331.144c0 45.851-10.189 86.607-30.567 127.363 10.189 5.095 25.473 10.189 45.851 10.189 91.701 0 163.025-76.418 163.025-168.119v-300.577zM331.144 369.035v-331.144h-178.308v300.577c0 86.607 76.418 163.025 168.119 163.025 15.284 0 30.567-5.095 45.851-5.095-20.378-40.756-35.662-81.512-35.662-127.363zM371.9-64h473.791v427.94c0 132.458-106.985 244.537-239.443 244.537s-239.443-106.985-239.443-244.537v-427.94z" />
<glyph unicode="&#xe919;" glyph-name="probability-success" horiz-adv-x="3315" d="M1201.853 361.768c134.737-140.126 134.737-409.6 134.737-409.6h1983.326v409.6h-2118.063zM3233.684 43.789h-749.137v237.137h749.137v-237.137zM856.926 307.874l-37.726-43.116-37.726 43.116c0 0 0 0 0 0s-10.779 5.389-21.558 16.168c16.168-5.389 37.726-10.779 59.284-10.779 86.232 0 161.684 70.063 161.684 161.684s-70.063 161.684-161.684 161.684c-86.232 0-161.684-70.063-161.684-161.684 0-21.558 5.389-43.116 10.779-59.284-113.179 113.179-280.253 253.305-307.2 75.453h-37.726l291.032-220.968 37.726-37.726c5.389 26.947-5.389-242.526 0-220.968v-75.453h328.758v70.063c5.389-21.558 16.168-43.116 21.558-70.063h129.347c-37.726 177.853-134.737 323.368-274.863 371.874zM819.2-58.611v0l-37.726 53.895 26.947 210.189 5.389 21.558 5.389 32.337 37.726-264.084-37.726-53.895zM420.379 809.095l-123.958 140.126c-10.779 5.389-21.558 10.779-32.337 10.779-5.389 0-16.168-5.389-26.947-10.779l-226.358-215.579c-16.168-16.168-16.168-43.116 0-59.284l123.958-134.737c10.779-5.389 21.558-10.779 32.337-10.779s21.558 5.389 26.947 10.779l37.726 37.726c0 0 5.389-5.389 5.389-5.389 16.168-21.558 43.116-32.337 70.063-32.337v0c5.389 0 16.168 0 21.558 0l80.842 75.453c10.779 32.337 5.389 70.063-21.558 91.621 0 0-5.389 5.389-5.389 5.389l37.726 37.726c16.168 21.558 16.168 43.116 0 59.284zM328.758 631.242c-16.168-10.779-21.558-26.947-21.558-43.116 0 0 0 0 0 0v0c-16.168 0-26.947 5.389-37.726 16.168 0 0-5.389 5.389-5.389 5.389l80.842 75.453c0 0 5.389-5.389 5.389-5.389 10.779-10.779 10.779-21.558 10.779-37.726-10.779 0-21.558-5.389-32.337-10.779z" />
<glyph unicode="&#xe91a;" glyph-name="rank" horiz-adv-x="3697" d="M1073.231 487.385c132.923 0 241.231 108.308 241.231 236.308 0 132.923-108.308 236.308-241.231 236.308s-241.231-108.308-241.231-236.308c0-132.923 108.308-236.308 241.231-236.308zM1132.308 477.538l-59.077-59.077-59.077 59.077c0 0 0 0 0 0-24.615-4.923-285.538-123.077-384-443.077-49.231 128-142.769 231.385-260.923 270.769l-44.308-39.385-39.385 39.385c0 0 0 0 0 0-19.692-4.923-241.231-98.462-285.538-369.231h137.846c4.923 29.538 14.769 49.231 19.692 73.846v-73.846h349.538v73.846c9.846-19.692 14.769-44.308 19.692-73.846h137.846c0 0 0 0 0 0h132.923c9.846 39.385 19.692 73.846 29.538 108.308v-108.308h502.154v108.308c9.846-29.538 19.692-64 29.538-108.308h187.077c-54.154 260.923-201.846 472.615-413.538 541.538zM329.846-54.154v0l-39.385 54.154 34.462 211.692 4.923 19.692 4.923 34.462 39.385-260.923-44.308-59.077zM1073.231-54.154v0l-59.077 78.769 44.308 305.231 4.923 29.538 4.923 49.231 64-384-59.077-78.769zM2141.538 315.077c132.923-132.923 182.154-379.077 182.154-379.077h1373.538v379.077h-1555.692zM3618.462 19.692h-728.615v221.538h728.615v-221.538zM324.923 315.077c93.538 0 167.385 73.846 167.385 162.462s-73.846 162.462-167.385 162.462c-88.615-4.923-167.385-73.846-167.385-167.385 0-88.615 78.769-157.538 167.385-157.538zM1083.077 487.385c132.923 0 241.231 108.308 241.231 236.308-4.923 128-113.231 236.308-241.231 236.308-132.923 0-241.231-108.308-241.231-236.308 0-132.923 108.308-236.308 241.231-236.308zM1826.462 315.077c93.538 0 167.385 73.846 167.385 162.462s-73.846 162.462-167.385 162.462c-93.538 0-167.385-73.846-167.385-162.462 0-93.538 73.846-162.462 167.385-162.462zM1865.846 305.231c0 0 0 0 0 0l-39.385-39.385-44.308 39.385c-118.154-39.385-211.692-137.846-260.923-270.769-98.462 320-359.385 433.231-384 443.077 0 0 0 0 0 0l-59.077-59.077-59.077 59.077c-211.692-68.923-359.385-280.615-413.538-541.538h187.077c9.846 39.385 19.692 73.846 29.538 108.308v-108.308h497.231v108.308c9.846-29.538 19.692-64 29.538-108.308v0h132.923c0 0 0 0 0 0h142.769c4.923 29.538 14.769 49.231 19.692 73.846v-73.846h349.538v73.846c9.846-19.692 14.769-44.308 19.692-73.846v0h137.846c-44.308 270.769-265.846 364.308-285.538 369.231zM1078.154-54.154v0l-59.077 78.769 59.077 384 4.923-49.231 4.923-29.538 44.308-305.231-54.154-78.769zM1826.462-54.154v0l-39.385 54.154 39.385 260.923 4.923-34.462 4.923-19.692 34.462-211.692-44.308-49.231z" />
<glyph unicode="&#xe91b;" glyph-name="views" horiz-adv-x="5080" d="M2746.543 531.349c31.752-555.659-325.457-595.349-325.457-595.349h2659.225v603.287l-2333.767-7.938zM4953.302 63.008h-1095.442v349.271h1095.442v-349.271zM2492.527 539.287h79.38c47.628 0 87.318 47.628 87.318 95.256s-39.69 95.256-87.318 95.256h-158.76c-87.318 127.008-246.078 230.202-420.713 230.202s-333.395-103.194-428.651-222.264h-428.651c-87.318 119.070-246.078 222.264-420.713 222.264-182.574 0-333.395-103.194-428.651-222.264h-198.45c-47.628 0-87.318-47.628-87.318-95.256s39.69-95.256 87.318-95.256h119.070c-7.938-47.628-7.938-71.442-7.938-111.132 0-277.829 230.202-500.093 515.969-500.093s515.969 222.264 515.969 500.093c0 39.69-7.938 63.504-15.876 103.194h269.891c-7.938-39.69-15.876-63.504-15.876-103.194 0-277.829 230.202-500.093 515.969-500.093s515.969 222.264 515.969 500.093c7.938 39.69 0 63.504-7.938 103.194zM714.419 110.636c-182.574 0-333.395 150.822-333.395 325.457 0 182.574 150.822 325.457 333.395 325.457s333.395-150.822 333.395-325.457c0-174.636-150.822-325.457-333.395-325.457zM1992.434 110.636c-182.574 0-333.395 150.822-333.395 325.457 0 182.574 150.822 325.457 333.395 325.457s333.395-150.822 333.395-325.457c0-174.636-150.822-325.457-333.395-325.457z" />
<glyph unicode="&#xe91c;" glyph-name="featured-serch" horiz-adv-x="1054" d="M1031.529 48.941l-180.706 180.706c52.706 75.294 82.824 165.647 82.824 263.529 0 263.529-210.824 466.824-466.824 466.824s-466.824-203.294-466.824-459.294c0-256 210.824-459.294 466.824-459.294 105.412 0 203.294 37.647 286.118 97.882l180.706-180.706c15.059-15.059 30.118-22.588 45.176-22.588s37.647 7.529 45.176 22.588c37.647 22.588 37.647 67.765 7.529 90.353zM752.941 282.353c-15.059-15.059-37.647-37.647-52.706-52.706-60.235-52.706-143.059-82.824-233.412-82.824-195.765 0-361.412 158.118-361.412 353.882s158.118 353.882 361.412 353.882 361.412-158.118 361.412-353.882c0-82.824-30.118-158.118-75.294-218.353zM474.353 320c-22.588 0-45.176 0-67.765 7.529-15.059 7.529-30.118 15.059-45.176 30.118s-22.588 37.647-30.118 60.235c-7.529 22.588-15.059 45.176-15.059 82.824v112.941c0 22.588 7.529 45.176 15.059 60.235s15.059 22.588 30.118 30.118c7.529 0 22.588 7.529 30.118 7.529s15.059 0 22.588 0c7.529 0 15.059 0 22.588 0 22.588 0 37.647 0 52.706-7.529s30.118-15.059 37.647-22.588c7.529-7.529 15.059-22.588 22.588-30.118 7.529-15.059 7.529-22.588 7.529-37.647s0-22.588-7.529-30.118c-7.529-7.529-15.059-22.588-22.588-30.118 7.529-7.529 22.588-7.529 30.118-15.059s15.059-15.059 22.588-22.588c15.059-7.529 15.059-22.588 22.588-30.118 0-15.059 7.529-30.118 7.529-45.176s0-30.118-7.529-45.176-22.588-30.118-30.118-37.647-30.118-22.588-45.176-30.118c-15.059-7.529-37.647-7.529-52.706-7.529zM474.353 372.706c15.059 0 22.588 0 30.118 7.529s15.059 7.529 22.588 15.059 7.529 15.059 15.059 22.588c0 7.529 0 15.059 0 30.118s0 30.118-7.529 37.647c-7.529 7.529-15.059 15.059-22.588 22.588s-22.588 7.529-30.118 7.529c-7.529 0-22.588 0-30.118 0s-15.059 0-22.588 0c-7.529 0-15.059 0-22.588 0s-15.059 0-22.588 0v-22.588c0-22.588 0-45.176 7.529-60.235 0-15.059 7.529-30.118 15.059-37.647s15.059-15.059 30.118-22.588c7.529 0 22.588 0 37.647 0zM384 568.471h45.176c22.588 0 37.647 0 45.176 7.529 15.059 7.529 22.588 22.588 22.588 37.647 0 7.529 0 15.059-7.529 22.588 0 7.529-7.529 7.529-15.059 15.059s-7.529 7.529-15.059 7.529-7.529 7.529-15.059 7.529c-7.529 0-7.529 0-15.059 0s-15.059 0-22.588 0c-7.529-7.529-7.529-7.529-15.059-15.059-7.529 0-7.529-7.529-7.529-15.059v-67.765z" />
<glyph unicode="&#xe91d;" glyph-name="car" d="M982.656 517.172c-1.224 2.104-28.426 53.387-89.33 107.589-55.931 49.775-152.294 111.84-293.708 124.843-113.702 10.453-218.866-25.436-304.157-103.787-63.927-58.723-94.034-120.217-95.284-122.805-0.002-0.007-0.005-0.012-0.007-0.019-47.028-0.139-78.262-0.221-84.661-0.221-135.167 0-173.646-259.081 5.052-259.081 11.972 0-40.475-0.843 16.026-0.843 2.078 74.19 63.032 133.911 137.711 133.911 74.685 0 135.639-59.726 137.72-133.911 75.402 0 155.556 0 231.975 0 2.081 74.622 63.382 134.695 138.5 134.695 74.986 0 136.208-59.862 138.49-134.303 167.005 10.61 86.719 210.714 61.675 253.93zM254.238 523.156c13.257 21.298 37.803 56.017 74.225 89.199 59.81 54.489 128.082 84.946 203.596 90.979v-179.318c-100.995-0.319-200.987-0.629-277.821-0.86zM572.131 433.666h-49.606c-6.446 0-11.672 5.225-11.672 11.672s5.225 11.674 11.672 11.674h20.291c1.426-0.442 2.94-0.679 4.514-0.679 1.571 0 3.081 0.24 4.511 0.679h20.295c6.446 0 11.672-5.228 11.672-11.674s-5.23-11.672-11.676-11.672zM562.589 524.112v180.318c10.777-0.066 21.676-0.578 32.726-1.595 62.431-5.74 119.916-21.942 171.909-48.326v-129.749c-62.342-0.202-133.176-0.425-204.634-0.648zM797.751 524.854v112.601c22.066-13.501 43.038-28.98 62.849-46.45 27.493-24.245 47.511-47.988 60.714-65.756-31.26-0.099-73.978-0.235-123.563-0.395zM274.296 373.281c-63.037 0-114.327-51.29-114.327-114.334 0-63.042 51.29-114.329 114.327-114.329 63.042 0 114.332 51.288 114.332 114.329-0.002 63.044-51.292 114.334-114.332 114.334zM274.296 198.923c-33.094 0-60.019 26.93-60.019 60.026 0 33.101 26.925 60.026 60.019 60.026 33.099 0 60.024-26.925 60.024-60.026-0.002-33.097-26.927-60.026-60.024-60.026zM782.486 373.281c-63.042 0-114.332-51.29-114.332-114.334 0-63.042 51.29-114.329 114.332-114.329 63.046 0 114.332 51.288 114.332 114.329 0 63.044-51.285 114.334-114.332 114.334zM782.486 198.923c-33.094 0-60.024 26.93-60.024 60.026 0 33.101 26.93 60.026 60.024 60.026 33.099 0 60.024-26.925 60.024-60.026 0-33.097-26.925-60.026-60.024-60.026z" />
<glyph unicode="&#xe91e;" glyph-name="my-jobs" horiz-adv-x="1458" d="M682.667 312.889c0 49.778 7.111 99.556 28.444 142.222h241.778v71.111c-49.778 28.444-85.333 78.222-106.667 135.111h-184.889v92.444c0 28.444-7.111 49.778-28.444 64-14.222 21.333-35.556 28.444-64 28.444h-192c-28.444 0-49.778-7.111-71.111-28.444-14.222-14.222-21.333-35.556-21.333-64v-92.444h-192c-28.444 0-49.778-7.111-71.111-28.444s-21.333-42.667-21.333-71.111v-519.111c0-28.444 7.111-49.778 28.444-71.111s42.667-28.444 71.111-28.444h753.778c14.222 0 28.444 0 42.667 7.111-128 78.222-213.333 213.333-213.333 362.667zM568.889 661.333h-192v92.444h192v-92.444zM1436.444 440.889h-704c-14.222-42.667-21.333-85.333-21.333-128 0-206.222 170.667-376.889 376.889-376.889s376.889 170.667 376.889 376.889c-7.111 42.667-14.222 85.333-28.444 128zM1080.889 7.111c-163.556 0-298.667 135.111-298.667 298.667 0 21.333 0 35.556 7.111 56.889h583.111c0-21.333 7.111-35.556 7.111-56.889 0-163.556-135.111-298.667-298.667-298.667zM1095.111 960c-128 0-227.556-99.556-227.556-227.556s99.556-227.556 227.556-227.556 227.556 99.556 227.556 227.556-99.556 227.556-227.556 227.556zM1095.111 576c-85.333 0-156.444 71.111-156.444 156.444s71.111 156.444 156.444 156.444 156.444-71.111 156.444-156.444-71.111-156.444-156.444-156.444z" />
<glyph unicode="&#xe91f;" glyph-name="saved-jobs" horiz-adv-x="1349" d="M1134.703 960h-643.459c-34.595 0-62.27-13.838-83.027-34.595s-27.676-41.514-27.676-76.108v-256h27.676c20.757 0 34.595-6.919 55.351-20.757s13.838-27.676 13.838-48.432v-76.108h145.297c20.757 0 34.595-6.919 55.351-20.757 13.838-13.838 20.757-34.595 20.757-55.351v-380.541h546.595c27.676 0 55.351 13.838 76.108 34.595s34.595 48.432 34.595 76.108v643.459l-221.405 214.486zM982.486 143.568c-34.595-34.595-69.189-48.432-117.622-48.432s-83.027 13.838-117.622 48.432c-34.595 34.595-48.432 69.189-48.432 110.703s13.838 83.027 48.432 117.622 69.189 48.432 117.622 48.432 83.027-13.838 117.622-48.432 48.432-69.189 48.432-117.622-20.757-76.108-48.432-110.703zM1024 634.811h-532.757v214.486h539.676v-214.486zM588.108 427.243c13.838 0 34.595-6.919 41.514-20.757 13.838-13.838 20.757-27.676 20.757-48.432v-359.784c0-20.757-6.919-34.595-20.757-48.432s-27.676-20.757-48.432-20.757h-518.919c-20.757 0-34.595 6.919-48.432 20.757s-13.838 34.595-13.838 55.351v359.784c0 13.838 6.919 27.676 20.757 41.514s27.676 20.757 48.432 20.757h131.459v69.189c0 13.838 6.919 34.595 20.757 48.432s27.676 20.757 48.432 20.757h131.459c20.757 0 34.595-6.919 48.432-20.757s20.757-27.676 20.757-48.432v-62.27h117.622zM387.459 427.243v69.189h-124.541v-62.27h124.541z" />
<glyph unicode="&#xe920;" glyph-name="saved-searches" horiz-adv-x="1217" d="M1041.554 960h-532.48c-29.257 0-46.811-5.851-64.366-23.406s-29.257-40.96-29.257-64.366v-210.651c29.257-11.703 52.663-29.257 76.069-52.663 52.663-52.663 81.92-117.029 81.92-193.097 0-70.217-23.406-128.731-64.366-175.543l11.703-11.703h35.109l64.366-64.366h509.074c23.406 0 46.811 5.851 64.366 23.406s23.406 40.96 23.406 64.366v532.48l-175.543 175.543zM912.823 287.086c-23.406-23.406-58.514-40.96-93.623-40.96s-70.217 11.703-93.623 40.96c-23.406 23.406-40.96 58.514-40.96 93.623s11.703 70.217 40.96 93.623c23.406 29.257 58.514 40.96 93.623 40.96s70.217-11.703 93.623-40.96c23.406-29.257 40.96-58.514 40.96-93.623s-17.554-70.217-40.96-93.623zM953.783 690.834h-444.709v175.543h444.709v-175.543zM526.629 211.017l204.8-210.651-64.366-64.366-204.8 210.651v35.109l-11.703 11.703c-52.663-40.96-111.177-64.366-175.543-64.366-76.069 0-140.434 29.257-193.097 81.92-58.514 52.663-81.92 122.88-81.92 193.097 0 76.069 29.257 140.434 81.92 193.097s117.029 76.069 193.097 76.069c76.069 0 140.434-23.406 193.097-81.92 52.663-52.663 76.069-117.029 76.069-193.097 0-64.366-23.406-128.731-70.217-175.543l11.703-11.703h40.96zM140.434 269.531c35.109-35.109 81.92-58.514 134.583-58.514s99.474 17.554 134.583 52.663 58.514 81.92 58.514 134.583c0 52.663-17.554 99.474-52.663 134.583s-81.92 58.514-134.583 58.514c-52.663 0-99.474-17.554-134.583-52.663s-58.514-81.92-58.514-134.583c-5.851-52.663 11.703-99.474 52.663-134.583z" />
<glyph unicode="&#xe921;" glyph-name="suggestedjobs" horiz-adv-x="1260" d="M0 346.947c74.105 6.737 148.211 20.211 222.316 33.684 6.737 0 6.737 0 6.737-6.737 13.474-67.368 26.947-134.737 40.421-208.842 13.474-53.895 20.211-107.789 33.684-161.684 0-6.737 0-6.737 0-13.474-40.421-6.737-80.842-13.474-121.263-20.211-60.632-13.474-128-20.211-188.632-33.684 6.737 134.737 6.737 269.474 6.737 410.947zM592.842 320c20.211 0 40.421 0 53.895-6.737 74.105-6.737 141.474-6.737 215.579-13.474 6.737 0 13.474 0 13.474 0 101.053 33.684 202.105 74.105 303.158 114.526 13.474 6.737 33.684 6.737 47.158 0 20.211-6.737 26.947-20.211 26.947-40.421 0-13.474-6.737-26.947-20.211-33.684-107.789-67.368-215.579-128-323.368-195.368-33.684-20.211-74.105-26.947-114.526-26.947-128 0-256 0-384 6.737-26.947 0-47.158-6.737-67.368-26.947-13.474-13.474-20.211-26.947-33.684-40.421-20.211 107.789-33.684 208.842-53.895 309.895 6.737 0 6.737 6.737 13.474 6.737 74.105 26.947 134.737 47.158 195.368 67.368 6.737 0 13.474 6.737 26.947 6.737 107.789 6.737 215.579 6.737 323.368 13.474 13.474 0 26.947-6.737 33.684-20.211 13.474-20.211 6.737-47.158-20.211-53.895-20.211-6.737-40.421-13.474-60.632-13.474-60.632-20.211-107.789-33.684-161.684-47.158-6.737 0-6.737 0-13.474-6.737 0 6.737 0 0 0 0zM963.368 865.684c13.474 0 26.947-6.737 33.684-13.474s13.474-20.211 13.474-33.684v-256c0-13.474-6.737-26.947-13.474-33.684s-20.211-13.474-33.684-13.474h-377.263c-13.474 0-26.947 6.737-33.684 13.474-6.737 13.474-13.474 20.211-13.474 33.684v256c0 13.474 6.737 26.947 13.474 33.684s20.211 13.474 33.684 13.474h94.316v47.158c0 13.474 6.737 20.211 13.474 33.684 13.474 6.737 20.211 13.474 33.684 13.474h94.316c13.474 0 26.947-6.737 33.684-13.474s13.474-20.211 13.474-33.684v-47.158h94.316zM821.895 865.684v47.158h-94.316v-47.158h94.316z" />
<glyph unicode="&#xe922;" glyph-name="featured-serch3" horiz-adv-x="1054" d="M1031.529 48.941l-180.706 180.706c52.706 75.294 82.824 165.647 82.824 263.529 0 263.529-210.824 466.824-466.824 466.824s-466.824-203.294-466.824-459.294c0-256 210.824-459.294 466.824-459.294 105.412 0 203.294 37.647 286.118 97.882l180.706-180.706c15.059-15.059 30.118-22.588 45.176-22.588s37.647 7.529 45.176 22.588c37.647 22.588 37.647 67.765 7.529 90.353zM752.941 282.353c-15.059-15.059-37.647-37.647-52.706-52.706-60.235-52.706-143.059-82.824-233.412-82.824-195.765 0-361.412 158.118-361.412 353.882s158.118 353.882 361.412 353.882 361.412-158.118 361.412-353.882c0-82.824-30.118-158.118-75.294-218.353zM474.353 320c-22.588 0-45.176 0-67.765 7.529-15.059 7.529-30.118 15.059-45.176 30.118s-22.588 37.647-30.118 60.235c-7.529 22.588-15.059 45.176-15.059 82.824v112.941c0 22.588 7.529 45.176 15.059 60.235s15.059 22.588 30.118 30.118c7.529 0 22.588 7.529 30.118 7.529s15.059 0 22.588 0c7.529 0 15.059 0 22.588 0 22.588 0 37.647 0 52.706-7.529s30.118-15.059 37.647-22.588c7.529-7.529 15.059-22.588 22.588-30.118 7.529-15.059 7.529-22.588 7.529-37.647s0-22.588-7.529-30.118c-7.529-7.529-15.059-22.588-22.588-30.118 7.529-7.529 22.588-7.529 30.118-15.059s15.059-15.059 22.588-22.588c15.059-7.529 15.059-22.588 22.588-30.118 0-15.059 7.529-30.118 7.529-45.176s0-30.118-7.529-45.176-22.588-30.118-30.118-37.647-30.118-22.588-45.176-30.118c-15.059-7.529-37.647-7.529-52.706-7.529zM474.353 372.706c15.059 0 22.588 0 30.118 7.529s15.059 7.529 22.588 15.059 7.529 15.059 15.059 22.588c0 7.529 0 15.059 0 30.118s0 30.118-7.529 37.647c-7.529 7.529-15.059 15.059-22.588 22.588s-22.588 7.529-30.118 7.529c-7.529 0-22.588 0-30.118 0s-15.059 0-22.588 0c-7.529 0-15.059 0-22.588 0s-15.059 0-22.588 0v-22.588c0-22.588 0-45.176 7.529-60.235 0-15.059 7.529-30.118 15.059-37.647s15.059-15.059 30.118-22.588c7.529 0 22.588 0 37.647 0zM384 568.471h45.176c22.588 0 37.647 0 45.176 7.529 15.059 7.529 22.588 22.588 22.588 37.647 0 7.529 0 15.059-7.529 22.588 0 7.529-7.529 7.529-15.059 15.059s-7.529 7.529-15.059 7.529-7.529 7.529-15.059 7.529c-7.529 0-7.529 0-15.059 0s-15.059 0-22.588 0c-7.529-7.529-7.529-7.529-15.059-15.059-7.529 0-7.529-7.529-7.529-15.059v-67.765z" />
<glyph unicode="&#xe923;" glyph-name="my-jobs2" horiz-adv-x="1458" d="M682.667 312.889c0 49.778 7.111 99.556 28.444 142.222h241.778v71.111c-49.778 28.444-85.333 78.222-106.667 135.111h-184.889v92.444c0 28.444-7.111 49.778-28.444 64-14.222 21.333-35.556 28.444-64 28.444h-192c-28.444 0-49.778-7.111-71.111-28.444-14.222-14.222-21.333-35.556-21.333-64v-92.444h-192c-28.444 0-49.778-7.111-71.111-28.444s-21.333-42.667-21.333-71.111v-519.111c0-28.444 7.111-49.778 28.444-71.111s42.667-28.444 71.111-28.444h753.778c14.222 0 28.444 0 42.667 7.111-128 78.222-213.333 213.333-213.333 362.667zM568.889 661.333h-192v92.444h192v-92.444zM1436.444 440.889h-704c-14.222-42.667-21.333-85.333-21.333-128 0-206.222 170.667-376.889 376.889-376.889s376.889 170.667 376.889 376.889c-7.111 42.667-14.222 85.333-28.444 128zM1080.889 7.111c-163.556 0-298.667 135.111-298.667 298.667 0 21.333 0 35.556 7.111 56.889h583.111c0-21.333 7.111-35.556 7.111-56.889 0-163.556-135.111-298.667-298.667-298.667zM1095.111 960c-128 0-227.556-99.556-227.556-227.556s99.556-227.556 227.556-227.556 227.556 99.556 227.556 227.556-99.556 227.556-227.556 227.556zM1095.111 576c-85.333 0-156.444 71.111-156.444 156.444s71.111 156.444 156.444 156.444 156.444-71.111 156.444-156.444-71.111-156.444-156.444-156.444z" />
<glyph unicode="&#xe924;" glyph-name="family-benefits" d="M477.265 705.586c-12.949 6.547-28.754 1.356-35.299-11.592l-45.937-90.866c0 0-112.807-3.638-153.874-15.257-19.299-5.46-40.606-14.257-46.186-33.517-6.251-21.58-0.487-45.382 14.976-61.685 0 0 35.593-40.508 18.278-119.428-10.967-49.987 4.538-87.125 21.438-105.045 4.42-12.791 7.445-25.887 10.236-39.109 2.965-17.628 5.244-35.169 6.031-53.047 0.82-18.64-0.184-37.129-1.576-55.708-0.555-4.851-1.104-9.681-1.65-14.477-1.801-12.077-3.785-24.069-6.371-36.005-2.54-11.725-5.706-23.239-8.977-34.771-5.199-18.33-12.284-36.063-19.454-53.687l-0.532-1.315c-6.356-15.775 1.118-34.264 16.584-41.281 15.355-6.965 34.020-0.484 41.79 14.466 9.543 18.365 18.963 36.848 26.605 56.111 9.582 24.15 17.914 48.668 24.113 73.911 2.081 8.468 3.868 16.978 5.654 25.508 3.764 21.781 6.903 43.544 8.038 65.642 1.106 21.512 0.721 43.008-1.11 64.468 22.806-47.946 39.798-98.661 49.095-150.978 2.547-14.34 4.271-28.763 5.808-43.237 1.027-14.313 1.863-28.579 1.851-42.933-0.008-9.634-0.393-19.239-0.803-28.864l-0.068-1.578c-0.669-16.934 12.506-31.8 29.371-33.26 17.011-1.474 32.581 11.172 34.659 28.115 1.311 10.681 2.623 21.34 3.485 32.069 1.329 16.584 1.704 33.134 1.826 49.763-0.692 26.313-2.398 52.443-6.141 78.52-3.795 26.452-9.288 52.656-16.261 78.454-12.065 44.643-28.572 88.195-49.165 129.602-0.164 2.551-0.416 5.114-0.807 7.688-2.538 16.725-5.193 33.355-8.547 49.937-4.226 20.887-10.021 41.264-16.326 61.604-4.114 11.423-8.298 22.742-13.044 33.916-4.814 11.338-10.323 22.326-16.294 33.094l79.373 22.941c8.309 2.456 15.423 8.605 18.783 17.311l43.088 111.606c4.741 12.423-0.534 26.781-12.659 32.912-12.951 6.547 12.125-6.131 0 0zM277.7 676.151c0 37.608-24.727 71.971-60.428 83.856-35.956 11.969-76.553-0.957-99.046-31.409-22.56-30.539-22.773-73.431-0.511-104.189 22.262-30.763 62.89-44.063 99.030-32.285 35.759 11.653 60.71 45.85 60.952 83.441 0.004 0.195 0.004 0.391 0.004 0.586 0 48.805 0-48.797 0 0zM581.295 709.404l-51.908 102.684c-7.218 14.158-24.97 20.239-39.32 13.383-13.806-6.594-20.38-23.208-14.874-37.471l48.691-126.124c3.58-9.11 11.265-16.682 21.396-19.609l69.42-20.063c-20.837-37.958-34.187-79.733-42.624-122.087-3.793-19.036-6.596-38.264-8.584-57.569-1.052-10.193-1.874-20.402-2.495-30.628-0.652-10.81-1.555-21.798-0.954-32.624-21.582-48.070-38.31-98.036-50.337-149.328-5.748-24.51-9.986-49.438-13.025-74.423-2.971-24.425-4.267-48.883-4.913-73.466 0.135-18.491 0.509-36.902 1.994-55.341 0.998-12.425 2.491-24.765 4.008-37.138 2.404-19.16 20.088-33.485 39.335-31.757 19.056 1.71 33.825 18.609 33.015 37.715l-0.070 1.64c-0.449 10.652-0.901 21.274-0.907 31.937-0.010 16.452 0.909 32.798 2.091 49.204 2.787 26.2 6.588 52.132 12.419 77.847 5.994 26.423 13.704 52.463 22.932 77.94 6.861 18.947 14.58 37.57 23.023 55.867 0.979-0.302 1.957-0.605 2.948-0.88-1.7-22.779-1.681-45.722-0.294-68.518 1.427-23.5 4.832-46.643 8.841-69.816 5.464-26.086 11.777-51.933 20.479-77.156 8.305-24.063 18.025-47.469 28.933-70.462 4.514-9.514 9.445-18.804 14.294-28.144 8.977-17.135 30.616-24.371 48.059-15.961 17.042 8.22 24.972 28.893 17.845 46.409l-0.545 1.338c-7.7 18.92-15.276 37.933-21.086 57.54-7.536 25.456-13.483 51.182-17.4 77.447-0.282 1.886-0.561 3.774-0.841 5.663-0.621 5.416-1.244 10.876-1.865 16.359-1.574 20.957-2.706 41.813-1.785 62.84 0.89 20.241 3.468 40.105 6.822 60.060 2.29 10.851 4.681 21.613 7.77 32.272 1.431 4.948 3.046 9.837 4.768 14.694 0.81 2.284 7.338 19.456 7.775 21.638 1.899 6.1 3.215 12.379 3.915 18.731 0.716 6.478 0.696 13.027 1.019 19.533 0.588 11.752 1.526 23.489 2.907 35.177 2.147 18.183 5.336 36.285 10.158 53.958 4.915 18.017 11.336 36.616 21.974 52.157 0.797 1.159 1.588 2.333 2.505 3.393 31.125 35.856 40.399 68.4 27.97 105.606-12.437 37.225-46.687 53.602-85.729 57.221-39.322 3.642-157.75 8.307-157.75 8.307zM823.048 894.027c-37.349 0-72.336-21.551-89.17-54.888-17.069-33.79-13.164-75.53 9.831-105.585 22.914-29.951 61.689-44.629 98.707-37.355 36.326 7.139 66.462 34.858 76.648 70.447 10.4 36.341-1.085 76.371-29.133 101.68-18.257 16.47-42.301 25.701-66.882 25.701zM404.656 703.352l0.735 0.48c8.408 5.512 16.688 11.178 23.986 18.135 8.623 8.218 15.524 18.019 20.028 29.067 5.841 14.771 6.853 30.055 7.977 45.656 0.499 6.932 0.992 13.864 1.509 20.794 0.282 3.752 0.174 7.851 0.992 11.539 34.659 0.803 55.445 16.319 65.132 18.466 7.331-15.127 14.766-30.193 23.709-44.453 5.371-8.561 11.222-16.907 18.061-24.369 3.422-3.735 6.944-7.36 11.891-8.965 4.94-1.603 10.433-1.184 15.069 1.157 7.462 3.774 11.81 12.079 10.686 20.357-1.226 9.015-9.025 14.317-14.559 20.8-11.953 14-21.218 30.21-28.761 46.948 4.745 4.379 8.474 9.797 10.864 15.864 15.731-15.079 40.13-18.052 59.016-7.197 16.222 9.323 25.98 27.641 24.686 46.304-1.321 19.038-13.847 35.978-31.649 42.827-18.355 7.064-39.78 2.333-53.422-11.864-5.592-5.82-9.717-13.005-11.942-20.763-8.135 6.427-18.599 9.949-29.752 9.122h-0.012c-22.551-1.671-45.585-6.83-66.497-15.475-23.338-9.648-44.119-24.425-56.323-47.047-2.652-4.921-5.319-10.288-6.675-15.742-1.222-4.905-1.232-10.062-0.745-15.067 0.625-6.449 2.286-12.617 3.917-18.858 1.71-6.541 3.046-13.191 4.056-19.874 1.605-10.615 2.973-22.309 0.865-32.947-1.207-6.089-4.425-11.222-9.021-15.344-2.458-2.203-5.213-4.077-8.091-5.683-1.28-0.712-2.588-1.371-3.919-1.975-0.669-0.304-1.853-1.091-2.611-1.091-12.657-4.903-18.578-20.052-12.267-32.158 6.222-11.922 21.812-16.019 33.069-8.644z" />
<glyph unicode="&#xe925;" glyph-name="flight-tickets" d="M860.040 873.71c-47.119-1.194-90.981 25.514-111.5 67.964-6.731 13.788-22.040 21.062-36.913 17.371l-163.613-39.628 432.214-432.213-87.724 361.643c-3.692 14.874-17.155 25.297-32.463 24.862zM1010.517 374.402c8.252 12.92 6.514 29.856-4.343 40.713l-518.633 518.742c-6.298 6.297-14.657 9.554-23.017 9.554-6.081 0-12.16-1.737-17.588-5.211-19.868-12.811-42.559-19.108-65.25-19.108s-45.49 6.406-65.251 19.108c-5.428 3.474-11.508 5.211-17.588 5.211-8.36 0-16.72-3.257-23.017-9.554l-257.96-257.743c-10.857-10.857-12.703-27.794-4.343-40.605 25.514-39.628 25.514-90.981 0-130.609-8.251-12.92-6.514-29.748 4.343-40.605l518.742-518.743c6.298-6.297 14.657-9.554 23.017-9.554 6.081 0 12.16 1.737 17.588 5.211 19.868 12.811 42.559 19.109 65.25 19.109s45.49-6.406 65.251-19.109c5.428-3.474 11.508-5.211 17.588-5.211 8.359 0 16.719 3.257 23.016 9.554l257.743 257.743c10.857 10.857 12.594 27.902 4.234 40.822-24.645 38.433-25.298 87.832-2.063 126.809 0.87 1.195 1.63 2.281 2.281 3.475zM754.621 523.25l-195.208-87.507 54.176-54.175h96.735c2.931 0 5.646-1.195 7.709-3.149l14.44-14.44c5.428-5.428 3.691-14.657-3.366-17.697l-86.422-37.023-37.239-86.421c-3.040-7.057-12.268-8.795-17.697-3.367l-14.44 14.441c-2.063 2.062-3.149 4.776-3.149 7.708v96.735l-54.176 54.176-87.506-195.316c-3.149-6.947-12.16-8.576-17.588-3.257l-21.28 21.281c-2.389 2.389-3.474 5.646-3.149 9.011l31.919 265.776-78.713 78.713c-0.869 0.869-1.629 1.954-2.171 3.149l-23.452 51.462c-4.126 9.12 5.212 18.565 14.331 14.331l51.462-23.451c1.194-0.543 2.28-1.303 3.147-2.171l78.713-78.713 265.777 31.919c3.257 0.434 6.623-0.76 9.011-3.149l21.28-21.28c5.43-5.32 3.801-14.44-3.146-17.588z" />
<glyph unicode="&#xe926;" glyph-name="graduates-programe" d="M621.1 199.52c-27.325 18.329-261.338 177.716-324.414 289.267l-3.458 6.143-7.117 0.269c-54.315 2.216-96.546-29.205-114.639-45.453-7.385 7.486-14.905 15.173-22.592 23.096l-9.164 9.399-9.097-9.467c-35.617-36.96-51.361-71.335-46.863-102.319 3.659-25.143 20.847-47.031 49.716-63.379 5.203-2.954 65.46-43.942 130.954-96.243-11.313-11.548-52.435-38.168-67.34-48.776-16.751-11.884-86.542-75.229-86.542-75.229l45.084-10.641 15.61-30.481c0 0 21.417 52.435 44.916 78.317s64.554 46.561 64.554 46.561-22.189-31.689-38.101-62.439c-15.878-30.75-19.94-84.058-19.94-84.058l27.56 8.728 19-41.425c0 0 5.069 58.545 16.751 96.68 9.433 30.85 32.562 60.089 41.156 70.328 83.051-73.114 169.827-161.402 187.183-179.227 10.474-12.018 24.036-20.88 41.693-24.808 6.311-1.376 12.723-2.048 18.967-2.048 35.919 0 70.026 22.391 91.98 61.6 25.647 45.621 32.864 115.781-11.649 161.871-12.186 12.723-23.734 19.94-34.207 23.734zM268.958 239.702c-60.089 47.266-114.908 84.897-122.897 89.429-22.122 12.521-34.61 27.661-37.128 44.983-2.954 20.343 7.52 44.312 31.152 71.368 58.78-60.156 109.033-107.892 151.7-145.859-19.302-31.32-22.693-48.138-22.827-59.921zM306.287 320.806c-33.871 30.112-72.644 66.602-116.821 110.846 15.006 13.126 48.004 37.262 88.858 38.236 21.35-35.013 56.732-73.45 96.613-110.645-20.746-2.115-46.661-11.179-68.649-38.437zM332.102 187.77c2.148 16.248 7.184 38.638 18.53 61.7 74.725-60.861 117.157-83.118 135.721-90.939-2.887-21.417-7.755-70.764 0.705-115.881-40.115 39.679-99.097 96.68-154.956 145.12zM644.935 26.234c-15.811-28.165-45.99-55.389-83.353-47.131-64.151 14.166-56.799 138.809-48.541 185.639l2.081 11.85-11.783 2.753c-0.504 0.134-40.418 11.346-139.044 91.879 18.53 21.552 48.206 31.186 70.764 35.449 55.692-46.225 111.148-86.173 144.281-109.302-1.007-0.504-1.947-0.974-2.786-1.511-38.202-21.686-54.147-84.427-45.856-114.472 9.735-35.349 33.334-58.041 58.176-57.571 10.608 0.403 36.456 6.378 45.889 53.577l1.477 7.352-5.673 4.8c-35.852 30.515-55.255 48.541-64.52 57.571 5.908 11.481 13.696 21.451 23.062 26.755 14.2 7.99 30.347 2.753 48.105-15.677 35.416-36.859 28.836-94.263 7.721-131.961zM608.143 75.179c-4.431-16.080-11.85-25.748-20.276-25.983-0.101 0-0.235 0-0.403 0-10.541 0-25.345 13.461-32.361 38.907-2.249 8.124-1.611 20.242 1.41 32.864 10.507-9.836 26.923-24.673 51.63-45.789zM200.040 670.934l-40.149-128.604c0 0 164.087-15.945 300.714-58.545 136.694-42.7 280.673-122.965 280.673-122.965l40.82 130.887c0 0-122.629 123.602-268.689 169.19-145.993 45.554-313.37 10.037-313.37 10.037zM1024 489.76l-47.769 50.119 4.7 15.207c0 0 42.096 77.411-63.916 63.11-5.505-1.074-8.795-2.853-10.641-5.069l-315.451 330.692-590.922-130.417 162.509-145.154 8.728 27.963c0 0 186.679 39.578 349.457-11.212 162.811-50.858 299.573-188.66 299.573-188.66l-15.207-48.776 122.058 23.566c-20.343-65.057-43.707-140.018-50.992-163.214l-34.744 10.876-25.244-80.768 56.262 17.523 41.357-48.038 25.177 80.768-37.564 11.783 55.188 176.776 67.441 12.924zM954.041 507.854c-4.196-13.495-18.564-21.014-32.059-16.818-13.495 4.23-21.048 18.564-16.852 32.059 4.263 13.495 18.631 21.014 32.092 16.818s21.014-18.597 16.818-32.059zM930.207 588.152c13.327 3.961 35.953 8.057 29.944-11.212-0.604-1.88-2.249-7.318-4.8-15.207l-25.143 26.419z" />
<glyph unicode="&#xe927;" glyph-name="medical-insurance" d="M537.518 908.715c0-28.324-22.961-51.285-51.285-51.285s-51.285 22.961-51.285 51.285c0 28.324 22.961 51.285 51.285 51.285s51.285-22.961 51.285-51.285zM809.24 908.715c0-28.324-22.961-51.285-51.285-51.285s-51.285 22.961-51.285 51.285c0 28.324 22.961 51.285 51.285 51.285s51.285-22.961 51.285-51.285zM910.758 862.068c-26.057 45.131-72.724 72.073-124.839 72.073v-50.863c33.727 0 63.925-17.436 80.791-46.642 16.866-29.211 16.866-64.083 0.005-93.293l-163.383-282.983c-16.861-29.206-47.064-46.642-80.791-46.647-33.727 0-63.93 17.436-80.796 46.647l-163.378 282.988c-16.861 29.206-16.861 64.083 0 93.288s47.069 46.647 80.796 46.647v50.863c-52.115 0-98.787-26.942-124.844-72.078s-26.057-99.021 0-144.152l163.378-282.983c21.729-37.634 57.811-62.557 99.412-69.82v-136.476c0-133.318-78.701-241.779-175.438-241.779s-175.433 108.461-175.433 241.779v162.498c57.933 11.81 101.666 63.162 101.666 124.544 0 70.085-57.018 127.102-127.102 127.102s-127.102-57.018-127.102-127.102c0-61.377 43.732-112.728 101.671-124.544v-162.498c0-161.364 101.518-292.642 226.301-292.642 124.778 0 226.296 131.278 226.296 292.642v136.476c41.596 7.263 77.683 32.186 99.407 69.82l163.383 282.983c26.062 45.131 26.062 99.021 0 144.152z" />
<glyph unicode="&#xe928;" glyph-name="pet-friendly" d="M726.319 340.119l-12.115 21.345c-19.615 48.171-18.461 45.864-19.903 47.594-2.308 4.327-5.481 8.077-9.23 11.25v0l-8.365 47.306c-0.288 1.731-1.442 2.885-3.173 3.461s-3.173 0-4.327-1.154c-7.788-8.077-20.768-23.941-25.384-43.268l-44.133-17.884c-3.173-1.154-5.481-3.75-6.346-6.923s-0.577-6.634 1.442-9.23l8.654-12.692-38.941-15.865c-2.885-1.154-4.904-3.75-5.769-6.634v0c-0.865-2.885 0-6.057 1.731-8.654l17.595-21.922c11.25-13.846 30.287-18.749 46.729-12.115l27.691 11.25 27.114-87.689c-0.865-5.769-1.442-11.826-1.442-18.172 0.288-33.749 15.865-62.594 38.652-76.728l22.499-129.803c0.865-5.769 6.634-9.807 12.403-8.654 4.615 0.865 8.077 4.615 8.942 8.942l19.903 130.668c6.346 4.327 12.115 9.807 17.019 16.153l115.38 1.154c4.615-17.884 12.98-48.748 20.48-65.478 9.23-20.192 16.73-20.192 32.018-25.672-0.288 0 0.577-0.288-0.577 0.288 0.288-0.288 1.154-0.577 1.731-0.577 0 0 0 0.288 0 0.288-0.288 0.577 3.173 0 5.481-2.308 2.019-2.019 0 2.019 19.903-53.363 2.308-6.057 8.942-9.23 14.999-6.923 4.904 1.731 7.788 6.346 7.788 11.538-1.731 54.517 1.154 67.786-15.288 85.67-4.327 5.192-8.654 7.5-12.692 10.673 0 2.885-1.442 28.268 4.615 97.785 0.865 10.384 2.885 20.48-3.461 33.749l29.999 26.537c5.481 4.904 5.769 12.98 1.154 18.461-4.038 4.615-10.673 5.481-15.865 2.596l-40.095-22.211c-9.807 8.077-21.922 13.557-34.614 15.288l-181.435 32.018zM310.661 789.814c0-56.554-45.846-102.4-102.4-102.4s-102.4 45.846-102.4 102.4c0 56.554 45.846 102.4 102.4 102.4s102.4-45.846 102.4-102.4zM280.374 392.329v66.344c27.691-21.345 65.19-31.153 121.726-31.153 14.423 0 30.287 0.577 47.594 2.019 21.922 1.731 38.364 20.768 36.633 42.691s-20.768 38.364-42.691 36.633c-122.015-8.942-137.879 33.749-167.59 113.361-10.384 29.134-39.229 48.748-66.632 55.671 0 0-10.673 3.173-22.211 2.885-10.961-0.288-23.365-2.885-23.365-2.885h-0.288c-34.614-8.365-71.247-36.345-71.247-78.459v-226.434c0-49.037 33.46-75.286 78.747-75.286 0.577 0 63.171 0 63.171 0s66.921 2.308 60.863-69.517c-4.327-51.344-11.25-108.746-16.442-170.186-2.308-27.403 17.884-51.344 45.287-53.94 1.442 0 2.885-0.288 4.327-0.288 25.384 0 47.306 19.615 49.614 45.287 23.365 268.836 12.98 285.278 5.769 302.296-7.788 14.711-23.365 35.191-103.265 40.96zM238.837 277.526c-8.365 0-27.403 0-67.786 0-104.996 0-94.323 94.9-94.323 94.9v199.608c0 21.057-17.019 38.364-38.364 38.364s-38.364-17.019-38.364-38.364v-332.872c0-12.403 6.057-23.365 15.288-30.576v-201.339h45.864v193.55h137.879v-193.55h45.864v194.127c18.172 2.885 32.018 18.749 32.018 37.499 0 21.634-17.019 38.652-38.075 38.652zM486.616 728.374h21.345v-223.261h-21.345v223.261zM448.541 417.136h59.421v-411.331h-59.421v411.331zM393.158 417.136h104.131v-59.421h-104.131v59.421z" />
<glyph unicode="&#xe929;" glyph-name="stock" d="M160.594 541.097h-114.034c-25.709 0-46.559-20.85-46.559-46.559v-512c0-25.687 20.85-46.538 46.559-46.538h114.034c25.709 0 46.538 20.85 46.538 46.538v512c0 25.709-20.829 46.559-46.538 46.559zM432.891 401.484h-114.034c-25.731 0-46.559-20.85-46.559-46.559v-372.344c0-25.731 20.829-46.559 46.559-46.559h114.034c25.709 0 46.538 20.85 46.538 46.559v372.344c0 25.709-20.829 46.559-46.538 46.559zM705.144 401.484h-114.034c-25.709 0-46.538-20.85-46.538-46.559v-372.344c0-25.731 20.829-46.559 46.538-46.559h114.034c25.731 0 46.559 20.85 46.559 46.559v372.344c0 25.709-20.829 46.559-46.559 46.559zM977.441 541.097h-114.034c-25.709 0-46.538-20.85-46.538-46.559v-512c0-25.709 20.829-46.538 46.538-46.538h114.034c25.709 0 46.559 20.872 46.559 46.538v512c0 25.709-20.85 46.559-46.559 46.559zM525.573 679.598v-83.794c25.36 1.678 52.093 13.573 52.093 41.483 0 28.803-29.304 37.234-52.093 42.311zM452.695 779.885c0-21.177 15.752-33.422 47.496-39.783v75.798c-28.846-0.85-47.496-17.8-47.496-36.014zM512 960c-141.159 0-256-114.862-256-256 0-141.094 114.841-255.956 256-255.956s256 114.862 256 255.956c0 141.138-114.841 256-256 256zM525.573 552.601v-26.21c0-7.212-5.534-14.401-12.767-14.401-7.146 0-12.615 7.19-12.615 14.401v26.21c-71.527 1.743-107.106 44.49-107.106 77.933 0 16.885 10.218 26.646 26.21 26.646 47.409 0 10.545-58.412 80.896-61.353v88.456c-62.747 11.395-100.744 38.912-100.744 85.885 0 57.54 47.845 87.214 100.744 88.87v22.572c0 7.212 5.469 14.401 12.615 14.401 7.233 0 12.767-7.19 12.767-14.401v-22.572c32.986-0.871 100.722-21.569 100.722-63.074 0-16.493-12.332-26.21-26.733-26.21-27.539 0-27.147 45.252-73.989 46.124v-80.417c55.862-11.874 105.341-28.367 105.341-93.554 0-56.69-42.311-85.45-105.341-89.306z" />
<glyph unicode="&#xe92a;" glyph-name="reviewed" d="M510.434 690.691c-134.654 0-244.257-109.602-244.257-244.257s109.602-244.257 244.257-244.257 244.257 109.602 244.257 244.257-109.602 244.257-244.257 244.257zM385.174 411.988h-15.657v62.63h-21.92v12.526c3.131 0 6.263 0 9.394 0s6.263 0 9.394 3.131 3.131 3.131 6.263 3.131c3.131 3.131 3.131 3.131 3.131 6.263h12.526v-87.682zM479.119 440.171c0-6.263-3.131-9.394-3.131-15.657s-6.263-9.394-9.394-12.526-9.394-3.131-15.657-3.131-12.526 0-15.657 3.131c-3.131 3.131-6.263 6.263-9.394 12.526-3.131 3.131-3.131 9.394-3.131 15.657s0 9.394 0 15.657 0 9.394 0 15.657 3.131 9.394 3.131 15.657c3.131 3.131 6.263 9.394 9.394 12.526s9.394 3.131 15.657 3.131 12.526 0 15.657-3.131 6.263-6.263 9.394-12.526c3.131-3.131 3.131-9.394 3.131-15.657s0-9.394 0-15.657 0-9.394 0-15.657zM548.012 440.171c0-6.263-3.131-9.394-3.131-15.657s-6.263-9.394-9.394-12.526-9.394-3.131-15.657-3.131-12.526 0-15.657 3.131c-3.131 3.131-6.263 6.263-9.394 12.526-3.131 3.131-3.131 9.394-3.131 15.657s0 9.394 0 15.657 0 9.394 0 15.657 3.131 9.394 3.131 15.657c3.131 3.131 6.263 9.394 9.394 12.526s9.394 3.131 15.657 3.131 12.526 0 15.657-3.131 6.263-6.263 9.394-12.526c3.131-3.131 3.131-9.394 3.131-15.657s0-9.394 0-15.657 3.131-9.394 0-15.657zM576.196 452.697c-3.131 0-6.263 3.131-6.263 6.263-3.131 3.131-3.131 6.263-3.131 9.394s0 6.263 0 9.394c0 3.131 0 6.263 0 9.394s3.131 6.263 3.131 9.394c3.131 3.131 3.131 3.131 6.263 6.263s6.263 3.131 9.394 3.131c3.131 0 6.263 0 9.394-3.131 3.131 0 6.263-3.131 6.263-6.263 3.131-3.131 3.131-6.263 3.131-9.394s0-6.263 0-9.394c0-3.131 0-6.263 0-9.394s-3.131-6.263-3.131-9.394c-3.131-3.131-3.131-3.131-6.263-6.263s-6.263-3.131-9.394-3.131-6.263 3.131-9.394 3.131zM588.722 408.856l50.104 97.076h9.394l-50.104-97.076h-9.394zM673.272 424.514c0-3.131-3.131-6.263-3.131-9.394s-3.131-3.131-6.263-6.263c-3.131 0-6.263-3.131-9.394-3.131s-6.263 0-9.394 3.131c-3.131 0-6.263 3.131-6.263 6.263s-3.131 6.263-3.131 9.394c0 3.131 0 6.263 0 9.394s0 6.263 0 9.394c0 3.131 3.131 6.263 3.131 9.394 3.131 3.131 3.131 3.131 6.263 6.263 3.131 0 6.263 3.131 9.394 3.131s6.263 0 9.394-3.131c3.131 0 6.263-3.131 6.263-6.263 3.131-3.131 3.131-6.263 3.131-9.394s0-6.263 0-9.394c0-3.131 0-6.263 0-9.394zM460.33 480.881c0 3.131-3.131 6.263-6.263 6.263 0 3.131-3.131 3.131-6.263 3.131s-6.263 0-9.394-3.131c-3.131-3.131-3.131-3.131-6.263-6.263 0-3.131-3.131-6.263-3.131-12.526 0-3.131 0-9.394 0-12.526 0-6.263 0-9.394 0-12.526s0-9.394 3.131-12.526c0-3.131 3.131-6.263 6.263-6.263 3.131-3.131 6.263-3.131 9.394-3.131s6.263 0 9.394 3.131c3.131 3.131 3.131 3.131 6.263 6.263 0 3.131 3.131 6.263 3.131 12.526 0 3.131 0 9.394 0 12.526 0 6.263 0 9.394 0 12.526-3.131 6.263-3.131 9.394-6.263 12.526zM532.355 480.881c0 3.131-3.131 6.263-6.263 6.263 0 3.131-3.131 3.131-6.263 3.131s-6.263 0-9.394-3.131c-3.131-3.131-3.131-3.131-6.263-6.263 0-3.131-3.131-6.263-3.131-12.526 0-3.131 0-9.394 0-12.526 0-6.263 0-9.394 0-12.526s0-9.394 3.131-12.526c0-3.131 3.131-6.263 6.263-6.263 3.131-3.131 6.263-3.131 9.394-3.131s6.263 0 9.394 3.131c0 3.131 3.131 3.131 3.131 6.263s3.131 6.263 3.131 12.526c0 3.131 0 9.394 0 12.526 0 6.263 0 9.394 0 12.526 0 6.263-3.131 9.394-3.131 12.526zM594.985 484.012c0 3.131 0 3.131-3.131 6.263 0 3.131-3.131 3.131-3.131 3.131s-3.131 0-6.263 0c-3.131 0-3.131 0-6.263 0 0 0-3.131-3.131-3.131-3.131 0-3.131 0-3.131 0-6.263s0-3.131 0-6.263 0-3.131 0-6.263 0-3.131 3.131-6.263c0 0 3.131-3.131 3.131-3.131s3.131 0 3.131 0 3.131 0 3.131 0 3.131 3.131 3.131 3.131c0 0 0 3.131 3.131 6.263 0 3.131 0 3.131 0 6.263 6.263 3.131 6.263 3.131 3.131 6.263zM660.746 446.434c0 3.131-3.131 3.131-3.131 3.131s-3.131 0-6.263 0c-3.131 0-3.131 0-6.263 0s-3.131-3.131-3.131-3.131 0-3.131 0-6.263 0-3.131 0-6.263 0-3.131 0-6.263 0-3.131 3.131-6.263 3.131-3.131 3.131-3.131 3.131 0 3.131 0 3.131 0 3.131 0 3.131 3.131 3.131 3.131 0 3.131 3.131 6.263 0 3.131 0 6.263 0 3.131 0 6.263 0 6.263 0 6.263zM510.434 960c-281.835 0-510.434-228.599-510.434-510.434s228.599-510.434 510.434-510.434c281.835 0 510.434 228.599 510.434 510.434 3.131 281.835-225.468 510.434-510.434 510.434zM510.434 142.679c-169.101 0-306.887 137.786-306.887 306.887s137.786 306.887 306.887 306.887 306.887-137.786 306.887-306.887c0-169.101-137.786-306.887-306.887-306.887z" />
<glyph unicode="&#xe92b;" glyph-name="applied" d="M510.434 960c-281.835 0-510.434-228.599-510.434-510.434s228.599-510.434 510.434-510.434c281.835 0 510.434 228.599 510.434 510.434 3.131 281.835-225.468 510.434-510.434 510.434zM400.832 700.086c43.841 40.709 112.734 37.578 150.312-6.263s34.446-109.602-6.263-147.18c-6.263-3.131-9.394-12.526-15.657-9.394s-3.131 9.394-3.131 15.657c-3.131 21.92-6.263 46.972-9.394 68.893-3.131 25.052-18.789 37.578-43.841 34.446-25.052 0-40.709-15.657-40.709-40.709 0-28.183 0-59.498 0-87.682-62.63 21.92-90.813 115.865-31.315 172.232zM629.431 167.731c-28.183 0-59.498 0-87.682 0-15.657 0-28.183 0-43.841 0s-28.183 0-43.841 0c-18.789 0-21.92 9.394-21.92 25.052 0 18.789 9.394 15.657 21.92 15.657 59.498 0 115.865 0 175.364 0 12.526 0 18.789 0 18.789-15.657s0-25.052-18.789-25.052zM682.667 283.596c0 0-3.131 0-3.131-3.131-12.526-46.972-46.972-56.367-90.813-53.235s-90.813 0-134.654 0c-9.394 0-15.657 0-21.92 6.263-34.446 37.578-65.761 78.287-81.419 128.391-6.263 15.657-9.394 31.315 9.394 40.709s31.315 0 40.709-15.657c9.394-12.526 15.657-21.92 31.315-28.183 18.789-6.263 25.052-3.131 25.052 15.657 0 68.893 0 140.917 0 209.81 0 9.394 0 18.789 0 28.183 0 15.657 9.394 21.92 25.052 25.052 15.657 0 21.92-9.394 25.052-21.92 3.131-43.841 9.394-87.682 12.526-131.523 0-12.526 3.131-21.92 18.789-15.657 9.394 3.131 18.789 0 28.183-3.131 31.315-9.394 59.498-18.789 90.813-28.183 12.526-3.131 21.92-9.394 31.315-21.92-6.263-43.841-6.263-87.682-6.263-131.523z" />
<glyph unicode="&#xe92c;" glyph-name="interview" d="M510.434 960c-281.835 0-510.434-228.599-510.434-510.434s228.599-510.434 510.434-510.434c281.835 0 510.434 228.599 510.434 510.434 3.131 281.835-225.468 510.434-510.434 510.434zM582.459 656.245c37.578-6.263 78.287-12.526 115.865-21.92 12.526-3.131 21.92-12.526 25.052-28.183 3.131-25.052 3.131-50.104-3.131-75.156-9.394-40.709-50.104-65.761-87.682-59.498-40.709 6.263-72.024 37.578-72.024 78.287 0 12.526 0 25.052 0 37.578 0 15.657 0 31.315 0 46.972 0 18.789 6.263 25.052 21.92 21.92zM422.752 700.086c18.789 3.131 34.446 6.263 53.235 9.394 21.92 3.131 28.183 0 28.183-25.052 0-12.526 0-21.92 0-34.446 0 0 0 0 0 0s0 0 0 0c0-12.526 0-25.052 0-37.578-3.131-40.709-34.446-68.893-75.156-68.893s-75.156 31.315-75.156 72.024c3.131 68.893-3.131 72.024 68.893 84.55zM475.988 261.676c-31.315 0-59.498 0-90.813 0-12.526 0-28.183 0-40.709 0s-28.183 0-40.709 0c-15.657 0-25.052 3.131-21.92 21.92 0 25.052 0 53.235 0 78.287 0 12.526 3.131 15.657 15.657 15.657 59.498 0 122.128 0 181.627 0 9.394 0 12.526-3.131 12.526-12.526 0-31.315 0-59.498 0-90.813 0-12.526-9.394-12.526-15.657-12.526zM488.514 415.119c0-15.657-6.263-18.789-21.92-18.789-65.761 0-128.391 0-194.153 0-18.789 0-28.183 3.131-28.183 25.052 0 18.789 12.526 21.92 25.052 21.92 3.131 0 9.394 0 12.526 0 18.789-3.131 28.183 3.131 25.052 21.92 0 3.131 0 9.394 0 12.526 0 43.841 15.657 56.367 62.63 50.104 12.526-3.131 12.526-9.394 15.657-18.789 6.263-21.92 9.394-43.841 15.657-65.761 3.131 0 6.263 0 6.263 0 3.131 25.052 21.92 46.972 9.394 72.024-3.131 3.131-3.131 9.394 3.131 9.394s12.526 3.131 18.789 0c6.263 0 3.131-6.263 3.131-12.526-12.526-28.183 6.263-46.972 12.526-72.024 15.657 21.92 15.657 43.841 21.92 65.761 3.131 9.394 3.131 18.789 15.657 18.789 18.789 0 40.709 6.263 56.367-12.526 9.394-12.526 9.394-25.052 6.263-37.578 0-6.263-9.394-3.131-15.657-6.263-31.315-3.131-46.972-18.789-50.104-53.235zM751.56 261.676c-37.578 0-75.156 0-112.734 0s-75.156 0-109.602 0c-18.789 0-25.052 6.263-21.92 25.052 0 43.841 0 84.55 0 128.391 0 28.183 12.526 40.709 40.709 40.709 62.63 0 125.26 0 191.021 0 25.052 0 40.709-12.526 40.709-40.709 0-43.841 0-87.682 0-128.391-3.131-21.92-9.394-25.052-28.183-25.052z" />
<glyph unicode="&#xe92d;" glyph-name="short" d="M704.587 509.064h-3.131l-9.394-12.526zM748.428 530.985c0-3.131 0-3.131 0-6.263v12.526h-12.526c6.263 3.131 9.394 0 12.526-6.263zM450.936 549.774h128.391v-9.394h-128.391v9.394zM532.355 750.19v-87.682h87.682zM450.936 615.535h128.391v-31.315h-128.391v31.315zM510.434 960c-281.835 0-510.434-228.599-510.434-510.434s228.599-510.434 510.434-510.434 510.434 228.599 510.434 510.434c3.131 281.835-225.468 510.434-510.434 510.434zM748.428 524.722v-3.131c0-3.131 0-3.131-3.131-6.263l-172.232-206.679v-93.945c0-6.263-3.131-9.394-9.394-12.526l-93.945-50.104c-3.131 0-3.131 0-6.263 0s-6.263 0-6.263 3.131-6.263 6.263-6.263 12.526v140.917l-172.232 206.679c-3.131 3.131-3.131 9.394-3.131 15.657 3.131 6.263 6.263 9.394 12.526 9.394h97.076v203.547c0 9.394 3.131 15.657 9.394 21.92s12.526 9.394 21.92 9.394h128.391l100.208-97.076v-137.786h103.339v-15.657zM385.174 509.064h-65.761l156.575-187.89c3.131-3.131 3.131-6.263 3.131-9.394v-122.128l68.893 34.446v90.813c0 3.131 0 6.263 3.131 9.394l144.049 172.232 9.394 15.657h-319.413z" />
<glyph unicode="&#xe92e;" glyph-name="hangout" d="M512 960c-244.882 0-443.382-198.505-443.382-443.382s198.5-443.382 443.382-443.382v-137.236c0 0 443.382 207.501 443.382 580.618 0 244.877-198.5 443.382-443.382 443.382zM467.305 466.695l-78.019-112.152v112.152h-102.4v180.419h180.419v-180.419zM737.114 466.695l-78.019-112.152v112.152h-102.4v180.419h180.419v-180.419z" />
<glyph unicode="&#xe92f;" glyph-name="top-companies" horiz-adv-x="1274" d="M933.023 277.67h112.205v-114.227h-112.205v114.227zM933.023 504.103h112.205v-112.205h-112.205v112.205zM160.727 353.485c-5.054 5.054-11.119 8.087-18.195 8.087h-116.249c-7.076 0-13.141-3.033-18.195-8.087s-8.087-11.119-8.087-18.195v-258.78c0-7.076 3.033-13.141 8.087-18.195s11.119-8.087 18.195-8.087h116.249c7.076 0 13.141 3.033 18.195 8.087s8.087 11.119 8.087 18.195v258.78c-1.011 7.076-3.033 13.141-8.087 18.195zM96.032 109.868c-5.054-5.054-11.119-7.076-18.195-7.076s-13.141 2.022-18.195 7.076c-5.054 5.054-7.076 11.119-7.076 18.195s2.022 13.141 7.076 18.195c5.054 5.054 11.119 8.087 18.195 8.087s13.141-3.033 18.195-8.087c5.054-5.054 8.087-11.119 8.087-18.195-1.011-7.076-3.033-13.141-8.087-18.195zM734.894 273.627c0 0 16.174-48.521-13.141-97.042 0 0 1.011-6.065 2.022-15.163h95.021v116.249h-80.869c-2.022-1.011-2.022-2.022-3.033-4.043zM688.395 243.301c1.011-20.217-5.054-39.423-17.185-55.597 5.054-15.163 5.054-31.337 0-47.51-4.043-15.163-11.119-28.304-22.239-38.413 2.022-30.326-4.043-54.586-20.217-73.793-17.185-20.217-44.478-31.337-79.858-31.337h-52.565c-18.195 0-37.402 2.022-58.63 6.065s-37.402 8.087-49.532 12.13c-12.13 4.043-28.304 9.098-48.521 16.174-33.358 12.13-54.586 17.185-64.695 18.195-7.076 0-13.141 3.033-18.195 8.087s-8.087 11.119-8.087 18.195v259.791c0 7.076 2.022 13.141 7.076 17.185 5.054 5.054 11.119 8.087 17.185 8.087 6.065 1.011 17.185 8.087 31.337 24.261 14.152 15.163 27.293 31.337 41.445 49.532 18.195 23.25 32.347 39.423 41.445 48.521 5.054 5.054 9.098 11.119 12.13 19.206s6.065 15.163 7.076 19.206 3.033 13.141 5.054 24.261c2.022 10.109 4.043 19.206 5.054 25.271s4.043 13.141 8.087 21.228c4.043 8.087 8.087 15.163 14.152 20.217 5.054 5.054 11.119 8.087 18.195 8.087 12.13 0 23.25-1.011 33.358-4.043s18.195-6.065 24.261-10.109c6.065-4.043 12.13-10.109 16.174-16.174 4.043-7.076 8.087-13.141 10.109-18.195s4.043-12.13 5.054-20.217c1.011-8.087 2.022-14.152 2.022-18.195s0-9.098 0-16.174c0-10.109-1.011-20.217-4.043-31.337-3.033-10.109-5.054-18.195-8.087-24.261s-6.065-13.141-11.119-23.25c-1.011-2.022-2.022-4.043-4.043-7.076s-3.033-6.065-4.043-9.098c-1.011-3.033-2.022-6.065-3.033-10.109h113.216c21.228 0 39.423-8.087 54.586-23.25s23.25-33.358 23.25-54.586c0-23.25-7.076-43.467-22.239-60.652 4.043-11.119 6.065-22.239 6.065-30.326zM703.558 733.568v226.432h-568.103v-1024h1138.227v797.568h-570.124zM477.125 845.773h114.227v-112.205h-114.227v112.205zM249.682 845.773h112.205v-112.205h-112.205v112.205zM1159.455 50.227h-455.897v38.413c-2.022-4.043-5.054-8.087-8.087-12.13 0 0 11.119-129.39-136.466-133.433-147.585-5.054-220.367 26.282-326.507 61.662 0 0-35.38 11.119-35.38 59.641s0 278.997 0 278.997-3.033 50.543 52.565 59.641l85.923 99.064h-85.923v116.249h112.205v-83.901c0 0 11.119 22.239 19.206 61.662 7.076 38.413 26.282 97.042 73.793 96.032 39.423 0 95.021-10.109 118.27-73.793h18.195v-114.227c-1.011-14.152-4.043-28.304-9.098-43.467h73.793c0 0 63.684-3.033 89.966-67.728h71.771v111.194h-114.227v114.227h455.897v-568.103z" />
<glyph unicode="&#xe930;" glyph-name="youtube" horiz-adv-x="2569" d="M344.012 790.601c0.209 0.865 0.344 1.479 0.388 1.8l1.042 7.559-47.349 0.267c-42.779 0.242-55.87-0.007-57.047-1.084-0.565-0.516-15.333-56.633-41.655-158.273-12.556-48.484-23.124-87.206-23.487-86.051s-15.391 56.498-33.397 122.98c-18.006 66.482-33.104 121.243-33.55 121.692-0.623 0.623-57.98 0.9-104.417 0.502-6.735-0.056-10.477 13.11 60.021-211.133 9.759-31.041 24.371-74.997 32.469-97.679 9.333-26.141 15.989-46.323 20.534-63.173 8.038-32.067 8.319-52.163 6.565-75.625-2.026-27.101-2.321-218.438-0.342-221.638 1.512-2.449 91.223-3.589 99.712-1.268 1.358 0.372 2.265 1.691 2.87 8.928 2.119 6.219 2.286 30.969 2.286 133.744v131.281l5.742 18.112c3.756 11.849 13.201 42.995 20.989 69.22 7.789 26.222 17.21 57.619 20.938 69.771 33.834 110.319 66.14 218.831 66.994 225.011l0.693 5.056zM846.122 631.349l-0.021-6.838-1.065-0.014-0.595-188.993-0.577-183.227-14.666-14.929c-16.424-16.719-29.585-23.101-41.488-20.113-12.963 3.254-12.64-1.8-13.722 214.768l-0.998 199.347h-94.316v-6.851h-1.086v-216.289c0-231.737-0.007-231.599 11.752-254.875 9.366-18.536 23.010-27.559 46.391-30.671h0.002c30.79-4.1 64.001 9.849 94.77 39.809l13.373 13.022v-22.445c0-19.396 0.554-22.601 4.070-23.58 5.756-1.605 77.173-1.707 84.89-0.126l6.396 1.314v6.628l1.086 0.223v495.098l-94.195-1.258zM606.892 533.67c-8.935 38.341-25.68 64.115-53.233 81.939-43.281 27.999-92.718 30.957-138.586 8.291-33.425-16.515-54.951-43.914-66.071-84.083-1.326-4.786-2.298-8.812-3.033-14.815-2.83-14.184-3.163-35.351-3.889-133.951-1.121-151.928 0.616-170.003 19.643-204.51 18.664-33.848 57.403-58.661 99.572-63.782 12.696-1.54 38.43 0.858 53.23 4.961 33.632 9.326 65.864 35.906 80.118 66.078 6.158 13.033 9.875 22.096 12.115 38.651 4.175 22.617 4.47 59.175 4.47 152.375-0.002 118.875-0.379 131.862-4.337 148.847zM499.34 223.997c-7.907-6.028-21.734-8.649-32.983-6.249-8.656 1.847-20.338 15.419-23.934 27.801-4.479 15.436-4.823 229.985-0.954 272.059 6.379 21.054 24.19 32.050 43.635 26.813 15.157-4.082 22.915-13.575 27.336-33.457 3.282-14.754 3.67-33.129 2.972-141.26-0.46-71.701-0.716-106.742-3.058-125.553-2.382-11.87-6.319-15.047-13.015-20.154zM2300.389 425.863h45.57l-0.726 41.281c-0.705 37.869-1.263 42.2-6.324 52.472-7.982 16.21-19.759 23.401-38.446 23.401-22.448 0-36.678-10.849-43.388-33.141-2.858-9.486-5.863-74.685-3.707-80.308 1.205-3.144 7.724-3.705 47.021-3.705zM1995.795 519.763c-6.077 12.247-17.385 18.278-30.525 17.806-10.221-0.365-21.561-4.677-32.488-13.010l-8.14-6.177v-296.598l8.14-6.177c18.429-14.052 38.674-17.031 52.619-7.703 5.519 3.691 9.117 8.779 11.919 16.861 3.647 10.524 3.965 24.003 3.489 148.772-0.495 130.043-0.781 137.702-5.014 146.226zM2560.878 653.367c-9.080 108.842-16.303 144.165-38.751 189.544-29.729 60.101-72.692 91.788-133.876 98.747-47.309 5.379-225.315 12.97-390.044 16.631-285.188 6.338-754.057-5.858-813.939-21.173-27.673-7.077-48.426-19.11-70.022-40.604-37.844-37.662-60.391-91.679-69.452-166.396-20.692-170.606-21.134-376.727-1.188-553.515 8.577-76.041 26.243-125.443 59.41-166.159 20.694-25.406 56.352-46.998 88.26-53.442 22.385-4.523 134.42-10.798 297.605-16.668 24.306-0.874 88.667-2.379 143.030-3.344 113.301-2.012 321.627-0.821 440.719 2.519 80.127 2.249 226.201 8.172 253.5 10.282 7.677 0.593 25.469 1.728 39.537 2.523 47.277 2.67 77.353 12.568 105.596 34.76 36.553 28.718 64.857 81.795 76.815 144.037 11.314 58.894 18.887 163.773 20.422 282.851 1.284 99.491-0.426 153.175-7.621 239.409zM1425.273 692.808l-52.982-0.654-2.326-565.143-45.932-0.581c-35.525-0.488-46.307 0.044-47.167 2.326-0.616 1.626-1.356 129.020-1.672 283.153l-0.581 280.246-103.493 1.307v88.304l305.829-1.235 1.307-87.069-52.982-0.654zM1750.216 368.883v-243.035h-83.725v25.583c0 19.247-0.735 25.583-2.979 25.583-1.64 0-9.226-6.344-16.861-14.098-16.557-16.817-36.171-30.367-52.91-36.63-34.662-12.968-67.589-5.4-81.618 18.75-12.838 22.11-13.082 27.052-13.082 256.335v210.547h83.653l0.654-198.265c0.623-194.821 0.714-198.393 5.377-206.333 6.182-10.521 15.608-13.347 30.597-9.231 8.817 2.423 14.836 6.707 29.143 20.931l18.024 17.952v374.946h83.725v-243.035zM2076.757 160.59c-7.372-16.424-23.806-32.509-37.283-36.485-35.167-10.382-63.375-1.923-95.935 28.708-10.103 9.505-19.51 17.224-20.931 17.224-1.712 0-2.616-7.449-2.616-22.094v-22.094h-83.725v655.845h83.725v-106.982c0-58.84 0.786-106.982 1.744-106.982s9.789 7.807 19.624 17.298c22.629 21.841 41.548 31.399 65.557 33.213 42.811 3.24 68.327-18.794 80.018-69.117 3.647-15.696 3.998-33.625 3.998-179.078-0.002-177.178-0.021-177.918-14.175-209.457zM2430.99 257.832c-0.744-18.226-2.954-39.137-4.942-46.514-11.642-43.167-42.635-73.731-87.432-86.269-60.315-16.878-126.704 10.777-153.205 63.812-14.875 29.769-15.408 35.706-15.408 181.185 0 118.617 0.419 133.171 4.214 149.354 10.747 45.788 37.392 75.422 82.49 91.865 13.068 4.765 26.708 7.207 40.337 7.486 48.672 0.998 96.984-25.18 117.229-67.808 13.659-28.76 15.35-41.060 16.717-122.099l1.235-72.678-178.497-1.235-0.654-48.84c-0.93-68.901 3.716-90.088 22.313-102.621 15.645-10.54 39.679-9.745 52.765 1.744 12.263 10.768 15.726 22.336 16.933 56.107l1.091 29.653h86.195l-1.381-33.143z" />
<glyph unicode="&#xe931;" glyph-name="manage-post" horiz-adv-x="1210" d="M1120.464 269.913l81.623-59.362c7.42-7.42 7.42-14.841 7.42-22.261l-74.203-126.145c-7.42-7.42-14.841-14.841-22.261-7.42l-89.043 37.101c-22.261-14.841-44.522-29.681-59.362-37.101l-14.841-96.464c0-7.42-7.42-14.841-22.261-14.841h-148.406c-7.42 0-14.841 7.42-22.261 14.841l-14.841 89.043c-22.261 7.42-44.522 22.261-59.362 37.101l-89.043-37.101c-7.42 0-14.841 0-22.261 7.42l-74.203 126.145c-7.42 7.42 0 14.841 7.42 22.261l81.623 59.362c0 14.841 0 29.681 0 37.101s0 22.261 0 37.101l-89.043 66.783c-14.841 7.42-14.841 14.841-7.42 22.261l74.203 126.145c7.42 7.42 14.841 14.841 22.261 7.42l89.043-37.101c22.261 22.261 44.522 29.681 66.783 44.522l14.841 96.464c0 7.42 7.42 14.841 22.261 14.841h148.406c14.841 0 14.841-7.42 22.261-14.841l14.841-96.464c22.261-7.42 44.522-22.261 59.362-37.101l89.043 37.101c7.42 0 14.841 0 22.261-7.42l74.203-126.145c7.42-7.42 0-14.841-7.42-22.261l-81.623-59.362c0-14.841 0-29.681 0-37.101s7.42-29.681 0-44.522zM756.87 210.551c22.261-22.261 59.362-37.101 89.043-37.101s66.783 14.841 89.043 37.101 37.101 59.362 37.101 89.043-7.42 74.203-29.681 96.464-59.362 37.101-89.043 37.101-66.783-14.841-89.043-37.101-44.522-51.942-44.522-89.043 7.42-66.783 37.101-96.464zM697.507 596.406v14.841h-103.884l74.203-29.681c7.42 7.42 22.261 14.841 29.681 14.841zM667.826 32.464l-133.565-59.362h170.667l-7.42 37.101c-7.42 7.42-22.261 14.841-29.681 22.261zM430.377 158.609c0 7.42 0 7.42 0 7.42h-230.029v103.884h304.232l29.681 14.841c0 7.42 0 14.841 0 14.841 0 7.42 0 14.841 0 22.261l-59.362 44.522h-274.551v96.464h237.449l81.623 148.406 7.42 7.42h-81.623v267.13l252.29-252.29 14.841 103.884-222.609 222.609h-393.275c-22.261 0-44.522-7.42-66.783-29.681s-29.681-44.522-29.681-66.783v-793.971c0-29.681 7.42-51.942 29.681-66.783 22.261-22.261 44.522-29.681 66.783-29.681h437.797l-51.942 89.043-51.942 96.464z" />
<glyph unicode="&#xe932;" glyph-name="format-bold" horiz-adv-x="805" d="M753.371 389.486c-29.257 36.571-80.457 58.514-153.6 80.457 36.571 7.314 58.514 21.943 80.457 36.571s43.886 29.257 58.514 51.2c14.629 21.943 21.943 36.571 29.257 58.514s7.314 43.886 7.314 65.829-7.314 80.457-21.943 117.029c-7.314 36.571-36.571 58.514-65.829 87.771-29.257 21.943-73.143 43.886-124.343 51.2-51.2 14.629-109.714 21.943-182.857 21.943h-380.343v-1024h416.914c65.829 0 117.029 7.314 168.229 21.943s87.771 36.571 124.343 65.829c36.571 29.257 58.514 58.514 73.143 95.086s29.257 80.457 29.257 124.343c-7.314 58.514-21.943 109.714-58.514 146.286zM241.371 784.457h138.971c29.257 0 51.2 0 73.143-7.314s36.571-14.629 51.2-21.943c7.314-7.314 14.629-21.943 21.943-36.571s7.314-36.571 7.314-58.514c0-21.943-7.314-43.886-14.629-58.514 0-21.943-14.629-36.571-29.257-43.886-14.629-14.629-29.257-21.943-51.2-21.943-21.943-7.314-43.886-7.314-73.143-7.314h-124.343v256zM555.886 199.314c-7.314-14.629-14.629-29.257-21.943-43.886-14.629-14.629-29.257-21.943-43.886-29.257-21.943-7.314-43.886-14.629-80.457-14.629h-168.229v256h168.229c29.257 0 58.514 0 73.143-7.314 21.943-7.314 36.571-14.629 51.2-21.943 7.314-7.314 21.943-21.943 21.943-36.571 7.314-14.629 7.314-29.257 7.314-51.2 0-14.629 0-29.257-7.314-51.2z" />
<glyph unicode="&#xe933;" glyph-name="format-italic" horiz-adv-x="878" d="M877.714 813.714v146.286h-658.286v-146.286h234.057l-138.971-731.429h-314.514v-146.286h658.286v146.286h-190.171l138.971 731.429z" />
<glyph unicode="&#xe934;" glyph-name="format-underlined" horiz-adv-x="812" d="M0-64h804.571v146.286h-804.571v-146.286zM680.229 960v-365.714c0-43.886-7.314-80.457-14.629-117.029-14.629-29.257-36.571-65.829-58.514-87.771-21.943-29.257-51.2-43.886-80.457-58.514s-73.143-21.943-109.714-21.943c-43.886 0-80.457 7.314-109.714 21.943-36.571 14.629-65.829 36.571-87.771 58.514-21.943 29.257-43.886 58.514-51.2 87.771-14.629 36.571-21.943 80.457-21.943 117.029v365.714h-131.657v-365.714c0-58.514 7.314-109.714 29.257-160.914 14.629-51.2 43.886-95.086 80.457-131.657s73.143-65.829 124.343-87.771c51.2-21.943 102.4-29.257 168.229-29.257s117.029 7.314 168.229 29.257c43.886 29.257 87.771 51.2 117.029 87.771 36.571 36.571 58.514 80.457 80.457 131.657s29.257 102.4 29.257 160.914v365.714h-131.657z" />
<glyph unicode="&#xe935;" glyph-name="candidate" horiz-adv-x="907" d="M840.048 6.515l-116.503 159.425-76.647-42.922 119.569-165.557c12.263-21.461 39.856-24.527 61.317-12.263s24.527 39.856 12.263 61.317zM738.874 150.611c82.778 67.449 137.964 156.359 159.425 260.599 24.527 119.569 0 239.138-64.383 340.311-67.449 101.174-168.623 171.689-288.192 196.216s-239.138 0-340.311-64.383c-101.174-64.383-171.689-168.623-196.216-285.126-24.527-119.569 0-239.138 64.383-340.311 67.449-101.174 168.623-171.689 288.192-196.216 104.24-21.461 211.545-6.132 303.521 42.922l73.581 45.988zM380.168 147.545c-95.042 18.395-177.82 76.647-233.006 156.359-55.186 82.778-73.581 180.886-52.12 275.928 18.395 95.042 76.647 177.82 156.359 233.006 82.778 55.186 180.886 73.581 275.928 52.12 95.042-18.395 177.82-76.647 233.006-156.359 55.186-82.778 73.581-180.886 52.12-275.928-18.395-95.042-76.647-177.82-156.359-233.006s-180.886-73.581-275.928-52.12zM536.527 570.635c0-42.331-34.316-76.647-76.647-76.647s-76.647 34.316-76.647 76.647c0 42.331 34.316 76.647 76.647 76.647s76.647-34.316 76.647-76.647zM551.856 579.832c9.198-6.132 21.461-6.132 33.725-6.132 42.922 0 76.647 33.725 76.647 76.647s-33.725 76.647-76.647 76.647c-42.922 0-76.647-33.725-76.647-76.647 24.527-15.329 39.856-39.856 42.922-70.515zM321.916 573.701c15.329 0 27.593 3.066 39.856 12.263 3.066 24.527 18.395 45.988 36.79 61.317 0 0 0 3.066 0 3.066 0 42.922-33.725 76.647-76.647 76.647-39.856 0-76.647-33.725-76.647-76.647s36.79-76.647 76.647-76.647zM490.539 487.856h-21.461l15.329-131.832-21.461-30.659-21.461 30.659 15.329 131.832h-27.593c-55.186 0-98.108-42.922-98.108-98.108v-79.713l6.132-3.066c52.12-15.329 98.108-21.461 134.898-21.461 73.581 0 113.437 21.461 116.503 21.461l6.132 3.066v79.713c-6.132 52.12-49.054 98.108-104.24 98.108zM300.455 432.671l15.329 131.832h-24.527c-55.186 0-98.108-42.922-98.108-98.108v-79.713l6.132-3.066c42.922-12.263 79.713-18.395 110.371-21.461v24.527c0 9.198 0 18.395 3.066 27.593l-12.263 18.395zM361.772 567.569c-3.066 0-6.132 0-6.132 0h-24.527l12.263-98.108c15.329 15.329 30.659 24.527 52.12 30.659-21.461 18.395-30.659 39.856-33.725 67.449zM576.383 567.569h-24.527c0-24.527-12.263-49.054-30.659-67.449 15.329-6.132 30.659-12.263 42.922-24.527l12.263 91.976zM619.305 567.569h-24.527l15.329-131.832-6.132-9.198c3.066-12.263 6.132-24.527 6.132-36.79v-24.527c64.383 3.066 101.174 21.461 104.24 21.461l6.132 3.066v79.713c-3.066 52.12-49.054 98.108-101.174 98.108z" />
<glyph unicode="&#xe936;" glyph-name="viwed-jobs" horiz-adv-x="1813" d="M832 0c-128 85.333-213.333 202.667-266.667 341.333 53.333 138.667 138.667 245.333 266.667 341.333 42.667 21.333 85.333 42.667 128 64 0 0 0 0 0 0h-213.333v106.667c0 32-10.667 53.333-32 74.667s-42.667 32-74.667 32h-213.333c-32 0-53.333-10.667-74.667-32s-32-42.667-32-74.667v-106.667h-213.333c-32 0-53.333-10.667-74.667-32s-32-42.667-32-74.667v-586.667c0-32 10.667-53.333 32-74.667s42.667-32 74.667-32h821.333c-32 21.333-64 32-96 53.333zM426.667 853.333h213.333v-106.667h-213.333v106.667zM874.667 629.333c106.667 74.667 224 106.667 362.667 106.667s245.333-32 352-106.667 181.333-170.667 224-288c-42.667-117.333-128-213.333-224-288s-224-106.667-352-106.667-256 32-362.667 106.667-192 170.667-234.667 288c42.667 117.333 128 213.333 234.667 288zM1034.667 149.333c53.333-53.333 117.333-74.667 192-74.667s138.667 21.333 192 74.667 74.667 117.333 74.667 192-21.333 138.667-74.667 192-117.333 74.667-192 74.667-138.667-21.333-192-74.667-74.667-117.333-74.667-192 21.333-138.667 74.667-192zM1109.333 458.667c32 32 64 42.667 117.333 42.667s85.333-10.667 117.333-42.667 42.667-74.667 42.667-117.333-10.667-85.333-42.667-117.333-74.667-42.667-117.333-42.667-85.333 10.667-117.333 42.667-42.667 74.667-42.667 117.333 21.333 85.333 42.667 117.333z" />
<glyph unicode="&#xe937;" glyph-name="align-center" horiz-adv-x="1170" d="M0 960v-146.286h1170.286v146.286h-1170.286zM146.286 667.429v-146.286h950.857v146.286h-950.857zM0 228.571h1170.286v146.286h-1170.286v-146.286zM292.571-64h731.429v146.286h-731.429v-146.286z" />
<glyph unicode="&#xe938;" glyph-name="align-justify" horiz-adv-x="1170" d="M0 960v-146.286h1170.286v146.286h-1170.286zM0 521.143h1170.286v146.286h-1170.286v-146.286zM0 228.571h1170.286v146.286h-1170.286v-146.286zM0-64h1170.286v146.286h-1170.286v-146.286z" />
<glyph unicode="&#xe939;" glyph-name="align-right" horiz-adv-x="1170" d="M1170.286 960h-1170.286v-146.286h1170.286v146.286zM219.429 667.429v-146.286h950.857v146.286h-950.857zM1170.286 374.857h-1170.286v-146.286h1170.286v146.286zM438.857-64h731.429v146.286h-731.429v-146.286z" />
<glyph unicode="&#xe93a;" glyph-name="alignleft" horiz-adv-x="1170" d="M0 960v-146.286h1170.286v146.286h-1170.286zM950.857 667.429h-950.857v-146.286h950.857v146.286zM0 228.571h1170.286v146.286h-1170.286v-146.286zM0-64h731.429v146.286h-731.429v-146.286z" />
<glyph unicode="&#xe93b;" glyph-name="cottation" horiz-adv-x="1112" d="M474.702 804.026l-101.722 155.974c-135.629-61.033-237.351-155.974-298.384-271.258-47.47-94.94-74.596-176.318-74.596-379.762v-372.98h434.013v474.702h-210.225c6.781 128.848 27.126 169.536 67.815 237.351 33.907 67.815 101.722 115.285 183.099 155.974zM929.060 648.053c40.689 67.815 101.722 122.066 183.099 155.974l-101.722 155.974c-135.629-61.033-237.351-155.974-298.384-271.258-54.252-94.94-74.596-176.318-74.596-379.762v-372.98h434.013v474.702h-210.225c6.781 128.848 27.126 169.536 67.815 237.351z" />
<glyph unicode="&#xe93c;" glyph-name="view-list" horiz-adv-x="1243" d="M365.714 960h877.714v-146.286h-877.714v146.286zM365.714 667.429h877.714v-146.286h-877.714v146.286zM365.714 374.857h877.714v-146.286h-877.714v146.286zM365.714 82.286h877.714v-146.286h-877.714v146.286zM0 960h219.429v-146.286h-219.429v146.286zM0 667.429h219.429v-146.286h-219.429v146.286zM0 374.857h219.429v-146.286h-219.429v146.286zM0 82.286h219.429v-146.286h-219.429v146.286z" />
<glyph unicode="&#xe93d;" glyph-name="jobs-posted" horiz-adv-x="1078" d="M1047.714 714.24c-21.558 21.558-47.427 32.337-77.608 32.337h-215.579v107.789c0 28.025-10.779 53.895-32.337 75.453s-47.427 32.337-77.608 32.337h-213.423c-30.181 0-56.051-10.779-77.608-32.337s-32.337-45.272-32.337-75.453v-107.789h-213.423c-30.181 0-56.051-10.779-77.608-32.337s-32.337-47.427-32.337-77.608v-590.686c2.156-30.181 12.935-56.051 34.493-77.608s47.427-32.337 77.608-32.337h862.316c30.181 0 56.051 10.779 77.608 32.337s32.337 47.427 32.337 77.608v590.686c-4.312 30.181-15.091 56.051-34.493 77.608zM538.947 15.764l-81.92 103.478 34.493 435.469h97.011l32.337-435.469-81.92-103.478zM469.962 707.773h140.126l-21.558-116.413h-99.166l-19.402 116.413zM646.737 744.421h-215.579v107.789h215.579v-107.789z" />
<glyph unicode="&#xe93e;" glyph-name="users" horiz-adv-x="1063" d="M1035.070 439.697h-547.978c-16.605-33.211-44.281-60.886-83.027-77.492h564.584c0-22.141 5.535-33.211 5.535-55.351 0-166.054-132.843-298.897-298.897-298.897-44.281 0-88.562 11.070-121.773 27.676-16.605-16.605-33.211-38.746-49.816-49.816 55.351-27.676 116.238-49.816 182.659-49.816 204.8 0 376.389 171.589 376.389 376.389-5.535 44.281-11.070 83.027-27.676 127.308zM691.892 960c-127.308 0-226.941-99.632-226.941-226.941s99.632-226.941 226.941-226.941 226.941 99.632 226.941 226.941-94.097 226.941-226.941 226.941zM691.892 572.541c-83.027 0-154.984 71.957-154.984 160.519s71.957 154.984 154.984 154.984 154.984-71.957 154.984-154.984-66.422-160.519-154.984-160.519zM564.584 328.995h-547.978c-11.070-33.211-16.605-66.422-16.605-99.632 0-160.519 132.843-293.362 293.362-293.362s293.362 132.843 293.362 293.362c-5.535 33.211-11.070 66.422-22.141 99.632zM298.897 733.059c-99.632 0-177.124-77.492-177.124-177.124s77.492-177.124 177.124-177.124 177.124 77.492 177.124 177.124-77.492 177.124-177.124 177.124z" />
<glyph unicode="&#xe93f;" glyph-name="landscape" horiz-adv-x="1770" d="M0 960v-1024h1770.112v1024h-1770.112zM28.55 931.45h1713.011v-966.9h-7.613l-331.182 496.773-342.602-304.535-437.77 380.669-580.52-574.81h-13.323v968.803zM1376.119 573.621c57.1 0 102.781 45.68 102.781 102.781s-45.68 102.781-102.781 102.781-102.781-45.68-102.781-102.781 45.68-102.781 102.781-102.781z" />
<glyph unicode="&#xe940;" glyph-name="min-width" horiz-adv-x="1770" d="M0 960v-1024h1770.112v1024h-1770.112zM1741.561-37.353h-1713.011v968.803h1713.011v-968.803zM390.186 664.981h1103.941v-38.067h-1103.941v38.067zM275.985 265.279h1103.941v-38.067h-1103.941v38.067zM1400.862 345.219l93.264-95.167-93.264-95.167-20.937 22.84 70.424 72.327-70.424 72.327 20.937 22.84zM390.186 718.275l-20.937 22.84-93.264-95.167 93.264-95.167 20.937 22.84-70.424 72.327z" />
<glyph unicode="&#xe941;" glyph-name="hight-width" horiz-adv-x="1617" d="M0 956.934v-824.719h1425.629v824.719h-1425.629zM1402.635 153.677h-1379.641v780.263h1379.641v-780.263zM1525.269 960h30.659v-735.808h-30.659v735.808zM0 24.91h1333.653v-30.659h-1333.653v30.659zM1350.515 87.76l75.114-76.647-75.114-76.647-16.862 18.395 56.719 58.251-56.719 59.784 16.862 16.862zM1483.88 224.192l-18.395-18.395 76.647-73.581 75.114 73.581-16.862 18.395-58.251-56.719z" />
<glyph unicode="&#xe942;" glyph-name="admin" horiz-adv-x="1449" d="M508.207 451.793c68.267 0 128.948 22.756 182.044 75.852s75.852 113.778 75.852 182.044c0 68.267-22.756 128.948-75.852 182.044s-113.778 75.852-182.044 75.852c-68.267 0-128.948-22.756-182.044-75.852s-75.852-113.778-75.852-182.044c0-68.267 22.756-128.948 75.852-182.044s113.778-75.852 182.044-75.852zM917.807 11.852c-7.585 0-22.756 7.585-22.756 7.585s-53.096-22.756-91.022-37.926-60.681 7.585-60.681 7.585l-106.193 197.215c0 22.756 68.267 75.852 91.022 98.607-7.585 0-15.17 7.585-22.756 7.585-75.852 15.17-144.119 30.341-204.8 30.341s-128.948-7.585-204.8-30.341c-75.852-15.17-144.119-45.511-204.8-91.022-60.681-37.926-91.022-91.022-91.022-136.533v-128.948h932.978l-15.17 75.852zM1357.748 269.748l83.437-60.681c7.585-7.585 7.585-15.17 7.585-22.756l-75.852-128.948c-7.585-7.585-15.17-15.17-22.756-7.585l-91.022 37.926c-22.756-15.17-45.511-30.341-60.681-37.926l-15.17-98.607c0-7.585-7.585-15.17-22.756-15.17h-151.704c-7.585 0-15.17 7.585-22.756 15.17l-15.17 91.022c-22.756 7.585-45.511 22.756-60.681 37.926l-91.022-37.926c-7.585 0-15.17 0-22.756 7.585l-75.852 128.948c-7.585 7.585 0 15.17 7.585 22.756l83.437 60.681c0 15.17 0 30.341 0 37.926s0 22.756 0 37.926l-91.022 68.267c-15.17 7.585-15.17 15.17-7.585 22.756l75.852 128.948c7.585 7.585 15.17 15.17 22.756 7.585l91.022-37.926c22.756 22.756 45.511 30.341 68.267 45.511l15.17 98.607c0 7.585 7.585 15.17 22.756 15.17h151.704c15.17 0 15.17-7.585 22.756-15.17l15.17-98.607c22.756-7.585 45.511-22.756 60.681-37.926l91.022 37.926c7.585 0 15.17 0 22.756-7.585l75.852-128.948c7.585-7.585 0-15.17-7.585-22.756l-83.437-60.681c0-15.17 0-30.341 0-37.926s7.585-30.341 0-45.511zM986.074 209.067c22.756-22.756 60.681-37.926 91.022-37.926s68.267 15.17 91.022 37.926c22.756 22.756 37.926 60.681 37.926 91.022s-7.585 75.852-30.341 98.607c-22.756 22.756-60.681 37.926-91.022 37.926s-68.267-15.17-91.022-37.926c-22.756-22.756-45.511-53.096-45.511-91.022s0-68.267 37.926-98.607z" />
<glyph unicode="&#xe943;" glyph-name="last-active" horiz-adv-x="1646" d="M469.569 439.514c28.287 0 56.575 5.657 84.862 16.972 0 130.122 45.26 243.271 113.149 339.448-11.315 16.972-22.63 28.287-33.945 45.26-45.26 45.26-101.834 67.89-164.066 67.89s-118.807-22.63-164.066-67.89c-50.917-50.917-73.547-101.834-73.547-169.724s22.63-118.807 67.89-164.066c45.26-45.26 101.834-67.89 169.724-67.89zM565.746 315.050c-33.945 5.657-67.89 5.657-101.834 5.657-56.575 0-118.807-5.657-192.354-22.63-67.89-16.972-135.779-45.26-192.354-79.204s-79.204-84.862-79.204-130.122v-118.807h797.702c-113.149 79.204-198.011 203.669-231.956 345.105zM769.414 812.906c101.834 96.177 220.641 147.094 362.077 147.094s260.243-50.917 362.077-147.094c101.834-101.834 147.094-220.641 147.094-362.077s-50.917-260.243-147.094-362.077c-101.834-101.834-220.641-147.094-362.077-147.094s-260.243 50.917-362.077 147.094c-96.177 101.834-147.094 220.641-147.094 362.077s50.917 260.243 147.094 362.077zM842.961 156.641c79.204-79.204 175.381-118.807 288.53-118.807s209.326 39.602 288.53 118.807c79.204 79.204 118.807 175.381 118.807 288.53s-39.602 209.326-118.807 288.53c-79.204 84.862-175.381 124.464-288.53 124.464s-209.326-39.602-288.53-118.807c-79.204-79.204-118.807-175.381-118.807-288.53s39.602-209.326 118.807-294.188zM1159.779 705.414v-265.901l231.956-135.779-39.602-62.232-265.901 164.066v299.845h73.547z" />
<glyph unicode="&#xe944;" glyph-name="tick" d="M445.327 358.683l223.921 223.921 27.676-30.192-251.597-254.113-118.251 118.251 30.192 30.192 88.059-88.059zM510.742 960c-281.789 0-510.742-228.953-510.742-510.742s228.953-510.742 510.742-510.742c281.789 0 510.742 228.953 510.742 510.742s-226.437 510.742-510.742 510.742zM510.742-23.744c-259.145 0-470.486 211.342-470.486 473.002s211.342 470.486 470.486 470.486c259.145 0 470.486-211.342 470.486-470.486s-208.826-473.002-470.486-473.002z" />
<glyph unicode="&#xe945;" glyph-name="post-job" horiz-adv-x="1258" d="M0 76.8l406.4 406.4 137.6-137.6-406.4-409.6h-137.6v140.8zM652.8 451.2l-67.2-67.2-137.6 137.6 67.2 67.2c6.4 6.4 16 9.6 25.6 9.6s19.2-3.2 25.6-9.6l86.4-86.4c6.4-6.4 9.6-16 9.6-25.6s-3.2-19.2-9.6-25.6zM1225.6 713.6c-22.4 22.4-48 32-76.8 32h-214.4v108.8c0 28.8-9.6 54.4-32 73.6-22.4 22.4-48 32-76.8 32h-214.4c-28.8 0-54.4-9.6-76.8-32s-32-44.8-32-73.6v-108.8h-211.2c-28.8 0-54.4-9.6-76.8-32s-32-48-32-76.8v-323.2l323.2 323.2c9.6 9.6 22.4 16 35.2 16 16 0 25.6-6.4 35.2-16l121.6-121.6c9.6-9.6 16-22.4 16-35.2 0-16-6.4-25.6-16-35.2l-182.4-182.4-291.2-297.6c19.2-16 41.6-22.4 67.2-22.4h857.6c28.8 0 54.4 9.6 76.8 32s32 48 32 76.8v588.8c0 28.8-9.6 54.4-32 73.6zM828.8 745.6h-214.4v108.8h214.4v-108.8z" />
</font>
</defs>
</svg>
