<?xml version="1.0" encoding="utf-8"?>
<!-- Generator: Adobe Illustrator 19.0.0, SVG Export Plug-In . SVG Version: 6.00 Build 0)  -->
<svg version="1.1" id="Layer_1" xmlns="http://www.w3.org/2000/svg" xmlns:xlink="http://www.w3.org/1999/xlink" x="0px" y="0px"
	 viewBox="0 0 62 60" style="enable-background:new 0 0 62 60;" xml:space="preserve">
<style type="text/css">
	.st0{clip-path:url(#XMLID_2_);}
	.st1{fill:#2F6BB3;}
	.st2{fill:#0F5FA5;}
	.st3{clip-path:url(#XMLID_5_);}
	.st4{fill:#3A78BC;}
	.st5{clip-path:url(#XMLID_6_);}
	.st6{fill:#FFFFFF;}
</style>
<g id="XMLID_123_">
	<defs>
		<path id="XMLID_124_" d="M17.8,33c0-7.8,5.3-18.3,13.1-18.3c7.8,0,13.1,10.6,13.1,18.3c0,7.8-5.3,14.1-13.1,14.1
			C23.1,47,17.8,40.7,17.8,33z"/>
	</defs>
	<clipPath id="XMLID_2_">
		<use xlink:href="#XMLID_124_"  style="overflow:visible;"/>
	</clipPath>
	<g id="XMLID_125_" class="st0">
		<path id="XMLID_134_" class="st1" d="M17.7,33c0-7.8,5.3-18.4,13.1-18.4c7.8,0,13.1,10.6,13.1,18.4s-5.3,14.1-13.1,14.1
			C23.1,47.1,17.7,40.8,17.7,33z"/>
		<g id="XMLID_131_">
			<path id="XMLID_133_" class="st1" d="M17.5,33c0-7.8,5.3-18.3,13.1-18.3c7.8,0,13.1,10.6,13.1,18.3c0,7.8-5.3,14.1-13.1,14.1
				C22.8,47,17.5,40.7,17.5,33z"/>
			<path id="XMLID_132_" class="st2" d="M31.3,14.7c4.6,3.4,7.5,10.7,7.5,16.4c0,7.8-3.6,15.1-12.5,14.6c-0.7,0-1.3-0.1-1.9-0.2
				c1.9,1.1,4.1,1.6,6.5,1.6c2.9,0,5.5-0.9,7.5-2.4c3.4-2.5,5.5-6.8,5.5-11.7C43.9,25.4,38.8,15,31.3,14.7z"/>
		</g>
		<g id="XMLID_126_">
			<defs>
				<circle id="XMLID_127_" cx="21.2" cy="27.1" r="13.8"/>
			</defs>
			<use xlink:href="#XMLID_127_"  style="overflow:visible;fill:#3A78BC;"/>
			<clipPath id="XMLID_5_">
				<use xlink:href="#XMLID_127_"  style="overflow:visible;"/>
			</clipPath>
			<g id="XMLID_128_" class="st3">
				<path id="XMLID_130_" class="st4" d="M17.5,33.1c0-7.8,5.3-18.3,13.1-18.3c7.8,0,13.1,10.6,13.1,18.3c0,7.8-5.3,14.1-13.1,14.1
					C22.8,47.1,17.5,40.8,17.5,33.1z"/>
				<path id="XMLID_129_" class="st4" d="M31.3,14.7c4.6,3.4,7.5,10.7,7.5,16.4c0,7.8-3.6,15.1-12.5,14.6c-0.7,0-1.3-0.1-1.9-0.2
					c1.9,1.1,4.1,1.6,6.5,1.6c2.9,0,5.5-0.9,7.5-2.4c3.4-2.5,5.5-6.8,5.5-11.7C43.9,25.4,38.8,15.1,31.3,14.7z"/>
			</g>
		</g>
	</g>
</g>
<g id="XMLID_3_">
	<defs>
		<path id="XMLID_4_" d="M33.6,29.7c2.1-1.6,3.2-3.8,3.2-6.6c0-2.4-0.8-4.4-2.3-5.9c-1.5-1.5-3.3-2.2-5.5-2.2h-1.2
			c-1.7,0.6-3.1,1.6-4.4,3c3.2-0.6,7.1-0.3,8.7,1.5c0.8,0.9,1.3,2.1,1.3,3.6c0,1.5-0.4,2.7-1.3,3.6C31.2,27.5,30.2,28,29,28l-10.7,0
			c-0.3,1.1-0.4,2.1-0.5,3.2l10,0c2,0,3.7,0.7,5.2,2.2c1.5,1.5,2.2,3.1,2.2,4.9c0,1.8-0.5,3.7-2.2,4.9c-2.9,2-6.1,2.5-8.6,2.3
			c1.6,0.9,4,1.8,6.3,1.8c0.9,0,1.6,0.2,2.6-0.4c1-0.5,1.7-1.1,2.1-1.5c2.2-2,3.2-4.4,3.2-7C38.6,34.6,36.9,31.8,33.6,29.7z"/>
	</defs>
	<use xlink:href="#XMLID_4_"  style="overflow:visible;fill:#FFFFFF;"/>
	<clipPath id="XMLID_6_">
		<use xlink:href="#XMLID_4_"  style="overflow:visible;"/>
	</clipPath>
	<g id="XMLID_29_" class="st5">
		<path id="XMLID_31_" class="st6" d="M17.7,32.8c0-7.8,5.3-18.3,13.1-18.3c7.8,0,13.1,10.6,13.1,18.3c0,7.8-5.3,14.1-13.1,14.1
			C23,46.9,17.7,40.6,17.7,32.8z"/>
		<path id="XMLID_30_" class="st6" d="M31.4,14.5c4.6,3.4,7.5,10.7,7.5,16.4c0,7.8-3.6,15.1-12.5,14.6c-0.7,0-1.3-0.1-1.9-0.2
			c1.9,1.1,4.1,1.6,6.5,1.6c2.9,0,5.5-0.9,7.5-2.4c3.4-2.5,5.5-6.8,5.5-11.7C44.1,25.2,39,14.9,31.4,14.5z"/>
	</g>
</g>
</svg>
