<?xml version="1.0" encoding="utf-8"?>
<!-- Generator: Adobe Illustrator 19.0.0, SVG Export Plug-In . SVG Version: 6.00 Build 0)  -->
<svg version="1.1" id="Layer_1" xmlns="http://www.w3.org/2000/svg" xmlns:xlink="http://www.w3.org/1999/xlink" x="0px" y="0px"
	 viewBox="0 0 32 32" style="enable-background:new 0 0 32 32;" xml:space="preserve">
<style type="text/css">
	.st0{clip-path:url(#XMLID_2_);}
	.st1{fill:#2F6BB3;}
	.st2{fill:#0F5FA5;}
	.st3{clip-path:url(#XMLID_5_);}
	.st4{fill:#3A78BC;}
	.st5{clip-path:url(#XMLID_6_);}
	.st6{fill:#FFFFFF;}
</style>
<g>
	<g id="XMLID_123_">
		<defs>
			<path id="XMLID_124_" d="M2.9,18c0-7.6,5.2-18,12.8-18c7.6,0,12.8,10.4,12.8,18c0,7.6-5.2,13.8-12.8,13.8
				C8.1,31.8,2.9,25.6,2.9,18z"/>
		</defs>
		<clipPath id="XMLID_2_">
			<use xlink:href="#XMLID_124_"  style="overflow:visible;"/>
		</clipPath>
		<g id="XMLID_125_" class="st0">
			<path id="XMLID_134_" class="st1" d="M2.9,18c0-7.6,5.2-18,12.8-18c7.6,0,12.8,10.4,12.8,18s-5.2,13.8-12.8,13.8
				C8.1,31.8,2.9,25.6,2.9,18z"/>
			<g id="XMLID_131_">
				<path id="XMLID_133_" class="st1" d="M2.7,18c0-7.6,5.2-18,12.8-18c7.6,0,12.8,10.4,12.8,18c0,7.6-5.2,13.8-12.8,13.8
					C7.9,31.8,2.7,25.6,2.7,18z"/>
				<path id="XMLID_132_" class="st2" d="M16.2,0c4.5,3.4,7.3,10.4,7.3,16.1c0,7.6-3.5,14.8-12.3,14.3c-0.6,0-1.3-0.1-1.9-0.2
					c1.8,1.1,4,1.6,6.4,1.6c2.9,0,5.4-0.9,7.4-2.3c3.4-2.5,5.4-6.7,5.4-11.4C28.6,10.5,23.6,0.4,16.2,0z"/>
			</g>
			<g id="XMLID_126_">
				<defs>
					<circle id="XMLID_127_" cx="6.3" cy="12.2" r="13.6"/>
				</defs>
				<use xlink:href="#XMLID_127_"  style="overflow:visible;fill:#3A78BC;"/>
				<clipPath id="XMLID_5_">
					<use xlink:href="#XMLID_127_"  style="overflow:visible;"/>
				</clipPath>
				<g id="XMLID_128_" class="st3">
					<path id="XMLID_130_" class="st4" d="M2.7,18.1c0-7.6,5.2-18,12.8-18c7.6,0,12.8,10.4,12.8,18c0,7.6-5.2,13.8-12.8,13.8
						C7.9,31.9,2.7,25.7,2.7,18.1z"/>
					<path id="XMLID_129_" class="st4" d="M16.2,0.1c4.5,3.4,7.3,10.5,7.3,16c0,7.6-3.5,14.8-12.3,14.3c-0.7,0-1.3-0.1-1.9-0.2
						c1.8,1.1,4,1.6,6.4,1.6c2.9,0,5.4-0.9,7.4-2.3c3.4-2.5,5.4-6.7,5.4-11.4C28.6,10.6,23.6,0.5,16.2,0.1z"/>
				</g>
			</g>
		</g>
	</g>
	<g id="XMLID_3_">
		<defs>
			<path id="XMLID_4_" d="M18.5,14.7c2.1-1.5,3.1-3.7,3.1-6.5c0-2.4-0.7-4.3-2.2-5.8C17.9,1,16.1,0.2,14,0.2h-1.2
				c-1.7,0.6-3,1.6-4.3,3c3.1-0.6,7-0.3,8.5,1.5c0.8,0.9,1.3,2,1.3,3.6c0,1.5-0.4,2.7-1.3,3.5c-0.9,0.9-1.9,1.3-3,1.3l-10.5,0
				c-0.3,1.1-0.4,2.1-0.5,3.1l9.8,0c2,0,3.7,0.7,5.1,2.1c1.4,1.5,2.2,3,2.2,4.8c0,1.7-0.5,3.6-2.2,4.8c-2.8,2-5.9,2.5-8.4,2.3
				c1.5,0.9,3.9,1.7,6.2,1.7c0.9,0,1.6,0.2,2.5-0.4c1-0.5,1.6-1.1,2.1-1.5c2.1-2,3.1-4.3,3.1-6.9C23.4,19.6,21.7,16.8,18.5,14.7z"/>
		</defs>
		<use xlink:href="#XMLID_4_"  style="overflow:visible;fill:#FFFFFF;"/>
		<clipPath id="XMLID_6_">
			<use xlink:href="#XMLID_4_"  style="overflow:visible;"/>
		</clipPath>
		<g id="XMLID_29_" class="st5">
			<path id="XMLID_31_" class="st6" d="M2.9,17.8c0-7.6,5.2-18,12.8-18c7.6,0,12.8,10.4,12.8,18c0,7.6-5.2,13.8-12.8,13.8
				C8.1,31.6,2.9,25.4,2.9,17.8z"/>
			<path id="XMLID_30_" class="st6" d="M16.4-0.1c4.5,3.4,7.3,10.4,7.3,16.1c0,7.6-3.5,14.8-12.3,14.3c-0.6,0-1.3-0.1-1.9-0.2
				c1.8,1.1,4,1.6,6.4,1.6c2.9,0,5.4-0.9,7.4-2.3c3.4-2.5,5.4-6.7,5.4-11.4C28.8,10.4,23.7,0.2,16.4-0.1z"/>
		</g>
	</g>
</g>
</svg>
