<?xml version="1.0" encoding="utf-8"?>
<!-- Generator: Adobe Illustrator 19.0.0, SVG Export Plug-In . SVG Version: 6.00 Build 0)  -->
<svg version="1.1" id="Layer_1" xmlns="http://www.w3.org/2000/svg" xmlns:xlink="http://www.w3.org/1999/xlink" x="0px" y="0px"
	 viewBox="0 0 330 272.1" style="enable-background:new 0 0 330 272.1;" xml:space="preserve">
<style type="text/css">
	.st0{fill:#FFFFFF;}
	.st1{clip-path:url(#XMLID_52_);}
	.st2{fill:#2F6BB3;}
	.st3{fill:#0F5FA5;}
	.st4{clip-path:url(#XMLID_53_);}
	.st5{fill:#3A78BC;}
	.st6{clip-path:url(#XMLID_54_);}
</style>
<g id="XMLID_93_">
	<path id="XMLID_113_" class="st0" d="M19.6,271.9c-3,0-5.7-0.4-8.1-1.3c-2.4-0.9-4.5-2.2-6.2-4c-1.7-1.8-3-4.2-3.9-7.1
		C0.5,256.5,0,253,0,248.9v-14.6c0-3.2,0.5-5.6,1.5-7.5c0.9-1.7,2.3-2.9,4.2-3.7c1.1-0.5,2.4-0.8,3.9-0.9c1-0.1,2-0.2,3.2-0.2
		c1.2,0,2.2,0,3,0c2.4,0,4.5,0.3,6.2,1c1.8,0.7,3.2,1.6,4.4,2.7c1.2,1.1,2.1,2.4,2.6,3.8c0.6,1.4,0.9,2.9,0.9,4.5
		c0,1.5-0.3,2.9-0.8,4.1c-0.6,1.3-1.3,2.5-2.4,3.5c1.4,0.5,2.7,1.2,3.8,2c1.2,0.8,2.2,1.8,3.1,3c0.9,1.2,1.6,2.6,2.1,4.1
		c0.5,1.5,0.8,3.2,0.8,5.1c0,2.1-0.4,4.1-1.2,6c-0.8,1.9-2,3.6-3.4,5.1c-1.5,1.5-3.3,2.7-5.3,3.6C24.5,271.4,22.2,271.9,19.6,271.9z
		 M19.6,265c1.5,0,2.8-0.2,3.8-0.7c1.1-0.5,1.9-1.1,2.6-2c0.7-0.8,1.2-1.8,1.5-2.8c0.3-1.1,0.5-2.3,0.5-3.5c0-2-0.4-3.7-1-5.1
		c-0.7-1.3-1.6-2.3-2.7-3.1c-1.1-0.7-2.3-1.2-3.6-1.5c-1.3-0.3-2.6-0.4-3.8-0.3c-1.1,0-2.2,0.1-3.2,0.1c-1,0-1.9,0-2.7,0
		c-0.9,0-1.7,0-2.5-0.1v3c-0.1,3.1,0.1,5.7,0.6,7.8c0.5,2.1,1.2,3.7,2.2,4.9c1,1.2,2.2,2.1,3.6,2.6C16.2,264.7,17.8,265,19.6,265z
		 M8.5,240.2h5.9c2.5,0,4.4-0.5,5.9-1.4c1.4-0.9,2.1-2.5,2.1-4.7c0-1.1-0.2-2.1-0.6-2.8c-0.4-0.8-0.9-1.4-1.5-1.9
		c-0.6-0.5-1.3-0.9-2.1-1.1c-0.8-0.2-1.5-0.4-2.3-0.4c-0.6,0-1.2,0-2.1,0c-0.8,0-1.6,0.1-2.4,0.3c-0.8,0.2-1.5,0.5-2,1
		c-0.6,0.5-0.8,1.2-0.8,2.1V240.2z"/>
	<path id="XMLID_111_" class="st0" d="M55.4,229c0-1.4-0.1-2.5-0.1-3.4c0-0.9,0-1.5-0.1-2.1c0-0.6-0.1-1-0.1-1.3
		c5.6,0,8.5,2.7,8.5,8.2l0.1,17.7c0,3,0.1,5.6,0.4,7.6c0.3,2,0.8,3.7,1.6,5c0.8,1.3,2,2.1,3.5,2.7c1.5,0.5,3.5,0.8,6,0.8
		c1.2,0,2.2,0,3.2,0c1,0,1.7-0.1,2.4-0.1c0.8,0,1.5-0.1,2.1-0.2v0.4c0,0.8-0.2,1.5-0.5,2.3c-0.3,0.8-0.9,1.5-1.6,2.2
		c-0.7,0.7-1.6,1.2-2.7,1.6c-1.1,0.4-2.4,0.7-3.9,0.7c-3.7,0-6.8-0.4-9.2-1.2c-2.4-0.8-4.3-2.1-5.7-3.9c-1.4-1.8-2.4-4.2-2.9-7.2
		c-0.6-3-0.8-6.7-0.8-11.1V229z"/>
	<path id="XMLID_109_" class="st0" d="M270.3,222.6c-2.8,7.4-5.4,14.2-7.8,20.3c-1,2.6-2.1,5.3-3.1,7.9c-1,2.6-2,5-2.9,7.3
		c-0.9,2.2-1.7,4.2-2.4,5.8c-0.7,1.7-1.3,2.8-1.6,3.5c-0.8,1.5-1.7,2.5-2.8,3.1c-1.1,0.6-2.1,0.9-3,1c-1.2,0.1-2.3,0-3.4-0.3
		l-19.2-48.5c1.1-0.2,2.2-0.3,3.4-0.2c1.1,0,2.2,0.2,3.2,0.6c1,0.4,1.9,0.9,2.7,1.6c0.8,0.7,1.5,1.7,2,2.9c0,0.2,0.3,0.8,0.7,1.8
		c0.4,1,0.9,2.3,1.5,3.8c0.6,1.5,1.2,3.2,1.9,5c0.7,1.9,1.4,3.7,2.1,5.7c1.7,4.5,3.7,9.5,5.8,15.1c2.1-5.6,4-10.6,5.8-15.1
		c0.7-1.9,1.5-3.8,2.2-5.7c0.7-1.9,1.3-3.5,1.9-5c0.6-1.5,1.1-2.8,1.5-3.8c0.4-1,0.6-1.6,0.7-1.8c0.5-1.2,1.2-2.2,2-2.9
		c0.8-0.7,1.7-1.3,2.7-1.6c1-0.4,2-0.5,3.1-0.6C268.1,222.4,269.2,222.5,270.3,222.6z"/>
	<g id="XMLID_104_">
		<path id="XMLID_106_" class="st0" d="M122.9,221.9c3,0,6,0.5,8.8,1.6c2.8,1.1,5.4,2.6,7.6,4.7c2.2,2.1,4,4.7,5.3,7.8
			c1.3,3.1,2,6.7,2,10.8c0,4.1-0.7,7.7-2,10.8c-1.3,3.1-3.1,5.7-5.3,7.8c-2.2,2.1-4.7,3.7-7.6,4.8c-2.8,1.1-5.8,1.6-8.8,1.6
			c-3.1,0-6-0.5-8.8-1.6c-2.8-1.1-5.4-2.7-7.6-4.8c-2.2-2.1-4-4.7-5.3-7.8c-1.3-3.1-2-6.7-2-10.8c0-4.1,0.7-7.7,2-10.8
			c1.3-3.1,3.1-5.7,5.3-7.8c2.2-2.1,4.7-3.7,7.6-4.7C116.9,222.4,119.8,221.9,122.9,221.9z M122.9,265.8c1.8,0,3.6-0.4,5.3-1.1
			c1.7-0.7,3.3-1.9,4.7-3.5c1.4-1.6,2.5-3.6,3.3-5.9c0.8-2.4,1.3-5.2,1.3-8.5c0-3.2-0.4-6.1-1.3-8.4c-0.8-2.4-1.9-4.3-3.3-5.9
			c-1.4-1.5-2.9-2.7-4.7-3.4c-1.7-0.7-3.5-1.1-5.3-1.1c-1.8,0-3.6,0.4-5.3,1.1c-1.7,0.7-3.3,1.9-4.7,3.4c-1.4,1.5-2.5,3.5-3.3,5.9
			c-0.8,2.4-1.2,5.2-1.2,8.4c0,3.3,0.4,6.1,1.2,8.5c0.8,2.4,1.9,4.3,3.3,5.9c1.4,1.6,2.9,2.7,4.7,3.5
			C119.3,265.4,121.1,265.8,122.9,265.8z"/>
		<path id="XMLID_17_" class="st0" d="M144.6,236c-1.3-3.1-3.1-5.7-5.3-7.8c-2.2-2.1-4.7-3.7-7.6-4.7c-2.2-0.8-4.5-1.2-6.9-1.4
			c2,2.3,3.7,5,5,8c1.1,0.7,2.1,1.4,3,2.5c1.4,1.5,2.5,3.5,3.3,5.9c0.8,2.4,1.3,5.2,1.3,8.4c0,3.3-0.4,6.1-1.3,8.5
			c-0.8,2.4-1.9,4.3-3.3,5.9c-1.4,1.6-2.9,2.7-4.7,3.5c-0.5,0.2-1,0.3-1.4,0.5c-1.8,2.5-3.9,4.7-6.2,6.4c0.8,0.1,1.6,0.2,2.4,0.2
			c3,0,6-0.5,8.8-1.6c2.8-1.1,5.4-2.7,7.6-4.8c2.2-2.1,4-4.7,5.3-7.8c1.3-3.1,2-6.7,2-10.8C146.6,242.7,145.9,239.1,144.6,236z"/>
	</g>
	<g id="XMLID_99_">
		<path id="XMLID_101_" class="st0" d="M188.3,222c3,0,6,0.5,8.8,1.6c2.8,1.1,5.4,2.6,7.6,4.7c2.2,2.1,4,4.7,5.3,7.8
			c1.3,3.1,2,6.7,2,10.8c0,4.1-0.7,7.7-2,10.8c-1.3,3.1-3.1,5.7-5.3,7.8c-2.2,2.1-4.8,3.7-7.6,4.8c-2.8,1.1-5.8,1.6-8.8,1.6
			c-3.1,0-6-0.5-8.8-1.6c-2.8-1.1-5.4-2.7-7.6-4.8c-2.2-2.1-4-4.7-5.3-7.8c-1.3-3.1-2-6.7-2-10.8c0-4.1,0.7-7.7,2-10.8
			c1.3-3.1,3.1-5.7,5.3-7.8c2.2-2.1,4.8-3.7,7.6-4.7C182.3,222.5,185.3,222,188.3,222z M188.3,265.9c1.8,0,3.6-0.4,5.3-1.1
			c1.7-0.7,3.3-1.9,4.7-3.5c1.4-1.6,2.5-3.6,3.3-5.9c0.8-2.4,1.2-5.2,1.2-8.5c0-3.3-0.4-6.1-1.2-8.4c-0.8-2.4-1.9-4.3-3.3-5.9
			c-1.4-1.5-2.9-2.7-4.7-3.4c-1.7-0.7-3.5-1.1-5.3-1.1c-1.8,0-3.6,0.4-5.3,1.1c-1.7,0.7-3.3,1.9-4.7,3.4c-1.4,1.5-2.5,3.5-3.3,5.9
			c-0.8,2.4-1.3,5.2-1.3,8.4c0,3.3,0.4,6.1,1.3,8.5c0.8,2.4,1.9,4.3,3.3,5.9c1.4,1.6,2.9,2.8,4.7,3.5
			C184.7,265.5,186.5,265.9,188.3,265.9z"/>
		<path id="XMLID_14_" class="st0" d="M210.1,236.1c-1.3-3.1-3.1-5.7-5.3-7.8c-2.2-2.1-4.8-3.7-7.6-4.7c-2.2-0.8-4.5-1.2-6.9-1.4
			c2,2.3,3.7,5,5,8c1.1,0.7,2.1,1.4,3,2.5c1.4,1.5,2.5,3.5,3.3,5.9c0.8,2.4,1.2,5.2,1.2,8.4c0,3.3-0.4,6.1-1.2,8.5
			c-0.8,2.4-1.9,4.3-3.3,5.9c-1.4,1.6-2.9,2.8-4.7,3.5c-0.5,0.2-1,0.3-1.4,0.5c-1.8,2.5-3.9,4.7-6.2,6.4c0.8,0.1,1.6,0.2,2.4,0.2
			c3,0,6-0.5,8.8-1.6c2.8-1.1,5.4-2.7,7.6-4.8c2.2-2.1,4-4.7,5.3-7.8c1.3-3.1,2-6.7,2-10.8C212,242.8,211.4,239.2,210.1,236.1z"/>
	</g>
	<g id="XMLID_94_">
		<path id="XMLID_96_" class="st0" d="M306.3,222.1c3,0,6,0.5,8.8,1.6c2.8,1.1,5.4,2.6,7.6,4.7c2.2,2.1,4,4.7,5.3,7.8
			c1.3,3.1,2,6.7,2,10.8c0,4.1-0.7,7.7-2,10.8c-1.3,3.1-3.1,5.7-5.3,7.8c-2.2,2.1-4.7,3.7-7.6,4.8c-2.8,1.1-5.8,1.6-8.8,1.6
			c-3.1,0-6-0.5-8.8-1.6c-2.8-1.1-5.4-2.7-7.6-4.8c-2.2-2.1-4-4.7-5.3-7.8c-1.3-3.1-2-6.7-2-10.8c0-4.1,0.7-7.7,2-10.8
			c1.3-3.1,3.1-5.7,5.3-7.8c2.2-2.1,4.7-3.7,7.6-4.7C300.3,222.7,303.2,222.1,306.3,222.1z M306.3,266.1c1.8,0,3.6-0.4,5.3-1.1
			c1.7-0.7,3.3-1.9,4.7-3.5c1.4-1.6,2.5-3.6,3.3-5.9c0.8-2.4,1.3-5.2,1.3-8.5c0-3.2-0.4-6.1-1.3-8.4c-0.8-2.4-1.9-4.3-3.3-5.9
			c-1.4-1.5-2.9-2.7-4.7-3.4c-1.7-0.7-3.5-1.1-5.3-1.1c-1.8,0-3.6,0.4-5.3,1.1c-1.7,0.7-3.3,1.9-4.7,3.4c-1.4,1.5-2.5,3.5-3.3,5.9
			c-0.8,2.4-1.3,5.2-1.3,8.4c0,3.3,0.4,6.1,1.3,8.5c0.8,2.4,1.9,4.3,3.3,5.9c1.4,1.6,2.9,2.7,4.7,3.5
			C302.7,265.7,304.5,266.1,306.3,266.1z"/>
		<path id="XMLID_11_" class="st0" d="M328,236.3c-1.3-3.1-3.1-5.7-5.3-7.8c-2.2-2.1-4.7-3.7-7.6-4.7c-2.2-0.8-4.5-1.2-6.9-1.4
			c2,2.3,3.7,5,5,8c1.1,0.7,2.1,1.4,3,2.5c1.4,1.5,2.5,3.5,3.3,5.9c0.8,2.4,1.3,5.2,1.3,8.4c0,3.3-0.4,6.1-1.3,8.5
			c-0.8,2.4-1.9,4.3-3.3,5.9c-1.4,1.6-2.9,2.7-4.7,3.5c-0.5,0.2-1,0.3-1.4,0.5c-1.8,2.5-3.9,4.7-6.2,6.4c0.8,0.1,1.6,0.2,2.4,0.2
			c3,0,6-0.5,8.8-1.6c2.8-1.1,5.4-2.7,7.6-4.8c2.2-2.1,4-4.7,5.3-7.8c1.3-3.1,2-6.7,2-10.8C330,242.9,329.3,239.3,328,236.3z"/>
	</g>
</g>
<g id="XMLID_75_">
	<g id="XMLID_81_">
		<defs>
			<path id="XMLID_5_" d="M81.3,111.2C81.3,64.1,113.4,0,160.4,0c47.1,0,79.2,64.1,79.2,111.2c0,47.1-32.1,86.3-79.2,86.3
				C113.4,197.4,81.3,158.2,81.3,111.2z"/>
		</defs>
		<clipPath id="XMLID_52_">
			<use xlink:href="#XMLID_5_"  style="overflow:visible;"/>
		</clipPath>
		<g id="XMLID_83_" class="st1">
			<path id="XMLID_10_" class="st2" d="M81.2,111.2C81.2,64,113.4-0.2,160.6-0.2C207.7-0.2,240,64,240,111.2
				c0,47.2-32.2,85.4-79.4,85.4C113.4,196.6,81.2,158.3,81.2,111.2z"/>
			<g id="XMLID_89_">
				<path id="XMLID_9_" class="st2" d="M79.9,111.2C79.9,64.1,112,0,159.1,0c47.1,0,79.2,64.1,79.2,111.2
					c0,47.1-32.1,85.2-79.2,85.2C112,196.4,79.9,158.2,79.9,111.2z"/>
				<path id="XMLID_8_" class="st3" d="M163.2,0.1c27.9,20.8,45.3,64.6,45.3,99.2c0,47.1-21.6,91.3-75.9,88.5
					c-4-0.2-6.5,0.2-10.2-0.3c11.3,6.6,23.4,8.9,38.2,8.9c17.6,0,33.2-5.4,45.7-14.5c20.9-15.3,33.4-41.2,33.4-70.7
					C239.7,65,208.8,2.4,163.2,0.1z"/>
			</g>
			<g id="XMLID_84_">
				<defs>
					<path id="XMLID_7_" d="M185.9,75.5c0,46.3-37.5,83.8-83.8,83.8c-46.3,0-83.8-37.5-83.8-83.8c0-46.3,37.5-83.8,83.8-83.8
						C148.4-8.3,185.9,29.2,185.9,75.5z"/>
				</defs>
				<use xlink:href="#XMLID_7_"  style="overflow:visible;fill:#3A78BC;"/>
				<clipPath id="XMLID_53_">
					<use xlink:href="#XMLID_7_"  style="overflow:visible;"/>
				</clipPath>
				<g id="XMLID_86_" class="st4">
					<path id="XMLID_18_" class="st5" d="M79.8,111.7c0-47,32.1-111.2,79.2-111.2c47.1,0,79.2,64.1,79.2,111.2
						c0,47.1-32.1,85.2-79.2,85.2C111.9,196.9,79.8,158.7,79.8,111.7z"/>
					<path id="XMLID_26_" class="st5" d="M163.1,0.6c27.9,20.8,45.3,64.6,45.3,99.2c0,47.1-21.6,91.3-75.9,88.5
						c-4-0.2-7.8-0.5-11.5-1c11.3,6.6,24.7,9.6,39.5,9.6c17.6,0,33.2-5.4,45.7-14.5c20.9-15.3,33.4-41.2,33.4-70.6
						C239.7,65.5,208.7,3,163.1,0.6z"/>
				</g>
			</g>
		</g>
	</g>
	<g id="XMLID_76_">
		<defs>
			<path id="XMLID_6_" d="M176.8,93.2c12.9-9.5,19.3-22.9,19.3-40.2c0-14.7-4.6-26.6-13.8-35.8c-9.1-9.1-20.2-13.6-33.5-13.6
				l-8.4-0.1c-10.2,3.4-18,9.7-26.1,18.1c19.3-3.4,43.6-1.4,53,9.3c4.9,5.5,7.8,12.6,7.8,22c0,9.4-2.6,16.6-7.8,21.8
				c-5.3,5.3-11.5,8-18.6,8L83.7,83c-1.5,6.5-2.5,13.1-3.1,19.4l60.8,0c12.2,0,22.7,4.4,31.4,13.1c8.9,9,13.4,18.8,13.4,29.5
				c0,10.7-3.1,22.2-13.4,29.5c-17.4,12.4-34.3,14.7-49.7,13.6c9.8,6.7,46,17.4,64.5-0.7c13-12.6,19.4-26.5,19.4-42.4
				C207.1,123.4,197,106.1,176.8,93.2z"/>
		</defs>
		<use xlink:href="#XMLID_6_"  style="overflow:visible;fill:#FFFFFF;"/>
		<clipPath id="XMLID_54_">
			<use xlink:href="#XMLID_6_"  style="overflow:visible;"/>
		</clipPath>
		<g id="XMLID_78_" class="st6">
			<path id="XMLID_27_" class="st0" d="M80.5,112.4c0-47,32.1-111.2,79.2-111.2c47.1,0,79.2,64.1,79.2,111.2
				c0,47.1-32.1,85.2-79.2,85.2C112.6,197.6,80.5,159.4,80.5,112.4z"/>
			<path id="XMLID_28_" class="st0" d="M163.8,1.3c27.9,20.8,45.3,64.6,45.3,99.2c0,47.1-21.6,91.3-75.9,88.5c-4-0.2-7.8-0.5-11.5-1
				c11.3,6.6,24.7,9.6,39.5,9.6c17.6,0,33.2-5.4,45.7-14.5c20.9-15.3,33.4-41.2,33.4-70.6C240.3,66.2,209.4,3.7,163.8,1.3z"/>
		</g>
	</g>
</g>
</svg>
