<?xml version="1.0" encoding="utf-8"?>
<!-- Generator: Adobe Illustrator 19.0.0, SVG Export Plug-In . SVG Version: 6.00 Build 0)  -->
<svg version="1.1" id="Layer_1" xmlns="http://www.w3.org/2000/svg" xmlns:xlink="http://www.w3.org/1999/xlink" x="0px" y="0px"
	 viewBox="0 0 35 35" style="enable-background:new 0 0 35 35;" xml:space="preserve">
<style type="text/css">
	.st0{fill:#7BA1B2;}
	.st1{clip-path:url(#XMLID_16_);}
	.st2{clip-path:url(#XMLID_16_);fill:#7BA1B2;}
	.st3{fill:#FFFFFF;stroke:#7BA1B2;stroke-miterlimit:10;}
</style>
<g id="XMLID_14_">
	<g id="XMLID_346_">
		<path id="XMLID_361_" class="st0" d="M27,9.1c2.5,0,4.5-2,4.5-4.5s-2-4.5-4.5-4.5c-2.5,0-4.5,2-4.5,4.5S24.5,9.1,27,9.1L27,9.1z
			 M27,2c1.4,0,2.5,1.1,2.5,2.5S28.4,7.1,27,7.1S24.4,6,24.4,4.6S25.6,2,27,2L27,2z M27,2"/>
		<path id="XMLID_356_" class="st0" d="M32.2,22.6c-1.6,3.7-5.1,6.3-9.3,6.5l1.7-1.7c0.4-0.4,0.4-1,0-1.4c-0.4-0.4-1-0.4-1.4,0
			l-3.4,3.4c-0.4,0.4-0.4,1,0,1.4l3.4,3.4c0.2,0.2,0.4,0.3,0.7,0.3c0.2,0,0.5-0.1,0.7-0.3c0.4-0.4,0.4-1,0-1.4l-1.7-1.7
			c6.2-0.3,11.7-4.9,12.1-11c0.1-1.3,0-5.4,0-5.4c0-1.9-1.2-3.6-3-4.2c0,0-1.3-0.4-1.3-0.4c-0.5-0.2-1,0.1-1.2,0.6l-1.6,4.5
			c0,0-0.4-2.5-0.4-2.6c0,0,0,0,0,0l0.9-1.5c0.1-0.2,0.1-0.4,0-0.5c-0.1-0.2-0.3-0.3-0.4-0.3h-1.7c-0.2,0-0.4,0.1-0.4,0.3
			c-0.1,0.2-0.1,0.4,0,0.5l0.9,1.5c0,0,0,0,0,0c0,0.1-0.4,2.6-0.4,2.6l-1.6-4.5c-0.2-0.5-0.7-0.8-1.2-0.6c0,0-1.3,0.4-1.3,0.4
			c-1.8,0.6-3,2.3-3,4.2v6.9c0,0.5,0.4,1,1,1H32.2z M20.9,20.6v-5.9c0-1.1,0.7-2,1.7-2.4l0.3-0.1l3.1,8.4L20.9,20.6L20.9,20.6z
			 M33,19.6c0,0.6-0.8,1.1-1.4,1.1h-3.6l3.1-8.4l0.3,0.1c1,0.3,1.7,1.3,1.7,2.4V19.6z M33,19.6"/>
		<g id="XMLID_347_">
			<defs>
				<rect id="XMLID_348_" x="0" width="34" height="34.6"/>
			</defs>
			<clipPath id="XMLID_16_">
				<use xlink:href="#XMLID_348_"  style="overflow:visible;"/>
			</clipPath>
			<path id="XMLID_352_" class="st1" d="M8.1,25.5c1.7,0,3.1-1.4,3.1-3.1c0-1.7-1.4-3.1-3.1-3.1c-1.7,0-3.1,1.4-3.1,3.1
				C5,24.1,6.4,25.5,8.1,25.5L8.1,25.5z M8.1,21.3c0.6,0,1.1,0.5,1.1,1.1c0,0.6-0.5,1.1-1.1,1.1c-0.6,0-1.1-0.5-1.1-1.1
				C6.9,21.8,7.4,21.3,8.1,21.3L8.1,21.3z M8.1,21.3"/>
			<path id="XMLID_349_" class="st2" d="M14.2,2.2c-0.4-0.4-1-0.4-1.4,0c-0.4,0.4-0.4,1,0,1.4l1.7,1.7C7.8,5.6,2.4,11,2.4,18.3
				l-1.2,2.1C1,20.6,1,20.8,1.1,21.1c0.1,0.2,0.2,0.5,0.5,0.6l1,0.6l-1,0.6c-0.2,0.1-0.4,0.3-0.5,0.6C1,23.7,1,24,1.2,24.2l2.3,4
				c0.3,0.5,0.9,0.6,1.3,0.4l1-0.6v1.2c0,0.5,0.4,1,1,1h4.6c0.5,0,1-0.4,1-1v-1.2l1,0.6c0.2,0.1,0.5,0.2,0.7,0.1
				c0.2-0.1,0.5-0.2,0.6-0.5l2.3-4c0.3-0.5,0.1-1.1-0.4-1.3l-1-0.6l1-0.6c0.5-0.3,0.6-0.9,0.4-1.3l-2.3-4c-0.1-0.2-0.3-0.4-0.6-0.5
				c-0.2-0.1-0.5,0-0.7,0.1l-1,0.6v-1.2c0-0.5-0.4-1-1-1H6.8c-0.5,0-1,0.4-1,1v1.2l-1-0.6c-0.1,0-0.2-0.1-0.3-0.1
				c1-4.8,5-8.4,10-8.7l-1.7,1.7c-0.4,0.4-0.4,1,0,1.4c0.2,0.2,0.4,0.3,0.7,0.3s0.5-0.1,0.7-0.3l3.4-3.4c0.2-0.2,0.3-0.4,0.3-0.7
				c0-0.3-0.1-0.5-0.3-0.7L14.2,2.2z M6.3,19.2"/>
		</g>
	</g>
	<g id="XMLID_320_">
		<g id="XMLID_341_">
			<rect id="XMLID_345_" x="0.8" y="11.7" class="st3" width="16.4" height="19.9"/>
			<path id="XMLID_342_" class="st0" d="M14.5,28.3H4.4c-0.3,0-0.6,0.3-0.6,0.6c0,0.3,0.3,0.6,0.6,0.6h10.1c0.3,0,0.6-0.3,0.6-0.6
				C15.1,28.6,14.8,28.3,14.5,28.3L14.5,28.3z M14.5,28.3"/>
		</g>
		<rect id="XMLID_340_" x="2.3" y="13.4" class="st3" width="5.7" height="5.8"/>
		<rect id="XMLID_339_" x="8.8" y="13.2" class="st0" width="5.1" height="0.8"/>
		<rect id="XMLID_338_" x="8.8" y="15.5" class="st0" width="6.9" height="0.4"/>
		<rect id="XMLID_337_" x="8.8" y="16.8" class="st0" width="6.9" height="0.4"/>
		<rect id="XMLID_335_" x="8.8" y="18.2" class="st0" width="6.9" height="0.4"/>
		<rect id="XMLID_334_" x="2" y="21.8" class="st0" width="6.9" height="0.4"/>
		<rect id="XMLID_331_" x="2" y="24" class="st0" width="13.7" height="0.4"/>
		<rect id="XMLID_330_" x="2" y="25.1" class="st0" width="13.7" height="0.4"/>
		<rect id="XMLID_329_" x="2" y="26.4" class="st0" width="13.7" height="0.4"/>
		<path id="XMLID_325_" class="st0" d="M6.7,18.1v-1.2c0-0.4-0.2-0.7-0.6-0.8c0,0-0.2-0.1-0.2-0.1c-0.1,0-0.2,0-0.2,0.1l-0.4,0.4
			l-0.4-0.4C4.7,16,4.6,16,4.5,16c0,0-0.2,0.1-0.2,0.1c-0.4,0.1-0.6,0.4-0.6,0.8v1.2c0,0.1,0.1,0.2,0.2,0.2h2.5
			C6.6,18.4,6.7,18.2,6.7,18.1L6.7,18.1z M6.2,17.9h-2v-1c0-0.2,0.1-0.3,0.3-0.4l0.1,0L5,17C5.1,17,5.2,17,5.3,17l0.5-0.5l0.1,0
			c0.2,0.1,0.3,0.2,0.3,0.4L6.2,17.9L6.2,17.9z M6.2,17.9"/>
		<path id="XMLID_321_" class="st0" d="M5.2,15.9c0.5,0,0.9-0.4,0.9-0.9c0-0.5-0.4-0.9-0.9-0.9c-0.5,0-0.9,0.4-0.9,0.9
			C4.3,15.6,4.7,15.9,5.2,15.9L5.2,15.9z M5.2,14.7c0.2,0,0.4,0.2,0.4,0.4c0,0.2-0.2,0.4-0.4,0.4c-0.2,0-0.4-0.2-0.4-0.4
			C4.8,14.9,5,14.7,5.2,14.7L5.2,14.7z M5.2,14.7"/>
	</g>
</g>
</svg>
