<?xml version="1.0" encoding="utf-8"?>
<!-- Generator: Adobe Illustrator 19.0.0, SVG Export Plug-In . SVG Version: 6.00 Build 0)  -->
<svg version="1.1" id="Layer_1" xmlns="http://www.w3.org/2000/svg" xmlns:xlink="http://www.w3.org/1999/xlink" x="0px" y="0px"
	 viewBox="0 0 238 60" style="enable-background:new 0 0 238 60;" xml:space="preserve">
<style type="text/css">
	.st0{clip-path:url(#XMLID_2_);}
	.st1{fill:#2F6BB3;}
	.st2{fill:#0F5FA5;}
	.st3{clip-path:url(#XMLID_5_);}
	.st4{fill:#3A78BC;}
	.st5{fill:#83A4B6;}
	.st6{clip-path:url(#XMLID_6_);}
	.st7{fill:#FFFFFF;}
</style>
<g id="XMLID_85_">
	<g id="XMLID_123_">
		<defs>
			<path id="XMLID_124_" d="M19.9,32.3c0-7.5,5.1-17.7,12.6-17.7c7.5,0,12.6,10.2,12.6,17.7c0,7.5-5.1,13.6-12.6,13.6
				C25.1,45.9,19.9,39.8,19.9,32.3z"/>
		</defs>
		<clipPath id="XMLID_2_">
			<use xlink:href="#XMLID_124_"  style="overflow:visible;"/>
		</clipPath>
		<g id="XMLID_125_" class="st0">
			<path id="XMLID_134_" class="st1" d="M19.9,32.3c0-7.5,5.1-17.8,12.7-17.8c7.5,0,12.7,10.3,12.7,17.8s-5.1,13.6-12.7,13.6
				C25.1,45.9,19.9,39.8,19.9,32.3z"/>
			<g id="XMLID_131_">
				<path id="XMLID_133_" class="st1" d="M19.7,32.3c0-7.5,5.1-17.7,12.6-17.7c7.5,0,12.6,10.2,12.6,17.7c0,7.5-5.1,13.6-12.6,13.6
					C24.9,45.9,19.7,39.8,19.7,32.3z"/>
				<path id="XMLID_132_" class="st2" d="M33,14.5c4.5,3.3,7.2,10.3,7.2,15.8c0,7.5-3.5,14.6-12.1,14.1c-0.6,0-1.2-0.1-1.8-0.2
					c1.8,1.1,3.9,1.5,6.3,1.5c2.8,0,5.3-0.9,7.3-2.3c3.3-2.4,5.3-6.6,5.3-11.3C45.2,24.9,40.3,14.9,33,14.5z"/>
			</g>
			<g id="XMLID_126_">
				<defs>
					<circle id="XMLID_127_" cx="23.3" cy="26.6" r="13.4"/>
				</defs>
				<use xlink:href="#XMLID_127_"  style="overflow:visible;fill:#3A78BC;"/>
				<clipPath id="XMLID_5_">
					<use xlink:href="#XMLID_127_"  style="overflow:visible;"/>
				</clipPath>
				<g id="XMLID_128_" class="st3">
					<path id="XMLID_130_" class="st4" d="M19.7,32.3c0-7.5,5.1-17.7,12.6-17.7c7.5,0,12.6,10.2,12.6,17.7c0,7.5-5.1,13.6-12.6,13.6
						C24.8,45.9,19.7,39.9,19.7,32.3z"/>
					<path id="XMLID_129_" class="st4" d="M33,14.6c4.5,3.3,7.2,10.3,7.2,15.8c0,7.5-3.5,14.6-12.1,14.1c-0.6,0-1.2-0.1-1.8-0.2
						c1.8,1.1,3.9,1.5,6.3,1.5c2.8,0,5.3-0.9,7.3-2.3c3.3-2.4,5.3-6.6,5.3-11.3C45.2,25,40.3,15,33,14.6z"/>
				</g>
			</g>
		</g>
	</g>
	<g id="XMLID_87_">
		<g id="XMLID_88_">
			<path id="XMLID_119_" class="st1" d="M62.2,41.4c-1.3,0-2.4-0.2-3.5-0.6c-1-0.4-1.9-0.9-2.6-1.7c-0.7-0.8-1.3-1.8-1.7-3
				c-0.4-1.2-0.6-2.7-0.6-4.5v-6.2c0-1.3,0.2-2.4,0.6-3.2c0.4-0.7,1-1.3,1.8-1.6c0.5-0.2,1-0.3,1.7-0.4c0.4-0.1,0.9-0.1,1.4-0.1
				c0.5,0,0.9,0,1.3,0c1,0,1.9,0.1,2.7,0.4c0.8,0.3,1.4,0.7,1.9,1.1c0.5,0.5,0.9,1,1.1,1.6c0.2,0.6,0.4,1.3,0.4,1.9
				c0,0.6-0.1,1.2-0.4,1.8c-0.2,0.5-0.6,1-1,1.5c0.6,0.2,1.1,0.5,1.6,0.9c0.5,0.4,0.9,0.8,1.3,1.3c0.4,0.5,0.7,1.1,0.9,1.7
				c0.2,0.7,0.3,1.4,0.3,2.2c0,0.9-0.2,1.7-0.5,2.6c-0.3,0.8-0.8,1.5-1.5,2.2c-0.6,0.6-1.4,1.1-2.3,1.5
				C64.3,41.2,63.3,41.4,62.2,41.4z M62.2,38.5c0.6,0,1.2-0.1,1.6-0.3c0.5-0.2,0.8-0.5,1.1-0.8c0.3-0.3,0.5-0.8,0.6-1.2
				c0.1-0.5,0.2-1,0.2-1.5c0-0.9-0.1-1.6-0.4-2.2c-0.3-0.6-0.7-1-1.1-1.3c-0.5-0.3-1-0.5-1.5-0.6c-0.6-0.1-1.1-0.2-1.6-0.1
				c-0.5,0-0.9,0-1.4,0c-0.4,0-0.8,0-1.1,0c-0.4,0-0.7,0-1.1,0v1.3c0,1.3,0,2.4,0.2,3.3c0.2,0.9,0.5,1.6,0.9,2.1
				c0.4,0.5,0.9,0.9,1.5,1.1C60.7,38.4,61.4,38.5,62.2,38.5z M57.4,27.9H60c1.1,0,1.9-0.2,2.5-0.6c0.6-0.4,0.9-1.1,0.9-2
				c0-0.5-0.1-0.9-0.3-1.2c-0.2-0.3-0.4-0.6-0.7-0.8c-0.3-0.2-0.6-0.4-0.9-0.5c-0.3-0.1-0.7-0.1-1-0.1c-0.2,0-0.5,0-0.9,0
				c-0.4,0-0.7,0-1,0.1c-0.3,0.1-0.6,0.2-0.9,0.4c-0.2,0.2-0.4,0.5-0.4,0.9V27.9z"/>
			<path id="XMLID_117_" class="st1" d="M77.8,23.2c0-0.6,0-1.1,0-1.4c0-0.4,0-0.7,0-0.9c0-0.2,0-0.4-0.1-0.5c2.4,0,3.6,1.2,3.6,3.5
				l0.1,7.5c0,1.3,0.1,2.4,0.2,3.2c0.1,0.9,0.3,1.6,0.7,2.1c0.3,0.5,0.8,0.9,1.5,1.1c0.6,0.2,1.5,0.3,2.6,0.3c0.5,0,0.9,0,1.3,0
				c0.4,0,0.7,0,1,0c0.3,0,0.6,0,0.9-0.1v0.2c0,0.3-0.1,0.7-0.2,1c-0.1,0.3-0.4,0.7-0.7,0.9c-0.3,0.3-0.7,0.5-1.2,0.7
				c-0.5,0.2-1,0.3-1.7,0.3c-1.6,0-2.9-0.2-3.9-0.5c-1-0.3-1.8-0.9-2.4-1.7c-0.6-0.8-1-1.8-1.3-3.1c-0.2-1.3-0.4-2.9-0.4-4.7V23.2z"
				/>
			<path id="XMLID_115_" class="st1" d="M169.8,20.5c-1.2,3.1-2.3,6-3.4,8.6c-0.4,1.1-0.9,2.2-1.3,3.4c-0.4,1.1-0.9,2.1-1.2,3.1
				c-0.4,0.9-0.7,1.8-1,2.5c-0.3,0.7-0.5,1.2-0.7,1.5c-0.3,0.6-0.7,1.1-1.2,1.3c-0.5,0.2-0.9,0.4-1.3,0.4c-0.5,0.1-1,0-1.5-0.1
				L150,20.5c0.5-0.1,1-0.1,1.4-0.1c0.5,0,0.9,0.1,1.3,0.2c0.4,0.1,0.8,0.4,1.1,0.7c0.3,0.3,0.6,0.7,0.8,1.2c0,0.1,0.1,0.3,0.3,0.8
				c0.2,0.4,0.4,1,0.6,1.6c0.2,0.6,0.5,1.4,0.8,2.1c0.3,0.8,0.6,1.6,0.9,2.4c0.7,1.9,1.6,4.1,2.5,6.4c0.9-2.4,1.7-4.5,2.5-6.4
				c0.3-0.8,0.6-1.6,0.9-2.4c0.3-0.8,0.6-1.5,0.8-2.1c0.2-0.6,0.4-1.2,0.6-1.6c0.2-0.4,0.3-0.7,0.3-0.8c0.2-0.5,0.5-0.9,0.8-1.2
				c0.3-0.3,0.7-0.5,1.1-0.7c0.4-0.1,0.9-0.2,1.3-0.2C168.8,20.3,169.3,20.4,169.8,20.5z"/>
			<g id="XMLID_107_">
				<path id="XMLID_110_" class="st1" d="M106.6,20.1c1.3,0,2.6,0.2,3.8,0.7c1.2,0.5,2.3,1.1,3.2,2c1,0.9,1.7,2,2.3,3.3
					c0.6,1.3,0.8,2.8,0.8,4.6c0,1.7-0.3,3.3-0.8,4.6c-0.6,1.3-1.3,2.4-2.3,3.3c-0.9,0.9-2,1.6-3.2,2c-1.2,0.5-2.5,0.7-3.8,0.7
					c-1.3,0-2.6-0.2-3.8-0.7c-1.2-0.4-2.3-1.1-3.2-2c-1-0.9-1.7-2-2.3-3.3c-0.6-1.3-0.8-2.9-0.8-4.6c0-1.7,0.3-3.3,0.8-4.6
					c0.6-1.3,1.3-2.4,2.3-3.3c0.9-0.9,2-1.6,3.2-2C104.1,20.4,105.3,20.1,106.6,20.1z M106.6,38.8c0.8,0,1.5-0.2,2.3-0.5
					c0.7-0.3,1.4-0.8,2-1.5c0.6-0.7,1.1-1.5,1.4-2.5c0.4-1,0.5-2.2,0.5-3.6c0-1.4-0.2-2.6-0.5-3.6c-0.4-1-0.8-1.8-1.4-2.5
					c-0.6-0.7-1.3-1.1-2-1.5c-0.7-0.3-1.5-0.5-2.3-0.5c-0.8,0-1.5,0.2-2.3,0.5c-0.7,0.3-1.4,0.8-2,1.5c-0.6,0.7-1.1,1.5-1.4,2.5
					c-0.4,1-0.5,2.2-0.5,3.6c0,1.4,0.2,2.6,0.5,3.6c0.4,1,0.8,1.9,1.4,2.5c0.6,0.7,1.3,1.2,2,1.5C105.1,38.7,105.9,38.8,106.6,38.8z
					"/>
				<path id="XMLID_108_" class="st5" d="M116,26.1c-0.6-1.3-1.3-2.4-2.3-3.3c-0.9-0.9-2-1.6-3.2-2c-1-0.4-1.9-0.5-2.9-0.6
					c0.9,1,1.6,2.1,2.2,3.4c0.5,0.3,0.9,0.6,1.3,1c0.6,0.7,1.1,1.5,1.4,2.5c0.4,1,0.5,2.2,0.5,3.6c0,1.4-0.2,2.6-0.5,3.6
					c-0.4,1-0.8,1.9-1.4,2.5c-0.6,0.7-1.3,1.2-2,1.5c-0.2,0.1-0.4,0.1-0.6,0.2c-0.8,1.1-1.7,2-2.7,2.7c0.3,0,0.7,0.1,1,0.1
					c1.3,0,2.6-0.2,3.8-0.7c1.2-0.4,2.3-1.1,3.2-2c1-0.9,1.7-2,2.3-3.3c0.6-1.3,0.8-2.9,0.8-4.6C116.8,29,116.5,27.5,116,26.1z"/>
			</g>
			<g id="XMLID_98_">
				<path id="XMLID_102_" class="st1" d="M134.7,20.2c1.3,0,2.6,0.2,3.8,0.7c1.2,0.5,2.3,1.1,3.3,2c0.9,0.9,1.7,2,2.3,3.3
					c0.6,1.3,0.8,2.8,0.8,4.6c0,1.7-0.3,3.3-0.8,4.6c-0.6,1.3-1.3,2.4-2.3,3.3c-1,0.9-2,1.6-3.3,2c-1.2,0.5-2.5,0.7-3.8,0.7
					c-1.3,0-2.6-0.2-3.8-0.7c-1.2-0.5-2.3-1.1-3.2-2c-0.9-0.9-1.7-2-2.3-3.3c-0.6-1.3-0.8-2.9-0.8-4.6c0-1.7,0.3-3.3,0.8-4.6
					c0.6-1.3,1.3-2.4,2.3-3.3c1-0.9,2-1.6,3.2-2C132.1,20.4,133.4,20.2,134.7,20.2z M134.7,38.9c0.8,0,1.5-0.2,2.3-0.5
					c0.7-0.3,1.4-0.8,2-1.5c0.6-0.7,1.1-1.5,1.4-2.5c0.4-1,0.5-2.2,0.5-3.6c0-1.4-0.2-2.6-0.5-3.6c-0.4-1-0.8-1.8-1.4-2.5
					c-0.6-0.7-1.3-1.1-2-1.5c-0.7-0.3-1.5-0.5-2.3-0.5c-0.8,0-1.5,0.2-2.3,0.5c-0.7,0.3-1.4,0.8-2,1.5c-0.6,0.7-1.1,1.5-1.4,2.5
					c-0.4,1-0.5,2.2-0.5,3.6c0,1.4,0.2,2.6,0.5,3.6c0.4,1,0.8,1.8,1.4,2.5c0.6,0.7,1.3,1.2,2,1.5C133.1,38.7,133.9,38.9,134.7,38.9z
					"/>
				<path id="XMLID_100_" class="st5" d="M144,26.2c-0.6-1.3-1.3-2.4-2.3-3.3c-1-0.9-2-1.6-3.3-2c-1-0.4-1.9-0.5-2.9-0.6
					c0.9,1,1.6,2.1,2.2,3.4c0.5,0.3,0.9,0.6,1.3,1c0.6,0.7,1.1,1.5,1.4,2.5c0.4,1,0.5,2.2,0.5,3.6c0,1.4-0.2,2.6-0.5,3.6
					c-0.4,1-0.8,1.8-1.4,2.5c-0.6,0.7-1.3,1.2-2,1.5c-0.2,0.1-0.4,0.1-0.6,0.2c-0.8,1.1-1.7,2-2.7,2.7c0.3,0,0.7,0.1,1,0.1
					c1.3,0,2.6-0.2,3.8-0.7c1.2-0.5,2.3-1.1,3.3-2c0.9-0.9,1.7-2,2.3-3.3c0.6-1.3,0.8-2.9,0.8-4.6C144.8,29,144.5,27.5,144,26.2z"/>
			</g>
			<g id="XMLID_90_">
				<path id="XMLID_92_" class="st1" d="M185.2,20.2c1.3,0,2.6,0.2,3.8,0.7c1.2,0.5,2.3,1.1,3.2,2c1,0.9,1.7,2,2.3,3.3
					c0.6,1.3,0.8,2.8,0.8,4.6c0,1.7-0.3,3.3-0.8,4.6c-0.6,1.3-1.3,2.4-2.3,3.3c-0.9,0.9-2,1.6-3.2,2c-1.2,0.5-2.5,0.7-3.8,0.7
					c-1.3,0-2.6-0.2-3.8-0.7c-1.2-0.5-2.3-1.1-3.3-2c-1-0.9-1.7-2-2.3-3.3c-0.6-1.3-0.8-2.9-0.8-4.6c0-1.7,0.3-3.3,0.8-4.6
					c0.6-1.3,1.3-2.4,2.3-3.3c0.9-0.9,2-1.6,3.3-2C182.6,20.5,183.9,20.2,185.2,20.2z M185.2,38.9c0.8,0,1.5-0.2,2.3-0.5
					c0.7-0.3,1.4-0.8,2-1.5c0.6-0.7,1.1-1.5,1.4-2.5c0.4-1,0.5-2.2,0.5-3.6c0-1.4-0.2-2.6-0.5-3.6c-0.4-1-0.8-1.8-1.4-2.5
					c-0.6-0.7-1.3-1.1-2-1.5c-0.7-0.3-1.5-0.5-2.3-0.5c-0.8,0-1.5,0.2-2.3,0.5c-0.7,0.3-1.4,0.8-2,1.5c-0.6,0.7-1.1,1.5-1.4,2.5
					c-0.4,1-0.5,2.2-0.5,3.6c0,1.4,0.2,2.6,0.5,3.6c0.4,1,0.8,1.8,1.4,2.5c0.6,0.7,1.3,1.2,2,1.5C183.7,38.8,184.4,38.9,185.2,38.9z
					"/>
				<path id="XMLID_91_" class="st5" d="M194.5,26.3c-0.6-1.3-1.3-2.4-2.3-3.3c-0.9-0.9-2-1.6-3.2-2c-1-0.4-1.9-0.5-2.9-0.6
					c0.9,1,1.6,2.1,2.2,3.4c0.5,0.3,0.9,0.6,1.3,1c0.6,0.7,1.1,1.5,1.4,2.5c0.4,1,0.5,2.2,0.5,3.6c0,1.4-0.2,2.6-0.5,3.6
					c-0.4,1-0.8,1.8-1.4,2.5c-0.6,0.7-1.3,1.2-2,1.5c-0.2,0.1-0.4,0.1-0.6,0.2c-0.8,1.1-1.7,2-2.7,2.7c0.3,0,0.7,0.1,1,0.1
					c1.3,0,2.6-0.2,3.8-0.7c1.2-0.5,2.3-1.1,3.2-2c1-0.9,1.7-2,2.3-3.3c0.6-1.3,0.8-2.9,0.8-4.6C195.3,29.1,195.1,27.6,194.5,26.3z"
					/>
			</g>
		</g>
	</g>
</g>
<g id="XMLID_3_">
	<defs>
		<path id="XMLID_4_" d="M35.3,29.1c2.1-1.5,3.1-3.6,3.1-6.4c0-2.3-0.7-4.2-2.2-5.7c-1.4-1.5-3.2-2.2-5.3-2.2h-1.2
			c-1.6,0.5-3,1.6-4.2,2.9c3.1-0.5,6.9-0.3,8.4,1.5c0.8,0.9,1.2,2,1.2,3.5c0,1.5-0.4,2.7-1.2,3.5c-0.8,0.8-1.8,1.3-3,1.3l-10.4,0
			c-0.3,1-0.4,2.1-0.5,3.1l9.7,0c1.9,0,3.6,0.7,5,2.1c1.4,1.4,2.1,3,2.1,4.7c0,1.7-0.5,3.5-2.1,4.7c-2.8,2-5.9,2.4-8.3,2.2
			c1.5,0.9,3.9,1.7,6.1,1.7c0.9,0,1.6,0.1,2.5-0.4c1-0.5,1.6-1.1,2.1-1.5c2.1-2,3.1-4.2,3.1-6.8C40.1,33.9,38.5,31.1,35.3,29.1z"/>
	</defs>
	<use xlink:href="#XMLID_4_"  style="overflow:visible;fill:#FFFFFF;"/>
	<clipPath id="XMLID_6_">
		<use xlink:href="#XMLID_4_"  style="overflow:visible;"/>
	</clipPath>
	<g id="XMLID_29_" class="st6">
		<path id="XMLID_31_" class="st7" d="M19.9,32.1c0-7.5,5.1-17.7,12.6-17.7c7.5,0,12.6,10.2,12.6,17.7c0,7.5-5.1,13.6-12.6,13.6
			C25,45.7,19.9,39.6,19.9,32.1z"/>
		<path id="XMLID_30_" class="st7" d="M33.2,14.4c4.5,3.3,7.2,10.3,7.2,15.8c0,7.5-3.5,14.6-12.1,14.1c-0.6,0-1.2-0.1-1.8-0.2
			c1.8,1.1,3.9,1.5,6.3,1.5c2.8,0,5.3-0.9,7.3-2.3c3.3-2.4,5.3-6.6,5.3-11.3C45.4,24.7,40.5,14.8,33.2,14.4z"/>
	</g>
</g>
</svg>
