<?xml version="1.0" encoding="utf-8"?>
<!-- Generator: Adobe Illustrator 19.0.0, SVG Export Plug-In . SVG Version: 6.00 Build 0)  -->
<svg version="1.1" id="Layer_1" xmlns="http://www.w3.org/2000/svg" xmlns:xlink="http://www.w3.org/1999/xlink" x="0px" y="0px"
	 viewBox="0 0 35 35" style="enable-background:new 0 0 35 35;" xml:space="preserve">
<style type="text/css">
	.st0{fill:#7BA1B2;}
	.st1{fill:#EF4E7A;}
</style>
<g id="XMLID_14_">
	<g id="XMLID_281_">
		<path id="XMLID_288_" class="st0" d="M13.1,11.7c3.2,0,5.8-2.6,5.8-5.8C19,2.6,16.4,0,13.1,0C9.9,0,7.3,2.6,7.3,5.8
			C7.3,9.1,9.9,11.7,13.1,11.7L13.1,11.7z M13.1,2.1c2.1,0,3.8,1.7,3.8,3.8c0,2.1-1.7,3.8-3.8,3.8c-2.1,0-3.8-1.7-3.8-3.8
			C9.4,3.8,11.1,2.1,13.1,2.1L13.1,2.1z M13.1,2.1"/>
		<path id="XMLID_282_" class="st0" d="M25,18.9c-0.4,0-0.8,0-1.2,0.1c-0.3-2.2-1.8-4.1-3.9-4.8c0,0-1.7-0.5-1.7-0.5
			c-0.5-0.2-1.1,0.1-1.3,0.6l-2.2,6c0,0-0.7-3.2-0.7-3.2l1.1-2c0.2-0.3,0.2-0.6,0-0.9c-0.2-0.3-0.4-0.4-0.7-0.4H12
			c-0.3,0-0.6,0.2-0.7,0.4c-0.2,0.3-0.2,0.6,0,0.9l1.1,2c0,0.1-0.7,3.2-0.7,3.2l-2.2-6c-0.2-0.5-0.7-0.8-1.3-0.6
			c0,0-1.7,0.5-1.7,0.5c-2.4,0.8-4,3-4,5.5v9.4c0,0.6,0.5,1,1,1h14.1c1.2,2.8,4.1,4.8,7.3,4.8c4.4,0,8-3.6,8-8
			C33,22.5,29.4,18.9,25,18.9L25,18.9z M4.6,28.1v-8.4c0-1.6,1-3,2.5-3.5l0.7-0.2c0,0,4.4,12.1,4.5,12.1H4.6z M14,28.1
			c0-0.1,4.5-12.1,4.5-12.1l0.7,0.2c1.5,0.5,2.5,1.8,2.5,3.4c-2.8,1.2-4.8,4.1-4.8,7.3c0,0.4,0,0.8,0.1,1.2H14z M25,32.9
			c-3.3,0-6-2.7-6-6c0-3.3,2.7-6,6-6s6,2.7,6,6C30.9,30.2,28.3,32.9,25,32.9L25,32.9z M25,32.9"/>
	</g>
	<g id="XMLID_250_">
		<path id="XMLID_252_" class="st1" d="M28,28.9l-0.8,0.8c-0.2,0.2-0.5,0.2-0.7,0l-4.6-4.6c-0.2-0.2-0.2-0.5,0-0.7l0.8-0.8
			c0.2-0.2,0.5-0.2,0.7,0l4.6,4.6C28.2,28.5,28.2,28.7,28,28.9z"/>
		<path id="XMLID_251_" class="st1" d="M22.7,29.7l-0.8-0.8c-0.2-0.2-0.2-0.5,0-0.7l4.6-4.6c0.2-0.2,0.5-0.2,0.7,0l0.8,0.8
			c0.2,0.2,0.2,0.5,0,0.7l-4.6,4.6C23.2,29.9,22.9,29.9,22.7,29.7z"/>
	</g>
</g>
</svg>
