<?xml version="1.0" encoding="utf-8"?>
<!-- Generator: Adobe Illustrator 19.0.0, SVG Export Plug-In . SVG Version: 6.00 Build 0)  -->
<svg version="1.1" id="Layer_1" xmlns="http://www.w3.org/2000/svg" xmlns:xlink="http://www.w3.org/1999/xlink" x="0px" y="0px"
	 viewBox="-424 -590.2 484 484" style="enable-background:new -424 -590.2 484 484;" xml:space="preserve">
<style type="text/css">
	.st0{fill:none;}
	.st1{fill:#FFFFFF;}
	.st2{fill:#F31830;}
	.st3{fill:#00D941;}
</style>
<rect x="-422" y="-590.2" class="st0" width="484" height="484"/>
<path d="M-2052-1432.2c-232.5,0-421,188.5-421,421s188.5,421,421,421c232.5,0,421-188.5,421-421S-1819.5-1432.2-2052-1432.2z
	 M-2052-769.2c-133.7,0-242-108.3-242-242s108.3-242,242-242s242,108.3,242,242S-1918.3-769.2-2052-769.2z"/>
<path class="st0" d="M-424-348.2c0,10.6,0.7,21.1,2,31.3v-62.7C-423.3-369.3-424-358.8-424-348.2z"/>
<path class="st0" d="M-182-590.2c-0.2,0-0.4,0-0.7,0h1.3C-181.6-590.2-181.8-590.2-182-590.2z"/>
<path class="st1" d="M46.2-428.9H-180l-0.5,161.3l0,0H46.2c8.9-25.2,13.8-52.4,13.8-80.7C60-376.5,55.1-403.6,46.2-428.9z"/>
<path class="st2" d="M-337.4-162.7c42,35.3,96.2,56.5,155.4,56.5c105.4,0,195-67.3,228.2-161.3h-226.8L-337.4-162.7z"/>
<path class="st3" d="M-180-429l0,0.1H46.2C13-522.7-76.3-589.9-181.3-590.2h-1.3c-58.9,0.2-112.8,21.3-154.7,56.4L-180-429z"/>
<path class="st3" d="M231.3-428.9H546v0L231.3-428.9C231.3-428.9,231.3-428.9,231.3-428.9z"/>
<path class="st3" d="M-180-428.9H46.2c0,0,0,0,0,0L-180-428.9L-180-428.9z"/>
<path d="M-180.5-267.6L-180.5-267.6l0.5-161.3h-230.2c-5.6,15.8-9.6,32.2-11.8,49.3v62.7c2.2,17.1,6.2,33.6,11.8,49.3H-180.5z"/>
<path d="M-410.2-267.6c14.6,41.2,40,77.3,72.8,104.8l156.9-104.8H-410.2z"/>
<path d="M-180-429l-157.3-104.8c-32.9,27.5-58.3,63.6-72.9,104.9H-180L-180-429z"/>
<path d="M-410.2-428.9C-410.2-428.9-410.2-428.9-410.2-428.9l230.2,0l0,0H-410.2z"/>
<path d="M796,129.2V-32.1v-49.3c-1.3-10.3-2-20.7-2-31.3c0-10.6,0.7-21.1,2-31.3v-49.3v0v-161.3h239.3c0.2,0,0.4,0,0.7,0
	s0.4,0,0.7,0h343.9c-76.2-108.3-202.1-179-344.5-179c-232.5,0-421,188.5-421,421s188.5,421,421,421c142.4,0,268.3-70.7,344.5-179
	L796,129.2L796,129.2z"/>
<path d="M46.2-428.9h185.1c0,0,0,0,0,0L46.2-428.9C46.2-428.9,46.2-428.9,46.2-428.9z"/>
<path d="M-410.2-428.9H-422v0L-410.2-428.9C-410.2-428.9-410.2-428.9-410.2-428.9z"/>
</svg>
